<!-- Generator: Adobe Illustrator 24.2.1, SVG Export Plug-In  -->
<svg version="1.1" xmlns="http://www.w3.org/2000/svg" xmlns:xlink="http://www.w3.org/1999/xlink" x="0px" y="0px"
	 width="1150.4px" height="635.5px" viewBox="0 0 1150.4 635.5" style="overflow:visible;enable-background:new 0 0 1150.4 635.5;"
	 xml:space="preserve">
<style type="text/css">
	.st0{fill:#202020;}
	.st1{fill:none;}
	.st2{fill:#F2F2F2;}
	.st3{font-family:'MyriadPro-Regular';}
	.st4{font-size:27.5299px;}
	.st5{fill:#70150D;}
	.st6{fill:#911918;}
	.st7{fill:#A01B23;}
	.st8{fill:#BC3643;}
	.st9{fill:#C15969;}
	.st10{fill:#CB7A87;}
	.st11{fill:#DB9292;}
	.st12{fill:#F5B3A6;}
	.st13{font-size:36px;}
</style>
<defs>
</defs>
<circle class="st0" cx="782.9" cy="283.3" r="61.5"/>
<rect x="105.7" y="3.5" class="st1" width="450.8" height="63.4"/>
<text transform="matrix(1 0 0 1 105.6783 23.0424)" class="st2 st3 st4">Wachstum von Kreisen</text>
<circle class="st5" cx="15.2" cy="137.2" r="15.2"/>
<circle class="st6" cx="100.6" cy="137.2" r="22"/>
<circle class="st7" cx="194" cy="137.2" r="28.8"/>
<circle class="st8" cx="295.6" cy="137.2" r="35.6"/>
<circle class="st9" cx="405.5" cy="137.2" r="42.5"/>
<circle class="st10" cx="523.3" cy="137.2" r="47.8"/>
<circle class="st11" cx="649.1" cy="137.2" r="53.2"/>
<circle class="st12" cx="782.9" cy="137.2" r="61.5"/>
<rect x="946.4" y="85.9" class="st1" width="204" height="394.8"/>
<text transform="matrix(1 0 0 1 946.3776 111.4281)"><tspan x="0" y="0" class="st5 st3 st13">unter 5</tspan><tspan x="0" y="43.2" class="st6 st3 st13">5-6</tspan><tspan x="0" y="86.4" class="st7 st3 st13">7-8</tspan><tspan x="0" y="129.6" class="st8 st3 st13">9-11</tspan><tspan x="0" y="172.8" class="st9 st3 st13">12-15</tspan><tspan x="0" y="216" class="st10 st3 st13">16-18</tspan><tspan x="0" y="259.2" class="st11 st3 st13">19-21</tspan><tspan x="0" y="302.4" class="st12 st3 st13">22 und mehr</tspan><tspan x="0" y="345.6" class="st0 st3 st13">Abbruch</tspan></text>
<circle class="st7" cx="193.4" cy="283.3" r="28.8"/>
<circle class="st8" cx="295" cy="283.3" r="35.6"/>
<circle class="st9" cx="404.9" cy="283.3" r="43.9"/>
<circle class="st0" cx="522.7" cy="283.3" r="47.8"/>
<circle class="st0" cx="648.6" cy="283.3" r="53.2"/>
<circle class="st0" cx="783.5" cy="428.5" r="61.5"/>
<circle class="st7" cx="194" cy="428.5" r="28.8"/>
<circle class="st8" cx="295.6" cy="428.5" r="35.6"/>
<circle class="st0" cx="405.5" cy="428.5" r="43.9"/>
<circle class="st0" cx="523.3" cy="428.5" r="47.8"/>
<circle class="st0" cx="649.1" cy="428.5" r="53.2"/>
<circle class="st7" cx="194.4" cy="574" r="28.8"/>
<circle class="st8" cx="296" cy="574" r="35.6"/>
<circle class="st9" cx="405.9" cy="574" r="43.9"/>
<circle class="st10" cx="523.8" cy="574" r="47.8"/>
<circle class="st11" cx="649.6" cy="574" r="53.2"/>
<circle class="st0" cx="783.3" cy="574" r="61.5"/>
<circle class="st5" cx="15.2" cy="283.3" r="15.2"/>
<circle class="st5" cx="15.2" cy="428.5" r="15.2"/>
<circle class="st5" cx="15.2" cy="574" r="15.2"/>
<circle class="st6" cx="100.6" cy="283.3" r="22"/>
<circle class="st6" cx="100.6" cy="428.5" r="22"/>
<circle class="st6" cx="100.6" cy="574" r="22"/>
</svg>
