<!-- Generator: Adobe Illustrator 24.2.1, SVG Export Plug-In  -->
<svg version="1.1" xmlns="http://www.w3.org/2000/svg" xmlns:xlink="http://www.w3.org/1999/xlink" x="0px" y="0px"
	 width="1447.5px" height="833.4px" viewBox="0 0 1447.5 833.4" style="overflow:visible;enable-background:new 0 0 1447.5 833.4;"
	 xml:space="preserve">
<style type="text/css">
	.st0{fill:none;stroke:#FFFFFF;stroke-miterlimit:10;}
	.st1{fill:#1D1D1B;stroke:#F5F5F5;stroke-width:4;stroke-linecap:round;stroke-linejoin:round;stroke-miterlimit:10;}
	.st2{opacity:0.2;fill:#6F6F6E;}
	.st3{opacity:0.4;fill:#6F6F6E;}
	.st4{opacity:0.3;fill:#6F6F6E;}
	.st5{opacity:0.1;fill:#6F6F6E;}
	.st6{fill:none;stroke:#A2195B;stroke-width:4;stroke-miterlimit:10;}
	.st7{fill:none;stroke:#8C3843;stroke-width:4;stroke-miterlimit:10;}
	.st8{fill:none;stroke:#A2195B;stroke-miterlimit:10;}
	.st9{fill:none;stroke:#8C4172;stroke-width:4;stroke-miterlimit:10;}
	.st10{fill:none;stroke:#E5007E;stroke-width:17;stroke-linecap:round;stroke-miterlimit:10;}
	.st11{fill:#D64D68;}
	.st12{fill:#DF80B1;}
	.st13{fill:#8C3843;}
	.st14{fill:#A2195B;}
	.st15{fill:none;stroke:#E5007E;stroke-width:15;stroke-miterlimit:10;}
	.st16{fill:#C37AA5;}
	.st17{fill:none;stroke:#E5007E;stroke-width:15;stroke-linecap:round;stroke-miterlimit:10;}
	.st18{fill:#8C4172;}
	.st19{fill:#AD4186;}
	.st20{fill:none;stroke:#E5007E;stroke-width:4;stroke-miterlimit:10;}
	.st21{fill:none;stroke:#D64D68;stroke-width:4;stroke-miterlimit:10;}
	.st22{fill:none;stroke:#DF80B1;stroke-width:4;stroke-miterlimit:10;}
	.st23{fill:none;stroke:#AD4186;stroke-width:4;stroke-miterlimit:10;}
	.st24{fill:none;stroke:#C37AA5;stroke-width:4;stroke-miterlimit:10;}
</style>
<defs>
</defs>
<polyline class="st0" points="18.3,814.5 1.5,805.8 19.2,832.5 36.9,805.4 19.6,814.6 18.1,36.9 "/>
<polyline class="st0" points="620.9,803.5 604.1,794.8 621.8,821.4 639.6,794.3 622.2,803.6 620.7,25.8 "/>
<polyline class="st0" points="1233.8,803.5 1217,794.8 1234.7,821.4 1252.5,794.3 1235.1,803.6 1233.6,25.8 "/>
<g>
	<g>
		<g>
			<path class="st1" d="M182.3,44.1c0.1-1.7,0.2-2.5,0.3-4.2"/>
			<path class="st1" d="M197.9,46.8c0.6-1.6,0.9-2.4,1.6-4"/>
			<path class="st1" d="M210.6,52.9c1-1.4,1.5-2.1,2.6-3.5"/>
			<path class="st1" d="M220.5,61.5c1.4-1.1,2-1.7,3.4-2.8"/>
			<path class="st1" d="M227.6,121.1c4.7,2.3,7,3.5,11.7,5.8"/>
			<path class="st1" d="M220.5,131.7c4,3.3,6,5,10.1,8.3"/>
			<path class="st1" d="M210.6,140.3c3.1,4.2,4.6,6.2,7.7,10.4"/>
			<path class="st1" d="M197.8,146.3c0.1,0.2,0.1,0.4,0.2,0.6"/>
			<path class="st1" d="M227.6,72.1c6.3-3.1,9.5-4.7,15.8-7.8"/>
			<path class="st1" d="M231.8,84c6.8-1.6,10.3-2.4,17.1-4"/>
			<path class="st1" d="M233.3,96.7c7.7,0,11.6,0,19.3,0"/>
			<path class="st1" d="M231.8,109.2c7.5,1.8,11.3,2.7,18.8,4.4"/>
			<path class="st1" d="M182.3,149.1c0,0.3,0,0.4,0.1,0.6"/>
		</g>
	</g>
</g>
<g>
	<g>
		<g>
			<path class="st1" d="M182.3,484c0.1-1.7,0.2-2.5,0.3-4.2"/>
			<path class="st1" d="M197.9,486.8c0.6-1.6,0.9-2.4,1.6-4"/>
			<path class="st1" d="M210.6,492.8c1-1.4,1.5-2.1,2.6-3.5"/>
			<path class="st1" d="M220.5,501.5c1.4-1.1,2-1.7,3.4-2.8"/>
			<path class="st1" d="M227.6,561.1c4.7,2.3,7,3.5,11.7,5.8"/>
			<path class="st1" d="M220.5,571.6c4,3.3,6,5,10.1,8.3"/>
			<path class="st1" d="M210.6,580.3c3.1,4.2,4.6,6.2,7.7,10.4"/>
			<path class="st1" d="M197.8,586.3c0.1,0.2,0.1,0.4,0.2,0.6"/>
			<path class="st1" d="M227.6,512c6.3-3.1,9.5-4.7,15.8-7.8"/>
			<path class="st1" d="M231.8,524c6.8-1.6,10.3-2.4,17.1-4"/>
			<path class="st1" d="M233.3,536.6c7.7,0,11.6,0,19.3,0"/>
			<path class="st1" d="M231.8,549.2c7.5,1.8,11.3,2.7,18.8,4.4"/>
			<path class="st1" d="M182.3,589.1c0,0.3,0,0.4,0.1,0.6"/>
		</g>
	</g>
</g>
<g>
	<g>
		<g>
			<path class="st1" d="M182.3,264c0.1-1.7,0.2-2.5,0.3-4.2"/>
			<path class="st1" d="M197.9,266.8c0.6-1.6,0.9-2.4,1.6-4"/>
			<path class="st1" d="M210.6,272.8c1-1.4,1.5-2.1,2.6-3.5"/>
			<path class="st1" d="M220.5,281.5c1.4-1.1,2-1.7,3.4-2.8"/>
			<path class="st1" d="M227.6,341.1c4.7,2.3,7,3.5,11.7,5.8"/>
			<path class="st1" d="M220.5,351.6c4,3.3,6,5,10.1,8.3"/>
			<path class="st1" d="M210.6,360.3c3.1,4.2,4.6,6.2,7.7,10.4"/>
			<path class="st1" d="M197.8,366.3c0.1,0.2,0.1,0.4,0.2,0.6"/>
			<path class="st1" d="M227.6,292.1c6.3-3.1,9.5-4.7,15.8-7.8"/>
			<path class="st1" d="M231.8,304c6.8-1.6,10.3-2.4,17.1-4"/>
			<path class="st1" d="M233.3,316.6c7.7,0,11.6,0,19.3,0"/>
			<path class="st1" d="M231.8,329.2c7.5,1.8,11.3,2.7,18.8,4.4"/>
			<path class="st1" d="M182.3,369.1c0,0.3,0,0.4,0.1,0.6"/>
		</g>
	</g>
</g>
<g>
	<g>
		<g>
			<path class="st1" d="M182.3,704c0.1-1.7,0.2-2.5,0.3-4.2"/>
			<path class="st1" d="M197.9,706.8c0.6-1.6,0.9-2.4,1.6-4"/>
			<path class="st1" d="M210.6,712.8c1-1.4,1.5-2.1,2.6-3.5"/>
			<path class="st1" d="M220.5,721.5c1.4-1.1,2-1.7,3.4-2.8"/>
			<path class="st1" d="M227.6,781.1c4.7,2.3,7,3.5,11.7,5.8"/>
			<path class="st1" d="M220.5,791.6c4,3.3,6,5,10.1,8.3"/>
			<path class="st1" d="M210.6,800.3c3.1,4.2,4.6,6.2,7.7,10.4"/>
			<path class="st1" d="M197.8,806.3c0.1,0.2,0.1,0.4,0.2,0.6"/>
			<path class="st1" d="M227.6,732c6.3-3.1,9.5-4.7,15.8-7.8"/>
			<path class="st1" d="M231.8,744c6.8-1.6,10.3-2.4,17.1-4"/>
			<path class="st1" d="M233.3,756.6c7.7,0,11.6,0,19.3,0"/>
			<path class="st1" d="M231.8,769.2c7.5,1.8,11.3,2.7,18.8,4.4"/>
			<path class="st1" d="M182.3,809c0,0.3,0,0.4,0.1,0.6"/>
		</g>
	</g>
</g>
<rect x="191.2" y="33.9" width="74.4" height="141.5"/>
<rect x="174.8" y="293.8" width="84.3" height="141.5"/>
<rect x="174.2" y="559.2" width="48.4" height="54.1"/>
<rect x="210.7" y="572.4" width="48.4" height="54.1"/>
<rect x="150.6" y="133.1" width="74.4" height="31.3"/>
<circle class="st2" cx="181.3" cy="319.2" r="19"/>
<g>
	<g>
		<g>
			<path class="st1" d="M1363.5,252.6c0.1-1.7,0.2-2.5,0.3-4.2"/>
			<path class="st1" d="M1379.1,255.4c0.6-1.6,0.9-2.4,1.6-4"/>
			<path class="st1" d="M1391.7,261.4c1-1.4,1.5-2.1,2.6-3.5"/>
			<path class="st1" d="M1401.7,270c1.4-1.1,2-1.7,3.4-2.8"/>
			<path class="st1" d="M1408.7,329.6c4.7,2.3,7,3.5,11.7,5.8"/>
			<path class="st1" d="M1401.7,340.2c4,3.3,6,5,10.1,8.3"/>
			<path class="st1" d="M1391.7,348.8c3.1,4.2,4.6,6.2,7.7,10.4"/>
			<path class="st1" d="M1379,354.9c0.1,0.2,0.1,0.4,0.2,0.6"/>
			<path class="st1" d="M1408.7,280.6c6.3-3.1,9.5-4.7,15.8-7.8"/>
			<path class="st1" d="M1413,292.5c6.8-1.6,10.3-2.4,17.1-4"/>
			<path class="st1" d="M1414.4,305.2c7.7,0,11.6,0,19.3,0"/>
			<path class="st1" d="M1413,317.8c7.5,1.8,11.3,2.7,18.8,4.4"/>
			<path class="st1" d="M1363.5,357.6c0,0.3,0,0.4,0.1,0.6"/>
		</g>
	</g>
</g>
<g>
	<g>
		<g>
			<path class="st1" d="M770.1,263c0.1-1.7,0.2-2.5,0.3-4.2"/>
			<path class="st1" d="M785.6,265.8c0.6-1.6,0.9-2.4,1.6-4"/>
			<path class="st1" d="M798.3,271.8c1-1.4,1.5-2.1,2.6-3.5"/>
			<path class="st1" d="M808.3,280.5c1.4-1.1,2-1.7,3.4-2.8"/>
			<path class="st1" d="M815.3,340.1c4.7,2.3,7,3.5,11.7,5.8"/>
			<path class="st1" d="M808.2,350.6c4,3.3,6,5,10.1,8.3"/>
			<path class="st1" d="M798.3,359.3c3.1,4.2,4.6,6.2,7.7,10.4"/>
			<path class="st1" d="M785.5,365.3c0.1,0.2,0.1,0.4,0.2,0.6"/>
			<path class="st1" d="M815.3,291c6.3-3.1,9.5-4.7,15.8-7.8"/>
			<path class="st1" d="M819.6,302.9c6.8-1.6,10.3-2.4,17.1-4"/>
			<path class="st1" d="M821,315.6c7.7,0,11.6,0,19.3,0"/>
			<path class="st1" d="M819.6,328.2c7.5,1.8,11.3,2.7,18.8,4.4"/>
			<path class="st1" d="M770,368c0,0.3,0,0.4,0.1,0.6"/>
		</g>
	</g>
</g>
<rect x="762.5" y="292.8" width="84.3" height="141.5"/>
<circle class="st2" cx="769" cy="318.1" r="19"/>
<circle class="st3" cx="181.3" cy="756.4" r="27.8"/>
<g>
	<g>
		<g>
			<path class="st1" d="M1363.9,682.4c0.1-1.7,0.2-2.5,0.3-4.2"/>
			<path class="st1" d="M1379.5,685.1c0.6-1.6,0.9-2.4,1.6-4"/>
			<path class="st1" d="M1392.1,691.1c1-1.4,1.5-2.1,2.6-3.5"/>
			<path class="st1" d="M1402.1,699.8c1.4-1.1,2-1.7,3.4-2.8"/>
			<path class="st1" d="M1409.1,759.4c4.7,2.3,7,3.5,11.7,5.8"/>
			<path class="st1" d="M1402.1,770c4,3.3,6,5,10.1,8.3"/>
			<path class="st1" d="M1392.1,778.6c3.1,4.2,4.6,6.2,7.7,10.4"/>
			<path class="st1" d="M1379.4,784.6c0.1,0.2,0.1,0.4,0.2,0.6"/>
			<path class="st1" d="M1409.1,710.4c6.3-3.1,9.5-4.7,15.8-7.8"/>
			<path class="st1" d="M1413.4,722.3c6.8-1.6,10.3-2.4,17.1-4"/>
			<path class="st1" d="M1414.8,734.9c7.7,0,11.6,0,19.3,0"/>
			<path class="st1" d="M1413.4,747.5c7.5,1.8,11.3,2.7,18.8,4.4"/>
			<path class="st1" d="M1363.9,787.4c0,0.3,0,0.4,0.1,0.6"/>
		</g>
	</g>
</g>
<circle class="st3" cx="1359.4" cy="734.3" r="27.8"/>
<g>
	<g>
		<g>
			<path class="st1" d="M769.1,694.1c0.1-1.7,0.2-2.5,0.3-4.2"/>
			<path class="st1" d="M784.7,696.9c0.6-1.6,0.9-2.4,1.6-4"/>
			<path class="st1" d="M797.4,702.9c1-1.4,1.5-2.1,2.6-3.5"/>
			<path class="st1" d="M807.3,711.6c1.4-1.1,2-1.7,3.4-2.8"/>
			<path class="st1" d="M814.3,771.2c4.7,2.3,7,3.5,11.7,5.8"/>
			<path class="st1" d="M807.3,781.7c4,3.3,6,5,10.1,8.3"/>
			<path class="st1" d="M797.3,790.4c3.1,4.2,4.6,6.2,7.7,10.4"/>
			<path class="st1" d="M784.6,796.4c0.1,0.2,0.1,0.4,0.2,0.6"/>
			<path class="st1" d="M814.4,722.1c6.3-3.1,9.5-4.7,15.8-7.8"/>
			<path class="st1" d="M818.6,734c6.8-1.6,10.3-2.4,17.1-4"/>
			<path class="st1" d="M820,746.7c7.7,0,11.6,0,19.3,0"/>
			<path class="st1" d="M818.6,759.3c7.5,1.8,11.3,2.7,18.8,4.4"/>
			<path class="st1" d="M769.1,799.1c0,0.3,0,0.4,0.1,0.6"/>
		</g>
	</g>
</g>
<circle class="st3" cx="768.1" cy="746.4" r="27.8"/>
<circle class="st4" cx="181.3" cy="535" r="23.2"/>
<g>
	<g>
		<g>
			<path class="st1" d="M1363.6,462.4c0.1-1.7,0.2-2.5,0.3-4.2"/>
			<path class="st1" d="M1379.2,465.2c0.6-1.6,0.9-2.4,1.6-4"/>
			<path class="st1" d="M1391.9,471.2c1-1.4,1.5-2.1,2.6-3.5"/>
			<path class="st1" d="M1401.8,479.9c1.4-1.1,2-1.7,3.4-2.8"/>
			<path class="st1" d="M1408.9,539.5c4.7,2.3,7,3.5,11.7,5.8"/>
			<path class="st1" d="M1401.8,550c4,3.3,6,5,10.1,8.3"/>
			<path class="st1" d="M1391.9,558.7c3.1,4.2,4.6,6.2,7.7,10.4"/>
			<path class="st1" d="M1379.1,564.7c0.1,0.2,0.1,0.4,0.2,0.6"/>
			<path class="st1" d="M1408.9,490.4c6.3-3.1,9.5-4.7,15.8-7.8"/>
			<path class="st1" d="M1413.2,502.4c6.8-1.6,10.3-2.4,17.1-4"/>
			<path class="st1" d="M1414.6,515c7.7,0,11.6,0,19.3,0"/>
			<path class="st1" d="M1413.1,527.6c7.5,1.8,11.3,2.7,18.8,4.4"/>
			<path class="st1" d="M1363.6,567.5c0,0.3,0,0.4,0.1,0.6"/>
		</g>
	</g>
</g>
<rect x="1355.5" y="537.6" width="48.4" height="54.1"/>
<rect x="1392.1" y="550.8" width="48.4" height="54.1"/>
<g>
	<g>
		<g>
			<path class="st1" d="M769.1,477.8c0.1-1.7,0.2-2.5,0.3-4.2"/>
			<path class="st1" d="M784.7,480.6c0.6-1.6,0.9-2.4,1.6-4"/>
			<path class="st1" d="M797.4,486.6c1-1.4,1.5-2.1,2.6-3.5"/>
			<path class="st1" d="M807.3,495.3c1.4-1.1,2-1.7,3.4-2.8"/>
			<path class="st1" d="M814.4,554.9c4.7,2.3,7,3.5,11.7,5.8"/>
			<path class="st1" d="M807.3,565.4c4,3.3,6,5,10.1,8.3"/>
			<path class="st1" d="M797.4,574.1c3.1,4.2,4.6,6.2,7.7,10.4"/>
			<path class="st1" d="M784.6,580.1c0.1,0.2,0.1,0.4,0.2,0.6"/>
			<path class="st1" d="M814.4,505.8c6.3-3.1,9.5-4.7,15.8-7.8"/>
			<path class="st1" d="M818.7,517.8c6.8-1.6,10.3-2.4,17.1-4"/>
			<path class="st1" d="M820.1,530.4c7.7,0,11.6,0,19.3,0"/>
			<path class="st1" d="M818.6,543c7.5,1.8,11.3,2.7,18.8,4.4"/>
			<path class="st1" d="M769.1,582.9c0,0.3,0,0.4,0.1,0.6"/>
		</g>
	</g>
</g>
<rect x="761" y="553" width="48.4" height="54.1"/>
<rect x="797.6" y="566.2" width="48.4" height="54.1"/>
<circle class="st4" cx="768.1" cy="528.8" r="23.2"/>
<circle class="st5" cx="180.8" cy="96.6" r="6.6"/>
<g>
	<g>
		<g>
			<path class="st1" d="M772.1,39.1c0.1-1.7,0.2-2.5,0.3-4.2"/>
			<path class="st1" d="M787.7,41.9c0.6-1.6,0.9-2.4,1.6-4"/>
			<path class="st1" d="M800.3,47.9c1-1.4,1.5-2.1,2.6-3.5"/>
			<path class="st1" d="M810.3,56.5c1.4-1.1,2-1.7,3.4-2.8"/>
			<path class="st1" d="M817.3,116.1c4.7,2.3,7,3.5,11.7,5.8"/>
			<path class="st1" d="M810.3,126.7c4,3.3,6,5,10.1,8.3"/>
			<path class="st1" d="M800.3,135.3c3.1,4.2,4.6,6.2,7.7,10.4"/>
			<path class="st1" d="M787.6,141.4c0.1,0.2,0.1,0.4,0.2,0.6"/>
			<path class="st1" d="M817.3,67.1c6.3-3.1,9.5-4.7,15.8-7.8"/>
			<path class="st1" d="M821.6,79c6.8-1.6,10.3-2.4,17.1-4"/>
			<path class="st1" d="M823,91.7c7.7,0,11.6,0,19.3,0"/>
			<path class="st1" d="M821.6,104.3c7.5,1.8,11.3,2.7,18.8,4.4"/>
			<path class="st1" d="M772.1,144.1c0,0.3,0,0.4,0.1,0.6"/>
		</g>
	</g>
</g>
<rect x="781" y="28.9" width="74.4" height="141.5"/>
<rect x="740.4" y="128.1" width="74.4" height="31.3"/>
<circle class="st5" cx="770.5" cy="91.6" r="6.6"/>
<g>
	<g>
		<g>
			<path class="st1" d="M1364.2,20.3c0.1-1.7,0.2-2.5,0.3-4.2"/>
			<path class="st1" d="M1379.8,23.1c0.6-1.6,0.9-2.4,1.6-4"/>
			<path class="st1" d="M1392.4,29.1c1-1.4,1.5-2.1,2.6-3.5"/>
			<path class="st1" d="M1402.4,37.8c1.4-1.1,2-1.7,3.4-2.8"/>
			<path class="st1" d="M1409.4,97.4c4.7,2.3,7,3.5,11.7,5.8"/>
			<path class="st1" d="M1402.3,107.9c4,3.3,6,5,10.1,8.3"/>
			<path class="st1" d="M1392.4,116.6c3.1,4.2,4.6,6.2,7.7,10.4"/>
			<path class="st1" d="M1379.7,122.6c0.1,0.2,0.1,0.4,0.2,0.6"/>
			<path class="st1" d="M1409.4,48.4c6.3-3.1,9.5-4.7,15.8-7.8"/>
			<path class="st1" d="M1413.7,60.3c6.8-1.6,10.3-2.4,17.1-4"/>
			<path class="st1" d="M1415.1,72.9c7.7,0,11.6,0,19.3,0"/>
			<path class="st1" d="M1413.7,85.5c7.5,1.8,11.3,2.7,18.8,4.4"/>
			<path class="st1" d="M1364.2,125.4c0,0.3,0,0.4,0.1,0.6"/>
		</g>
	</g>
</g>
<rect x="1373.1" y="10.2" width="74.4" height="141.5"/>
<rect x="1332.5" y="109.4" width="74.4" height="31.3"/>
<g>
	<path class="st6" d="M1359.4,37.5"/>
	<path class="st6" d="M1353.8,38"/>
	<path class="st7" d="M1346.8,40.2c0.9-0.4,4.4-2.2,8.8-2.6"/>
	<path class="st7" d="M1345.8,40.7c0.2-0.1,1-0.5,1.2-0.6"/>
	<path class="st6" d="M1348.8,39.3"/>
	<path class="st6" d="M1347.2,41.5"/>
	<path class="st7" d="M1336.4,91.9c-4.4-5.5-9.1-14.8-9.1-22.4c0-11.2,6.2-22.2,18.5-28.9"/>
	<g>
		<path class="st7" d="M1341,95.7c-0.5-0.3-3.9-3-4.6-3.9"/>
		<path class="st7" d="M1355.6,37.5c17.2-1.8,35.8,14.3,35.8,32s-14.3,32-32,32c-6.8,0-13.1-2.1-18.3-5.8"/>
	</g>
	<path class="st8" d="M1359.4,30.3"/>
	<path class="st8" d="M1354.7,30.6"/>
	<path class="st8" d="M1354.2,30.7"/>
	<path class="st8" d="M1353.8,30.7"/>
	<g>
		<path class="st9" d="M1358.2,30.9c23.8,0,40.8,18.9,40.8,39c0,21.6-17.8,39.2-39.7,39.2s-39.7-17.5-39.7-39.2
			c0-19.7,15.7-37.1,36-38.9"/>
	</g>
	<path class="st8" d="M1361.2,30.4"/>
	<path class="st9" d="M1357.3,30.9c0.1,0,0.8,0,0.9,0"/>
	<path class="st9" d="M1355.6,30.9c0.6-0.1,1.1-0.1,1.7-0.1"/>
</g>
<circle class="st5" cx="1359.4" cy="67.8" r="6.6"/>
<g>
	<path class="st10" d="M182.1,503.2"/>
	<path class="st10" d="M176.4,503.6"/>
	<path class="st11" d="M172.8,506.1c-0.7,0-1.3-0.4-1.5-1.1c-0.3-0.8,0.2-1.7,1-2c0.8-0.2,1.6-0.5,2.4-0.7c0.9-0.2,1.7,0.3,1.9,1.2
		c0.2,0.9-0.3,1.7-1.2,1.9c-0.7,0.2-1.5,0.4-2.2,0.6C173.1,506.1,172.9,506.1,172.8,506.1z"/>
	<path class="st10" d="M171.2,505"/>
	<path class="st10" d="M168.7,506"/>
	<path class="st12" d="M169.2,508.1c0,0-0.2-0.3-0.5-0.9c-0.4-0.8-0.9-1.8-1.1-2.3c0,0,0-0.1,0-0.1c-0.2-0.4,0-0.1,0.5,0.7
		c0.4,0.8,0.9,1.8,1.1,2.3l0,0.1C169.2,508,169.2,508.1,169.2,508.1z"/>
	<path class="st10" d="M169.6,507.3"/>
	<path class="st13" d="M156.3,558.2c-0.5,0-0.9-0.2-1.2-0.6c-4.9-6.1-7.6-13.7-7.6-21.6c0-11.7,5.8-22.5,15.6-28.9
		c0.7-0.5,1.7-0.3,2.2,0.5c0.5,0.7,0.3,1.7-0.5,2.2c-8.9,5.8-14.2,15.6-14.2,26.2c0,7.2,2.4,14,6.9,19.6c0.5,0.7,0.4,1.7-0.2,2.2
		C157,558.1,156.7,558.2,156.3,558.2z"/>
	<g>
		<path class="st14" d="M163.2,564.7c-0.3,0-0.6-0.1-0.9-0.3c-0.5-0.4-1-0.8-1.5-1.1c-0.7-0.5-0.8-1.5-0.3-2.2
			c0.5-0.7,1.5-0.8,2.2-0.3c0.5,0.4,0.9,0.7,1.4,1c0.7,0.5,0.9,1.5,0.4,2.2C164.2,564.4,163.7,564.7,163.2,564.7z"/>
		<path class="st14" d="M182.1,570.6c-7.1,0-14-2.2-19.8-6.2c-0.7-0.5-0.9-1.5-0.4-2.2c0.5-0.7,1.5-0.9,2.2-0.4
			c5.3,3.7,11.5,5.7,18,5.7c17.3,0,31.4-14.1,31.4-31.4c0-17.3-14.1-31.4-31.4-31.4c-0.9,0-1.6-0.7-1.6-1.6c0-0.9,0.7-1.6,1.6-1.6
			c19,0,34.5,15.5,34.5,34.5C216.6,555.1,201.1,570.6,182.1,570.6z"/>
	</g>
	<path class="st15" d="M182.1,495.8"/>
	<path class="st16" d="M179.4,497.5c-0.2,0-0.4-0.5-0.4-1.1c0-0.7,0.1-1.3,0.3-1.3l0.1,1.2l-0.1-1.2l0,0c0.2,0,0.4,0.5,0.4,1.1
		C179.8,496.9,179.7,497.5,179.4,497.5C179.5,497.5,179.5,497.5,179.4,497.5z"/>
	<path class="st15" d="M177.3,496"/>
	<path class="st15" d="M176.8,496.1"/>
	<path class="st17" d="M176.3,496.2"/>
	<g>
		<path class="st18" d="M182.1,578.2c-11.3,0-21.9-4.3-29.9-12.2c-8-7.9-12.4-18.4-12.4-29.5c0-10.1,3.7-19.8,10.4-27.4
			c6.6-7.5,15.7-12.4,25.6-13.9c0.8-0.1,1.5,0.4,1.6,1.2c0.1,0.8-0.4,1.5-1.2,1.6c-9.3,1.4-17.7,6-23.9,13
			c-6.2,7.1-9.7,16.1-9.7,25.5c0,21.5,17.7,39,39.5,39s39.5-17.5,39.5-39c0-19.6-14.9-36.3-34.6-38.7c-0.8-0.1-1.3-0.8-1.2-1.6
			c0.1-0.8,0.8-1.3,1.6-1.2c21.1,2.6,37,20.4,37,41.4c0,11.2-4.4,21.6-12.4,29.5C204,573.9,193.4,578.2,182.1,578.2z"/>
		<path d="M186.8,496.4c0.1,0,0.2,0,0.3,0"/>
	</g>
	<path class="st17" d="M184,495.8"/>
	<path class="st19" d="M183,497.7C183,497.7,183,497.7,183,497.7l-0.3,0c-0.8,0-1.4-0.6-1.4-1.4c0-0.8,0.6-1.4,1.4-1.4l0.3,0
		c0.8,0,1.4,0.7,1.4,1.4C184.4,497.1,183.8,497.7,183,497.7z"/>
</g>
<g>
	<path class="st10" d="M181.3,723.2"/>
	<path class="st10" d="M175.6,723.7"/>
	<path class="st11" d="M172,726.1c-0.7,0-1.3-0.4-1.5-1.1c-0.3-0.8,0.2-1.7,1-2c0.8-0.2,1.6-0.5,2.4-0.7c0.9-0.2,1.7,0.3,1.9,1.2
		c0.2,0.9-0.3,1.7-1.2,1.9c-0.7,0.2-1.5,0.4-2.2,0.6C172.3,726.1,172.1,726.1,172,726.1z"/>
	<path class="st10" d="M170.4,725"/>
	<path class="st10" d="M167.9,726"/>
	<path class="st12" d="M168.4,728.2c0,0-0.2-0.3-0.5-0.9c-0.4-0.8-0.9-1.8-1.1-2.3c0,0,0-0.1,0-0.1c-0.2-0.4,0-0.1,0.5,0.7
		c0.4,0.8,0.9,1.8,1.1,2.3l0,0.1C168.4,728.1,168.4,728.2,168.4,728.2z"/>
	<path class="st10" d="M168.8,727.3"/>
	<path class="st13" d="M155.6,778.3c-0.5,0-0.9-0.2-1.2-0.6c-4.9-6.1-7.6-13.7-7.6-21.6c0-11.7,5.8-22.5,15.6-28.9
		c0.7-0.5,1.7-0.3,2.2,0.5c0.5,0.7,0.3,1.7-0.5,2.2c-8.9,5.8-14.2,15.6-14.2,26.2c0,7.2,2.4,14,6.9,19.6c0.5,0.7,0.4,1.7-0.2,2.2
		C156.3,778.2,155.9,778.3,155.6,778.3z"/>
	<g>
		<path class="st14" d="M162.4,784.7c-0.3,0-0.6-0.1-0.9-0.3c-0.5-0.4-1-0.8-1.5-1.1c-0.7-0.5-0.8-1.5-0.3-2.2
			c0.5-0.7,1.5-0.8,2.2-0.3c0.5,0.4,0.9,0.7,1.4,1c0.7,0.5,0.9,1.5,0.4,2.2C163.4,784.5,162.9,784.7,162.4,784.7z"/>
		<path class="st14" d="M181.3,790.7c-7.1,0-14-2.2-19.8-6.2c-0.7-0.5-0.9-1.5-0.4-2.2c0.5-0.7,1.5-0.9,2.2-0.4
			c5.3,3.7,11.5,5.7,18,5.7c17.3,0,31.4-14.1,31.4-31.4s-14.1-31.4-31.4-31.4c-0.9,0-1.6-0.7-1.6-1.6c0-0.9,0.7-1.6,1.6-1.6
			c19,0,34.5,15.5,34.5,34.5C215.8,775.2,200.3,790.7,181.3,790.7z"/>
	</g>
	<path class="st15" d="M181.3,715.8"/>
	<path class="st16" d="M178.7,717.6c-0.2,0-0.4-0.5-0.4-1.1c0-0.7,0.1-1.3,0.3-1.3l0.1,1.2l-0.1-1.2l0,0c0.2,0,0.4,0.5,0.4,1.1
		C179,717,178.9,717.6,178.7,717.6C178.7,717.6,178.7,717.6,178.7,717.6z"/>
	<path class="st15" d="M176.5,716.1"/>
	<path class="st15" d="M176,716.1"/>
	<path class="st17" d="M175.5,716.2"/>
	<g>
		<path class="st18" d="M181.3,798.3c-11.3,0-21.9-4.3-29.9-12.2c-8-7.9-12.4-18.4-12.4-29.5c0-10.1,3.7-19.8,10.4-27.4
			c6.6-7.5,15.7-12.4,25.6-13.9c0.8-0.1,1.5,0.4,1.6,1.2c0.1,0.8-0.4,1.5-1.2,1.6c-9.3,1.4-17.7,6-23.9,13
			c-6.2,7.1-9.7,16.1-9.7,25.5c0,21.5,17.7,39,39.5,39s39.5-17.5,39.5-39c0-19.6-14.9-36.3-34.6-38.7c-0.8-0.1-1.3-0.8-1.2-1.6
			c0.1-0.8,0.8-1.3,1.6-1.2c21.1,2.6,37,20.4,37,41.4c0,11.2-4.4,21.6-12.4,29.5C203.2,793.9,192.6,798.3,181.3,798.3z"/>
		<path d="M186,716.4c0.1,0,0.2,0,0.3,0"/>
	</g>
	<path class="st17" d="M183.2,715.9"/>
	<path class="st19" d="M182.2,717.7C182.2,717.7,182.2,717.7,182.2,717.7l-0.3,0c-0.8,0-1.4-0.6-1.4-1.4c0-0.8,0.6-1.4,1.4-1.4
		l0.3,0c0.8,0,1.4,0.7,1.4,1.4C183.6,717.1,183,717.7,182.2,717.7z"/>
</g>
<g>
	<path class="st10" d="M181.3,286.2"/>
	<path class="st10" d="M175.6,286.7"/>
	<path class="st11" d="M172,289.1c-0.7,0-1.3-0.4-1.5-1.1c-0.3-0.8,0.2-1.7,1-2c0.8-0.2,1.6-0.5,2.4-0.7c0.9-0.2,1.7,0.3,1.9,1.2
		c0.2,0.9-0.3,1.7-1.2,1.9c-0.7,0.2-1.5,0.4-2.2,0.6C172.3,289.1,172.1,289.1,172,289.1z"/>
	<path class="st10" d="M170.4,288"/>
	<path class="st10" d="M167.9,289"/>
	<path class="st12" d="M168.4,291.2c0,0-0.2-0.3-0.5-0.9c-0.4-0.8-0.9-1.8-1.1-2.3c0,0,0-0.1,0-0.1c-0.2-0.4,0-0.1,0.5,0.7
		c0.4,0.8,0.9,1.8,1.1,2.3l0,0.1C168.4,291.1,168.4,291.2,168.4,291.2z"/>
	<path class="st10" d="M168.8,290.3"/>
	<path class="st13" d="M155.6,341.3c-0.5,0-0.9-0.2-1.2-0.6c-4.9-6.1-7.6-13.7-7.6-21.6c0-11.7,5.8-22.5,15.6-28.9
		c0.7-0.5,1.7-0.3,2.2,0.5c0.5,0.7,0.3,1.7-0.5,2.2c-8.9,5.8-14.2,15.6-14.2,26.2c0,7.2,2.4,14,6.9,19.6c0.5,0.7,0.4,1.7-0.2,2.2
		C156.3,341.2,155.9,341.3,155.6,341.3z"/>
	<g>
		<path class="st14" d="M162.4,347.7c-0.3,0-0.6-0.1-0.9-0.3c-0.5-0.4-1-0.8-1.5-1.1c-0.7-0.5-0.8-1.5-0.3-2.2
			c0.5-0.7,1.5-0.8,2.2-0.3c0.5,0.4,0.9,0.7,1.4,1c0.7,0.5,0.9,1.5,0.4,2.2C163.4,347.5,162.9,347.7,162.4,347.7z"/>
		<path class="st14" d="M181.3,353.7c-7.1,0-14-2.2-19.8-6.2c-0.7-0.5-0.9-1.5-0.4-2.2c0.5-0.7,1.5-0.9,2.2-0.4
			c5.3,3.7,11.5,5.7,18,5.7c17.3,0,31.4-14.1,31.4-31.4s-14.1-31.4-31.4-31.4c-0.9,0-1.6-0.7-1.6-1.6c0-0.9,0.7-1.6,1.6-1.6
			c19,0,34.5,15.5,34.5,34.5C215.8,338.2,200.3,353.7,181.3,353.7z"/>
	</g>
	<path class="st15" d="M181.3,278.8"/>
	<path class="st16" d="M178.7,280.6c-0.2,0-0.4-0.5-0.4-1.1c0-0.7,0.1-1.3,0.3-1.3l0.1,1.2l-0.1-1.2l0,0c0.2,0,0.4,0.5,0.4,1.1
		C179,280,178.9,280.6,178.7,280.6C178.7,280.6,178.7,280.6,178.7,280.6z"/>
	<path class="st15" d="M176.5,279.1"/>
	<path class="st15" d="M176,279.1"/>
	<path class="st17" d="M175.5,279.2"/>
	<g>
		<path class="st18" d="M181.3,361.3c-11.3,0-21.9-4.3-29.9-12.2c-8-7.9-12.4-18.4-12.4-29.5c0-10.1,3.7-19.8,10.4-27.4
			c6.6-7.5,15.7-12.4,25.6-13.9c0.8-0.1,1.5,0.4,1.6,1.2c0.1,0.8-0.4,1.5-1.2,1.6c-9.3,1.4-17.7,6-23.9,13
			c-6.2,7.1-9.7,16.1-9.7,25.5c0,21.5,17.7,39,39.5,39s39.5-17.5,39.5-39c0-19.6-14.9-36.3-34.6-38.7c-0.8-0.1-1.3-0.8-1.2-1.6
			c0.1-0.8,0.8-1.3,1.6-1.2c21.1,2.6,37,20.4,37,41.4c0,11.2-4.4,21.6-12.4,29.5C203.2,356.9,192.6,361.3,181.3,361.3z"/>
		<path d="M186,279.4c0.1,0,0.2,0,0.3,0"/>
	</g>
	<path class="st17" d="M183.2,278.9"/>
	<path class="st19" d="M182.2,280.7C182.2,280.7,182.2,280.7,182.2,280.7l-0.3,0c-0.8,0-1.4-0.6-1.4-1.4c0-0.8,0.6-1.4,1.4-1.4
		l0.3,0c0.8,0,1.4,0.7,1.4,1.4C183.6,280.1,183,280.7,182.2,280.7z"/>
</g>
<g>
	<path class="st10" d="M181.3,63.2"/>
	<path class="st10" d="M175.6,63.7"/>
	<path class="st11" d="M172,66.1c-0.7,0-1.3-0.4-1.5-1.1c-0.3-0.8,0.2-1.7,1-2c0.8-0.2,1.6-0.5,2.4-0.7c0.9-0.2,1.7,0.3,1.9,1.2
		c0.2,0.9-0.3,1.7-1.2,1.9c-0.7,0.2-1.5,0.4-2.2,0.6C172.3,66.1,172.1,66.1,172,66.1z"/>
	<path class="st10" d="M170.4,65"/>
	<path class="st10" d="M167.9,66"/>
	<path class="st12" d="M168.4,68.1c0,0-0.2-0.3-0.5-0.9c-0.4-0.8-0.9-1.8-1.1-2.3c0,0,0-0.1,0-0.1c-0.2-0.4,0-0.1,0.5,0.7
		c0.4,0.8,0.9,1.8,1.1,2.3l0,0.1C168.4,68.1,168.4,68.1,168.4,68.1z"/>
	<path class="st10" d="M168.8,67.3"/>
	<path class="st13" d="M155.6,118.3c-0.5,0-0.9-0.2-1.2-0.6c-4.9-6.1-7.6-13.7-7.6-21.6c0-11.7,5.8-22.5,15.6-28.9
		c0.7-0.5,1.7-0.3,2.2,0.5c0.5,0.7,0.3,1.7-0.5,2.2c-8.9,5.8-14.2,15.6-14.2,26.2c0,7.2,2.4,14,6.9,19.6c0.5,0.7,0.4,1.7-0.2,2.2
		C156.3,118.2,155.9,118.3,155.6,118.3z"/>
	<g>
		<path class="st14" d="M162.4,124.7c-0.3,0-0.6-0.1-0.9-0.3c-0.5-0.4-1-0.8-1.5-1.1c-0.7-0.5-0.8-1.5-0.3-2.2
			c0.5-0.7,1.5-0.8,2.2-0.3c0.5,0.4,0.9,0.7,1.4,1c0.7,0.5,0.9,1.5,0.4,2.2C163.4,124.5,162.9,124.7,162.4,124.7z"/>
		<path class="st14" d="M181.3,130.6c-7.1,0-14-2.2-19.8-6.2c-0.7-0.5-0.9-1.5-0.4-2.2c0.5-0.7,1.5-0.9,2.2-0.4
			c5.3,3.7,11.5,5.7,18,5.7c17.3,0,31.4-14.1,31.4-31.4s-14.1-31.4-31.4-31.4c-0.9,0-1.6-0.7-1.6-1.6c0-0.9,0.7-1.6,1.6-1.6
			c19,0,34.5,15.5,34.5,34.5C215.8,115.2,200.3,130.6,181.3,130.6z"/>
	</g>
	<path class="st15" d="M181.3,55.8"/>
	<path class="st16" d="M178.7,57.6c-0.2,0-0.4-0.5-0.4-1.1c0-0.7,0.1-1.3,0.3-1.3l0.1,1.2l-0.1-1.2l0,0c0.2,0,0.4,0.5,0.4,1.1
		C179,57,178.9,57.5,178.7,57.6C178.7,57.6,178.7,57.6,178.7,57.6z"/>
	<path class="st15" d="M176.5,56.1"/>
	<path class="st15" d="M176,56.1"/>
	<path class="st17" d="M175.5,56.2"/>
	<g>
		<path class="st18" d="M181.3,138.2c-11.3,0-21.9-4.3-29.9-12.2c-8-7.9-12.4-18.4-12.4-29.5c0-10.1,3.7-19.8,10.4-27.4
			c6.6-7.5,15.7-12.4,25.6-13.9c0.8-0.1,1.5,0.4,1.6,1.2c0.1,0.8-0.4,1.5-1.2,1.6c-9.3,1.4-17.7,6-23.9,13
			c-6.2,7.1-9.7,16.1-9.7,25.5c0,21.5,17.7,39,39.5,39s39.5-17.5,39.5-39c0-19.6-14.9-36.3-34.6-38.7c-0.8-0.1-1.3-0.8-1.2-1.6
			c0.1-0.8,0.8-1.3,1.6-1.2c21.1,2.6,37,20.4,37,41.4c0,11.2-4.4,21.6-12.4,29.5C203.2,133.9,192.6,138.2,181.3,138.2z"/>
		<path d="M186,56.4c0.1,0,0.2,0,0.3,0"/>
	</g>
	<path class="st17" d="M183.2,55.8"/>
	<path class="st19" d="M182.2,57.7C182.2,57.7,182.2,57.7,182.2,57.7l-0.3,0c-0.8,0-1.4-0.6-1.4-1.4c0-0.8,0.6-1.4,1.4-1.4l0.3,0
		c0.8,0,1.4,0.7,1.4,1.4C183.6,57.1,183,57.7,182.2,57.7z"/>
</g>
<g>
	<path class="st10" d="M1358.9,699"/>
	<path class="st10" d="M1352.8,699.6"/>
	<path class="st11" d="M1349,702.2c-0.7,0-1.4-0.5-1.6-1.2c-0.3-0.9,0.2-1.8,1.1-2.1c0.8-0.3,1.7-0.5,2.6-0.7c0.9-0.2,1.8,0.4,2,1.3
		c0.2,0.9-0.4,1.8-1.3,2c-0.8,0.2-1.6,0.4-2.3,0.6C1349.3,702.2,1349.2,702.2,1349,702.2z"/>
	<path class="st10" d="M1347.3,701"/>
	<path class="st10" d="M1344.6,702.1"/>
	<path class="st12" d="M1345.2,704.3c0,0-0.2-0.3-0.6-0.9c-0.5-0.9-1-2-1.2-2.4c0,0,0-0.1,0-0.1c-0.2-0.5,0-0.1,0.5,0.8
		c0.5,0.9,1,2,1.2,2.4l0,0.1C1345.1,704.3,1345.2,704.3,1345.2,704.3z"/>
	<path class="st10" d="M1345.6,703.4"/>
	<path class="st13" d="M1331.4,757.9c-0.5,0-1-0.2-1.3-0.6c-5.2-6.5-8.1-14.7-8.1-23c0-12.5,6.2-24,16.7-30.9
		c0.8-0.5,1.8-0.3,2.3,0.5c0.5,0.8,0.3,1.8-0.5,2.3c-9.5,6.2-15.2,16.7-15.2,28c0,7.7,2.5,14.9,7.3,20.9c0.6,0.7,0.5,1.8-0.3,2.4
		C1332.2,757.8,1331.8,757.9,1331.4,757.9z"/>
	<g>
		<path class="st14" d="M1338.8,764.8c-0.3,0-0.7-0.1-1-0.3c-0.6-0.4-1.1-0.8-1.6-1.2c-0.7-0.6-0.9-1.6-0.3-2.4
			c0.6-0.7,1.6-0.9,2.4-0.3c0.5,0.4,1,0.8,1.5,1.1c0.8,0.5,0.9,1.6,0.4,2.4C1339.8,764.6,1339.3,764.8,1338.8,764.8z"/>
		<path class="st14" d="M1358.9,771.2c-7.6,0-14.9-2.3-21.2-6.7c-0.8-0.5-0.9-1.6-0.4-2.4c0.5-0.8,1.6-0.9,2.4-0.4
			c5.6,4,12.3,6,19.2,6c18.5,0,33.5-15,33.5-33.5s-15-33.5-33.5-33.5c-0.9,0-1.7-0.8-1.7-1.7c0-0.9,0.8-1.7,1.7-1.7
			c20.3,0,36.9,16.6,36.9,36.9C1395.8,754.6,1379.3,771.2,1358.9,771.2z"/>
	</g>
	<path class="st15" d="M1358.9,691.1"/>
	<path class="st16" d="M1356.1,693.1c-0.2,0-0.4-0.5-0.4-1.2c0-0.7,0.1-1.3,0.3-1.4l0.1,1.3l-0.1-1.3l0,0c0.2,0,0.4,0.5,0.4,1.2
		C1356.5,692.4,1356.4,693,1356.1,693.1C1356.1,693.1,1356.1,693.1,1356.1,693.1z"/>
	<path class="st15" d="M1353.8,691.4"/>
	<path class="st15" d="M1353.3,691.5"/>
	<path class="st17" d="M1352.8,691.6"/>
	<g>
		<path class="st18" d="M1358.9,779.3c-12.1,0-23.4-4.6-31.9-13.1c-8.5-8.4-13.2-19.6-13.2-31.6c0-10.8,3.9-21.2,11.1-29.3
			c7.1-8,16.8-13.3,27.4-14.9c0.8-0.1,1.6,0.4,1.7,1.3c0.1,0.8-0.4,1.6-1.3,1.7c-9.9,1.5-19,6.4-25.6,13.9
			c-6.7,7.6-10.3,17.3-10.3,27.3c0,23,18.9,41.6,42.2,41.6s42.2-18.7,42.2-41.6c0-21-15.9-38.8-37-41.3c-0.8-0.1-1.4-0.8-1.3-1.7
			s0.8-1.4,1.7-1.3c22.6,2.7,39.6,21.8,39.6,44.3c0,11.9-4.7,23.1-13.2,31.6C1382.3,774.6,1371,779.3,1358.9,779.3z"/>
		<path d="M1364,691.8c0.1,0,0.2,0,0.4,0"/>
	</g>
	<path class="st17" d="M1361,691.2"/>
	<path class="st19" d="M1359.9,693.2C1359.9,693.2,1359.9,693.2,1359.9,693.2l-0.3,0c-0.8,0-1.5-0.7-1.5-1.5c0-0.8,0.7-1.5,1.5-1.5
		l0.3,0c0.8,0,1.5,0.7,1.5,1.5C1361.4,692.5,1360.7,693.2,1359.9,693.2z"/>
</g>
<path class="st10" d="M773.3,53.2"/>
<path class="st10" d="M767.5,53.6"/>
<path class="st11" d="M763.9,56.1c-0.7,0-1.3-0.4-1.5-1.1c-0.3-0.8,0.2-1.7,1-2c0.8-0.2,1.6-0.5,2.4-0.7c0.9-0.2,1.7,0.3,1.9,1.2
	c0.2,0.9-0.3,1.7-1.2,1.9c-0.7,0.2-1.5,0.4-2.2,0.6C764.3,56.1,764.1,56.1,763.9,56.1z"/>
<path class="st10" d="M762.4,55"/>
<path class="st10" d="M759.9,56"/>
<path class="st12" d="M760.6,58c0,0-0.2-0.3-0.4-0.9c-0.4-0.9-0.8-1.9-1-2.4c0,0,0-0.1,0-0.1c-0.2-0.5,0-0.1,0.4,0.7
	c0.4,0.9,0.8,2,1,2.4l0,0.1C760.6,57.9,760.7,58,760.6,58z"/>
<path class="st10" d="M760.7,57.3"/>
<path class="st13" d="M747.5,108.2c-0.5,0-0.9-0.2-1.2-0.6c-4.9-6.1-7.6-13.7-7.6-21.6c0-11.7,5.8-22.5,15.6-28.9
	c0.7-0.5,1.7-0.3,2.2,0.5c0.5,0.7,0.3,1.7-0.5,2.2c-8.9,5.8-14.2,15.6-14.2,26.2c0,7.2,2.4,14,6.9,19.6c0.5,0.7,0.4,1.7-0.2,2.2
	C748.2,108.1,747.9,108.2,747.5,108.2z"/>
<g>
	<path class="st14" d="M754.4,114.7c-0.3,0-0.6-0.1-0.9-0.3c-0.5-0.4-1-0.8-1.5-1.1c-0.7-0.5-0.8-1.5-0.3-2.2
		c0.5-0.7,1.5-0.8,2.2-0.3c0.5,0.4,0.9,0.7,1.4,1c0.7,0.5,0.9,1.5,0.4,2.2C755.4,114.4,754.9,114.7,754.4,114.7z"/>
	<path class="st14" d="M773.3,120.6c-7.1,0-14-2.2-19.8-6.2c-0.7-0.5-0.9-1.5-0.4-2.2c0.5-0.7,1.5-0.9,2.2-0.4
		c5.3,3.7,11.5,5.7,18,5.7c17.3,0,31.4-14.1,31.4-31.4s-14.1-31.4-31.4-31.4c-0.9,0-1.6-0.7-1.6-1.6c0-0.9,0.7-1.6,1.6-1.6
		c19,0,34.5,15.5,34.5,34.5C807.8,105.1,792.3,120.6,773.3,120.6z"/>
</g>
<path class="st15" d="M773.3,45.8"/>
<path class="st16" d="M770.6,47.5c-0.2,0-0.4-0.5-0.4-1.1c0-0.7,0.1-1.3,0.3-1.3l0.1,1.2l-0.1-1.2l0,0c0.2,0,0.4,0.5,0.4,1.1
	C771,46.9,770.8,47.5,770.6,47.5C770.6,47.5,770.6,47.5,770.6,47.5z"/>
<path class="st15" d="M768.5,46"/>
<path class="st15" d="M768,46.1"/>
<path class="st17" d="M767.5,46.2"/>
<g>
	<path class="st18" d="M773.3,128.2c-11.3,0-21.9-4.3-29.9-12.2c-8-7.9-12.4-18.4-12.4-29.5c0-10.1,3.7-19.8,10.4-27.4
		c6.6-7.5,15.7-12.4,25.6-13.9c0.8-0.1,1.5,0.4,1.6,1.2c0.1,0.8-0.4,1.5-1.2,1.6c-9.3,1.4-17.7,6-23.9,13
		c-6.2,7.1-9.7,16.1-9.7,25.5c0,21.5,17.7,39,39.5,39c21.8,0,39.5-17.5,39.5-39c0-19.6-14.9-36.3-34.6-38.7
		c-0.8-0.1-1.3-0.8-1.2-1.6c0.1-0.8,0.8-1.3,1.6-1.2c21.1,2.6,37,20.4,37,41.4c0,11.2-4.4,21.6-12.4,29.5
		C795.1,123.9,784.5,128.2,773.3,128.2z"/>
	<path d="M777.9,46.4c0.1,0,0.2,0,0.3,0"/>
</g>
<path class="st17" d="M775.2,45.8"/>
<path class="st19" d="M774.2,47.7C774.2,47.7,774.2,47.7,774.2,47.7l-0.3,0c-0.8,0-1.4-0.6-1.4-1.4c0-0.8,0.6-1.4,1.4-1.4l0.3,0
	c0.8,0,1.4,0.7,1.4,1.4C775.6,47.1,774.9,47.7,774.2,47.7z"/>
<rect x="741.9" y="87.6" width="11.8" height="20.6"/>
<rect x="726.7" y="74" width="11.8" height="20.6"/>
<rect x="729.1" y="54.8" width="11.8" height="20.6"/>
<rect x="737.7" y="49.5" width="11.8" height="15.6"/>
<rect x="745.4" y="40.7" transform="matrix(0.866 0.5 -0.5 0.866 124.8993 -369.1653)" width="11.8" height="15.6"/>
<rect x="754.9" y="37.1" transform="matrix(0.1711 0.9852 -0.9852 0.1711 674.7472 -712.3091)" width="11.8" height="15.6"/>
<rect x="738.4" y="83.3" width="11.8" height="17.2"/>
<rect x="743.6" y="61.1" width="11.8" height="11.8"/>
<rect x="738.7" y="67.9" width="11.8" height="11.8"/>
<rect x="738.4" y="69" width="11.8" height="11.8"/>
<rect x="729.1" y="97.9" transform="matrix(0.9765 -0.2157 0.2157 0.9765 -5.0899 160.9595)" width="11.8" height="11.8"/>
<rect x="736.4" y="106.3" transform="matrix(0.9765 -0.2157 0.2157 0.9765 -7.1653 163.8893)" width="21.8" height="17"/>
<rect x="749.7" y="114.5" transform="matrix(0.9765 -0.2157 0.2157 0.9765 -8.6391 166.9492)" width="21.8" height="17"/>
<rect x="769.4" y="114.5" transform="matrix(0.9765 -0.2157 0.2157 0.9765 -8.177 171.1839)" width="21.8" height="17"/>
<rect x="788.5" y="109.9" transform="matrix(0.9765 -0.2157 0.2157 0.9765 -6.721 175.2105)" width="21.8" height="17"/>
<rect x="804.2" y="94.8" transform="matrix(0.9765 -0.2157 0.2157 0.9765 -3.1045 178.2258)" width="21.8" height="17"/>
<rect x="809.6" y="82.8" transform="matrix(0.9765 -0.2157 0.2157 0.9765 -0.5013 178.0953)" width="12.4" height="17"/>
<rect x="805.1" y="58.5" transform="matrix(0.9765 -0.2157 0.2157 0.9765 3.7308 176.6642)" width="12.4" height="25.6"/>
<rect x="792.2" y="38.2" transform="matrix(0.6634 -0.7483 0.7483 0.6634 230.5939 614.6246)" width="12.4" height="25.6"/>
<rect x="782.9" y="37.1" transform="matrix(0.2613 -0.9652 0.9652 0.2613 534.775 798.5533)" width="12.4" height="25.6"/>
<rect x="725.1" y="84.4" transform="matrix(0.9915 -0.1304 0.1304 0.9915 -5.5372 96.0721)" width="11.8" height="11.8"/>
<rect x="749.5" y="56.4" width="7.8" height="5.7"/>
<rect x="762.1" y="51.4" transform="matrix(0.9466 -0.3224 0.3224 0.9466 23.2948 248.8954)" width="2.1" height="5.4"/>
<rect x="765.2" y="50.6" transform="matrix(0.9466 -0.3224 0.3224 0.9466 23.7482 250.0288)" width="3" height="5.4"/>
<rect x="775.6" y="54.1" width="17.6" height="7.9"/>
<rect x="770.6" y="51" width="17.6" height="7.9"/>
<rect x="790.6" y="57.2" width="6.4" height="7.9"/>
<rect x="796.3" y="63.5" width="7.9" height="10.2"/>
<rect x="798.4" y="69.8" width="8.3" height="10.2"/>
<rect x="801.3" y="77.4" width="8.3" height="10.2"/>
<rect x="801.3" y="83.9" transform="matrix(0.9935 0.1139 -0.1139 0.9935 15.0524 -91.2047)" width="8.3" height="4.3"/>
<rect x="801.3" y="90.5" transform="matrix(0.9837 0.1796 -0.1796 0.9837 29.7381 -143.1477)" width="8.3" height="4.3"/>
<rect x="791.9" y="102.1" transform="matrix(0.9203 0.3911 -0.3911 0.9203 106.1614 -302.6415)" width="8.3" height="14.3"/>
<rect x="783.1" y="104.7" transform="matrix(0.5 0.866 -0.866 0.5 493.0289 -624.3952)" width="8.3" height="20.1"/>
<rect x="766.7" y="102.2" transform="matrix(-5.473437e-02 0.9985 -0.9985 -5.473437e-02 930.0273 -646.1107)" width="8.3" height="29.9"/>
<rect x="762" y="98.4" transform="matrix(-5.473437e-02 0.9985 -0.9985 -5.473437e-02 920.6301 -644.9531)" width="7.2" height="29.9"/>
<rect x="798.9" y="94.1" transform="matrix(0.9837 0.1796 -0.1796 0.9837 31.1559 -142.5093)" width="7.5" height="13.4"/>
<rect x="793" y="60" width="7.9" height="10.2"/>
<rect x="774.3" y="43.6" width="1.3" height="5.5"/>
<rect x="772.1" y="43.6" width="1.8" height="5.5"/>
<rect x="769.9" y="44.9" width="0.5" height="2.8"/>
<rect x="770.6" y="44.9" width="0.5" height="2.8"/>
<path class="st10" d="M770.2,281.2"/>
<path class="st10" d="M764.5,281.7"/>
<path class="st11" d="M760.9,284.1c-0.7,0-1.3-0.4-1.5-1.1c-0.3-0.8,0.2-1.7,1-2c0.8-0.2,1.6-0.5,2.4-0.7c0.9-0.2,1.7,0.3,1.9,1.2
	c0.2,0.9-0.3,1.7-1.2,1.9c-0.7,0.2-1.5,0.4-2.2,0.6C761.2,284.1,761.1,284.1,760.9,284.1z"/>
<path class="st10" d="M759.4,283"/>
<path class="st10" d="M756.8,284"/>
<path class="st12" d="M757.6,286c0,0-0.2-0.3-0.4-0.9c-0.4-0.9-0.8-1.9-1-2.4c0,0,0-0.1,0-0.1c-0.2-0.5,0-0.1,0.4,0.7
	c0.4,0.9,0.8,2,1,2.4l0,0.1C757.6,285.9,757.6,286,757.6,286z"/>
<path class="st10" d="M757.7,285.3"/>
<path class="st13" d="M744.5,336.3c-0.5,0-0.9-0.2-1.2-0.6c-4.9-6.1-7.6-13.7-7.6-21.6c0-11.7,5.8-22.5,15.6-28.9
	c0.7-0.5,1.7-0.3,2.2,0.5c0.5,0.7,0.3,1.7-0.5,2.2c-8.9,5.8-14.2,15.6-14.2,26.2c0,7.2,2.4,14,6.9,19.6c0.5,0.7,0.4,1.7-0.2,2.2
	C745.2,336.2,744.8,336.3,744.5,336.3z"/>
<g>
	<path class="st14" d="M751.3,342.7c-0.3,0-0.6-0.1-0.9-0.3c-0.5-0.4-1-0.8-1.5-1.1c-0.7-0.5-0.8-1.5-0.3-2.2
		c0.5-0.7,1.5-0.8,2.2-0.3c0.5,0.4,0.9,0.7,1.4,1c0.7,0.5,0.9,1.5,0.4,2.2C752.3,342.5,751.8,342.7,751.3,342.7z"/>
	<path class="st14" d="M770.2,348.7c-7.1,0-14-2.2-19.8-6.2c-0.7-0.5-0.9-1.5-0.4-2.2c0.5-0.7,1.5-0.9,2.2-0.4
		c5.3,3.7,11.5,5.7,18,5.7c17.3,0,31.4-14.1,31.4-31.4s-14.1-31.4-31.4-31.4c-0.9,0-1.6-0.7-1.6-1.6c0-0.9,0.7-1.6,1.6-1.6
		c19,0,34.5,15.5,34.5,34.5C804.8,333.2,789.3,348.7,770.2,348.7z"/>
</g>
<path class="st15" d="M770.2,273.8"/>
<path class="st16" d="M767.6,275.6c-0.2,0-0.4-0.5-0.4-1.1c0-0.7,0.1-1.3,0.3-1.3l0.1,1.2l-0.1-1.2l0,0c0.2,0,0.4,0.5,0.4,1.1
	C767.9,275,767.8,275.6,767.6,275.6C767.6,275.6,767.6,275.6,767.6,275.6z"/>
<path class="st15" d="M765.5,274.1"/>
<path class="st15" d="M764.9,274.1"/>
<path class="st17" d="M764.5,274.2"/>
<g>
	<path class="st18" d="M770.2,356.3c-11.3,0-21.9-4.3-29.9-12.2c-8-7.9-12.4-18.4-12.4-29.5c0-10.1,3.7-19.8,10.4-27.4
		c6.6-7.5,15.7-12.4,25.6-13.9c0.8-0.1,1.5,0.4,1.6,1.2c0.1,0.8-0.4,1.5-1.2,1.6c-9.3,1.4-17.7,6-23.9,13
		c-6.2,7.1-9.7,16.1-9.7,25.5c0,21.5,17.7,39,39.5,39c21.8,0,39.5-17.5,39.5-39c0-19.6-14.9-36.3-34.6-38.7
		c-0.8-0.1-1.3-0.8-1.2-1.6c0.1-0.8,0.8-1.3,1.6-1.2c21.1,2.6,37,20.4,37,41.4c0,11.2-4.4,21.6-12.4,29.5
		C792.1,351.9,781.5,356.3,770.2,356.3z"/>
	<path d="M774.9,274.4c0.1,0,0.2,0,0.3,0"/>
</g>
<path class="st17" d="M772.2,273.9"/>
<path class="st19" d="M771.2,275.7C771.2,275.7,771.1,275.7,771.2,275.7l-0.3,0c-0.8,0-1.4-0.6-1.4-1.4c0-0.8,0.6-1.4,1.4-1.4l0.3,0
	c0.8,0,1.4,0.7,1.4,1.4C772.5,275.1,771.9,275.7,771.2,275.7z"/>
<rect x="738.8" y="315.7" width="11.8" height="20.6"/>
<rect x="734.7" y="277.5" width="11.8" height="21.8"/>
<rect x="742.4" y="268.7" transform="matrix(0.866 0.5 -0.5 0.866 238.5235 -337.0994)" width="11.8" height="15.6"/>
<rect x="751.8" y="265.1" transform="matrix(0.1711 0.9852 -0.9852 0.1711 896.9345 -520.3037)" width="11.8" height="15.6"/>
<rect x="735.4" y="318.2" width="11.8" height="10.4"/>
<rect x="740.6" y="289.2" width="11.8" height="11.8"/>
<rect x="735.4" y="297.1" width="11.8" height="3.8"/>
<rect x="806.6" y="310.9" transform="matrix(0.9765 -0.2157 0.2157 0.9765 -49.7589 182.8105)" width="12.4" height="17"/>
<rect x="803" y="326.2" transform="matrix(0.866 0.5 -0.5 0.866 275.7858 -359.7502)" width="12.4" height="17"/>
<rect x="802.1" y="286.5" transform="matrix(0.9765 -0.2157 0.2157 0.9765 -45.5269 181.3794)" width="12.4" height="25.6"/>
<rect x="789.2" y="266.3" transform="matrix(0.6634 -0.7483 0.7483 0.6634 58.9229 689.1321)" width="12.4" height="25.6"/>
<rect x="779.9" y="265.1" transform="matrix(0.2613 -0.9652 0.9652 0.2613 312.4092 964.0912)" width="12.4" height="25.6"/>
<rect x="746.5" y="284.4" width="7.8" height="5.7"/>
<rect x="759" y="279.5" transform="matrix(0.9466 -0.3224 0.3224 0.9466 -50.4204 260.0374)" width="1.7" height="5.4"/>
<rect x="763.2" y="278.5" transform="matrix(0.9466 -0.3224 0.3224 0.9466 -49.8548 261.3799)" width="2" height="5.4"/>
<rect x="772.6" y="282.2" width="17.6" height="7.9"/>
<rect x="767.6" y="279.1" width="17.6" height="7.9"/>
<rect x="787.5" y="285.2" width="6.4" height="7.9"/>
<rect x="793.3" y="291.6" width="7.9" height="10.2"/>
<rect x="795.4" y="297.9" width="8.3" height="5.1"/>
<rect x="778.3" y="335.8" transform="matrix(0.5 0.866 -0.866 0.5 689.0215 -505.7539)" width="8.3" height="16.1"/>
<rect x="763.7" y="330.3" transform="matrix(-5.473437e-02 0.9985 -0.9985 -5.473437e-02 1154.5548 -402.5504)" width="8.3" height="29.9"/>
<rect x="759" y="326.4" transform="matrix(-5.473437e-02 0.9985 -0.9985 -5.473437e-02 1145.1576 -401.3928)" width="7.2" height="29.9"/>
<rect x="790" y="288" width="7.9" height="10.2"/>
<rect x="771.5" y="271.7" width="1.4" height="5.5"/>
<circle class="st4" cx="1362.2" cy="515.2" r="20.4"/>
<g>
	<path class="st20" d="M1362.2,483.7"/>
	<path class="st20" d="M1356.9,484.1"/>
	<path class="st21" d="M1350,486.2c0.9-0.4,4.3-2.1,8.5-2.6"/>
	<path class="st22" d="M1349,486.8c0.2-0.1,1-0.5,1.1-0.6"/>
	<path class="st20" d="M1352,485.4"/>
	<path class="st20" d="M1349.6,486.3"/>
	<path class="st20" d="M1350.4,487.6"/>
	<path class="st7" d="M1340,536.5c-4.3-5.3-8.8-14.4-8.8-21.7c0-10.9,6-21.5,18-28.1"/>
	<path class="st20" d="M1362.2,476.7"/>
	<path class="st20" d="M1357.7,476.9"/>
	<path class="st20" d="M1357.3,477"/>
	<path class="st20" d="M1356.8,477.1"/>
	<path class="st20" d="M1364.1,476.7"/>
	<path class="st23" d="M1360.2,477.2c0.1,0,0.8,0,0.9,0"/>
	<path class="st24" d="M1358.6,477.3c0.6-0.1,1.1-0.1,1.7-0.1"/>
	<g>
		<g>
			<path class="st6" d="M1344.4,540.2c-0.5-0.3-3.8-2.9-4.5-3.8"/>
			<path class="st6" d="M1358.6,483.7c16.7-1.8,34.8,13.9,34.8,31.1c0,17.2-13.9,31.1-31.1,31.1c-6.6,0-12.8-2.1-17.8-5.6"/>
		</g>
		<g>
			<path class="st9" d="M1361.2,477.2c23.2,0,39.6,18.4,39.6,37.9c0,21-17.3,38.1-38.5,38.1s-38.5-17-38.5-38.1
				c0-19.1,15.2-36.1,35-37.8"/>
		</g>
	</g>
</g>
<rect x="769.1" y="271.6" width="1.5" height="5.5"/>
<rect x="766.9" y="272.9" width="0.4" height="2.8"/>
<rect x="767.7" y="272.9" width="0.4" height="2.8"/>
<path class="st10" d="M768.5,496.2"/>
<path class="st10" d="M762.8,496.7"/>
<path class="st11" d="M759.2,499.1c-0.7,0-1.3-0.4-1.5-1.1c-0.3-0.8,0.2-1.7,1-2c0.8-0.2,1.6-0.5,2.4-0.7c0.9-0.2,1.7,0.3,1.9,1.2
	c0.2,0.9-0.3,1.7-1.2,1.9c-0.7,0.2-1.5,0.4-2.2,0.6C759.5,499.1,759.3,499.1,759.2,499.1z"/>
<path class="st10" d="M757.6,498"/>
<path class="st10" d="M755.1,499"/>
<path class="st12" d="M755.9,501c0,0-0.2-0.3-0.4-0.9c-0.4-0.9-0.8-1.9-1-2.4c0,0,0-0.1,0-0.1c-0.2-0.5,0-0.1,0.4,0.7
	c0.4,0.9,0.8,2,1,2.4l0,0.1C755.8,500.9,755.9,501,755.9,501z"/>
<path class="st10" d="M756,500.3"/>
<path class="st13" d="M742.7,551.3c-0.5,0-0.9-0.2-1.2-0.6c-4.9-6.1-7.6-13.7-7.6-21.6c0-11.7,5.8-22.5,15.6-28.9
	c0.7-0.5,1.7-0.3,2.2,0.5c0.5,0.7,0.3,1.7-0.5,2.2c-8.9,5.8-14.2,15.6-14.2,26.2c0,7.2,2.4,14,6.9,19.6c0.5,0.7,0.4,1.7-0.2,2.2
	C743.4,551.2,743.1,551.3,742.7,551.3z"/>
<g>
	<path class="st14" d="M749.6,557.7c-0.3,0-0.6-0.1-0.9-0.3c-0.5-0.4-1-0.8-1.5-1.1c-0.7-0.5-0.8-1.5-0.3-2.2
		c0.5-0.7,1.5-0.8,2.2-0.3c0.5,0.4,0.9,0.7,1.4,1c0.7,0.5,0.9,1.5,0.4,2.2C750.6,557.5,750.1,557.7,749.6,557.7z"/>
	<path class="st14" d="M768.5,563.7c-7.1,0-14-2.2-19.8-6.2c-0.7-0.5-0.9-1.5-0.4-2.2c0.5-0.7,1.5-0.9,2.2-0.4
		c5.3,3.7,11.5,5.7,18,5.7c17.3,0,31.4-14.1,31.4-31.4c0-17.3-14.1-31.4-31.4-31.4c-0.9,0-1.6-0.7-1.6-1.6c0-0.9,0.7-1.6,1.6-1.6
		c19,0,34.5,15.5,34.5,34.5C803,548.2,787.5,563.7,768.5,563.7z"/>
</g>
<path class="st15" d="M768.5,488.8"/>
<path class="st16" d="M765.8,490.6c-0.2,0-0.4-0.5-0.4-1.1c0-0.7,0.1-1.3,0.3-1.3l0.1,1.2l-0.1-1.2l0,0c0.2,0,0.4,0.5,0.4,1.1
	C766.2,490,766.1,490.6,765.8,490.6C765.9,490.6,765.9,490.6,765.8,490.6z"/>
<path class="st15" d="M763.7,489.1"/>
<path class="st15" d="M763.2,489.2"/>
<path class="st17" d="M762.7,489.2"/>
<g>
	<path class="st18" d="M768.5,571.3c-11.3,0-21.9-4.3-29.9-12.2c-8-7.9-12.4-18.4-12.4-29.5c0-10.1,3.7-19.8,10.4-27.4
		c6.6-7.5,15.7-12.4,25.6-13.9c0.8-0.1,1.5,0.4,1.6,1.2c0.1,0.8-0.4,1.5-1.2,1.6c-9.3,1.4-17.7,6-23.9,13
		c-6.2,7.1-9.7,16.1-9.7,25.5c0,21.5,17.7,39,39.5,39s39.5-17.5,39.5-39c0-19.6-14.9-36.3-34.6-38.7c-0.8-0.1-1.3-0.8-1.2-1.6
		c0.1-0.8,0.8-1.3,1.6-1.2c21.1,2.6,37,20.4,37,41.4c0,11.2-4.4,21.6-12.4,29.5C790.4,566.9,779.8,571.3,768.5,571.3z"/>
	<path d="M773.2,489.4c0.1,0,0.2,0,0.3,0"/>
</g>
<path class="st17" d="M770.4,488.9"/>
<path class="st19" d="M769.4,490.7C769.4,490.7,769.4,490.7,769.4,490.7l-0.3,0c-0.8,0-1.4-0.6-1.4-1.4c0-0.8,0.6-1.4,1.4-1.4l0.3,0
	c0.8,0,1.4,0.7,1.4,1.4C770.8,490.1,770.2,490.7,769.4,490.7z"/>
<rect x="735.8" y="542.7" width="11.8" height="8.6"/>
<rect x="750.1" y="480.1" transform="matrix(0.1711 0.9852 -0.9852 0.1711 1107.3126 -340.3674)" width="11.8" height="15.6"/>
<rect x="785.1" y="488.8" transform="matrix(0.6634 -0.7483 0.7483 0.6634 -101.8074 757.8047)" width="12.4" height="6.5"/>
<rect x="776.1" y="481.7" transform="matrix(0.2613 -0.9652 0.9652 0.2613 102.5963 1118.8102)" width="12.4" height="21.3"/>
<rect x="744.7" y="499.3" transform="matrix(0.9304 -0.3666 0.3666 0.9304 -132.8955 309.7143)" width="8.7" height="11"/>
<rect x="757.3" y="494.6" transform="matrix(0.9466 -0.3224 0.3224 0.9466 -119.8595 270.8918)" width="1.2" height="5.4"/>
<rect x="761.9" y="493.4" transform="matrix(0.9466 -0.3224 0.3224 0.9466 -119.2234 272.3658)" width="1.5" height="5.4"/>
<rect x="770.8" y="497.2" width="17.6" height="7.9"/>
<rect x="765.8" y="494.1" width="17.6" height="7.9"/>
<rect x="747.6" y="551.9" transform="matrix(-0.5728 0.8197 -0.8197 -0.5728 1638.3394 260.7337)" width="7.2" height="10.8"/>
<rect x="770.1" y="486.7" width="1" height="5.5"/>
<rect x="767.3" y="486.6" width="1" height="5.5"/>
<rect x="765.2" y="487.9" width="0.3" height="2.8"/>
<rect x="766" y="487.9" width="0.4" height="2.8"/>
<path class="st10" d="M768.1,712.7"/>
<path class="st10" d="M762.4,713.2"/>
<path class="st11" d="M758.8,715.6c-0.7,0-1.3-0.4-1.5-1.1c-0.3-0.8,0.2-1.7,1-2c0.8-0.2,1.6-0.5,2.4-0.7c0.9-0.2,1.7,0.3,1.9,1.2
	c0.2,0.9-0.3,1.7-1.2,1.9c-0.7,0.2-1.5,0.4-2.2,0.6C759.1,715.6,759,715.6,758.8,715.6z"/>
<path class="st10" d="M757.3,714.5"/>
<path class="st12" d="M755,717.5c0,0-0.2-0.3-0.5-0.9c-0.5-0.8-1-1.8-1.2-2.2c0,0,0-0.1-0.1-0.1c-0.2-0.4,0-0.1,0.5,0.7
	c0.5,0.8,1,1.8,1.2,2.2l0,0.1C755,717.4,755,717.5,755,717.5z"/>
<path class="st10" d="M755.6,716.8"/>
<path class="st13" d="M742.4,767.8c-0.5,0-0.9-0.2-1.2-0.6c-4.9-6.1-7.6-13.7-7.6-21.6c0-11.7,5.8-22.5,15.6-28.9
	c0.7-0.5,1.7-0.3,2.2,0.5c0.5,0.7,0.3,1.7-0.5,2.2c-8.9,5.8-14.2,15.6-14.2,26.2c0,7.2,2.4,14,6.9,19.6c0.5,0.7,0.4,1.7-0.2,2.2
	C743.1,767.7,742.7,767.8,742.4,767.8z"/>
<g>
	<path class="st14" d="M749.2,774.2c-0.3,0-0.6-0.1-0.9-0.3c-0.5-0.4-1-0.8-1.5-1.1c-0.7-0.5-0.8-1.5-0.3-2.2
		c0.5-0.7,1.5-0.8,2.2-0.3c0.5,0.4,0.9,0.7,1.4,1c0.7,0.5,0.9,1.5,0.4,2.2C750.2,774,749.7,774.2,749.2,774.2z"/>
	<path class="st14" d="M768.1,780.2c-7.1,0-14-2.2-19.8-6.2c-0.7-0.5-0.9-1.5-0.4-2.2c0.5-0.7,1.5-0.9,2.2-0.4
		c5.3,3.7,11.5,5.7,18,5.7c17.3,0,31.4-14.1,31.4-31.4s-14.1-31.4-31.4-31.4c-0.9,0-1.6-0.7-1.6-1.6c0-0.9,0.7-1.6,1.6-1.6
		c19,0,34.5,15.5,34.5,34.5C802.6,764.7,787.1,780.2,768.1,780.2z"/>
</g>
<path class="st15" d="M768.1,705.3"/>
<path class="st16" d="M765.5,707.1c-0.2,0-0.4-0.5-0.4-1.1c0-0.7,0.1-1.3,0.3-1.3l0.1,1.2l-0.1-1.2l0,0c0.2,0,0.4,0.5,0.4,1.1
	C765.8,706.5,765.7,707.1,765.5,707.1C765.5,707.1,765.5,707.1,765.5,707.1z"/>
<path class="st15" d="M763.3,705.6"/>
<path class="st15" d="M762.8,705.6"/>
<path class="st17" d="M762.3,705.7"/>
<g>
	<path class="st18" d="M768.1,787.8c-11.3,0-21.9-4.3-29.9-12.2c-8-7.9-12.4-18.4-12.4-29.5c0-10.1,3.7-19.8,10.4-27.4
		c6.6-7.5,15.7-12.4,25.6-13.9c0.8-0.1,1.5,0.4,1.6,1.2c0.1,0.8-0.4,1.5-1.2,1.6c-9.3,1.4-17.7,6-23.9,13
		c-6.2,7.1-9.7,16.1-9.7,25.5c0,21.5,17.7,39,39.5,39s39.5-17.5,39.5-39c0-19.6-14.9-36.3-34.6-38.7c-0.8-0.1-1.3-0.8-1.2-1.6
		c0.1-0.8,0.8-1.3,1.6-1.2c21.1,2.6,37,20.4,37,41.4c0,11.2-4.4,21.6-12.4,29.5C790,783.4,779.4,787.8,768.1,787.8z"/>
	<path d="M772.8,705.9c0.1,0,0.2,0,0.3,0"/>
</g>
<path class="st17" d="M770,705.4"/>
<path class="st19" d="M769,707.2C769,707.2,769,707.2,769,707.2l-0.3,0c-0.8,0-1.4-0.6-1.4-1.4c0-0.8,0.6-1.4,1.4-1.4l0.3,0
	c0.8,0,1.4,0.7,1.4,1.4C770.4,706.6,769.8,707.2,769,707.2z"/>
<rect x="1355.9" y="282.4" width="84.3" height="141.5"/>
<circle class="st2" cx="1360.7" cy="304.5" r="15.3"/>
<g>
	<path class="st6" d="M1360.6,271.6"/>
	<path class="st6" d="M1354.9,272.1"/>
	<path class="st7" d="M1347.8,274.3c1-0.4,4.5-2.2,8.9-2.7"/>
	<path class="st7" d="M1346.8,274.8c0.2-0.1,1-0.5,1.2-0.6"/>
	<path class="st6" d="M1349.9,273.4"/>
	<path class="st6" d="M1348.2,275.6"/>
	<path class="st8" d="M1360.6,264.3"/>
	<path class="st8" d="M1355.9,264.6"/>
	<path class="st8" d="M1355.4,264.6"/>
	<path class="st8" d="M1354.9,264.7"/>
	<path class="st8" d="M1362.5,264.4"/>
	<path class="st9" d="M1358.5,264.9c0.1,0,0.9,0,1,0"/>
	<path class="st9" d="M1356.7,264.9c0.6-0.1,1.1-0.1,1.7-0.1"/>
	<g>
		<g>
			<path class="st7" d="M1342,330.6c-0.5-0.3-4-3-4.7-3.9"/>
			<path class="st7" d="M1356.7,271.6c17.4-1.9,36.3,14.5,36.3,32.4s-14.5,32.4-32.4,32.4c-6.9,0-13.3-2.2-18.6-5.9"/>
		</g>
		<g>
			<path class="st7" d="M1337.3,326.7c-4.4-5.5-9.2-15-9.2-22.7c0-11.3,6.3-22.5,18.8-29.3"/>
			<g>
				<path class="st9" d="M1359.4,264.9c24.2,0,41.4,19.2,41.4,39.5c0,21.9-18,39.7-40.2,39.7c-22.2,0-40.2-17.8-40.2-39.7
					c0-19.9,15.9-37.6,36.5-39.5"/>
			</g>
		</g>
	</g>
</g>
</svg>
