<!-- Generator: Adobe Illustrator 24.2.1, SVG Export Plug-In  -->
<svg version="1.1" xmlns="http://www.w3.org/2000/svg" xmlns:xlink="http://www.w3.org/1999/xlink" x="0px" y="0px" width="1366px"
	 height="1536px" viewBox="0 0 1366 1536" style="overflow:visible;enable-background:new 0 0 1366 1536;" xml:space="preserve">
<style type="text/css">
	.st0{fill:#A44434;}
	.st1{fill:#CC969E;}
	.st2{fill:#BC6678;}
	.st3{fill:#A43255;}
	.st4{fill:#D36B51;}
	.st5{fill:#C26F32;}
	.st6{fill:#EFC49F;}
	.st7{fill:#1D1D1B;stroke:#F5F5F5;stroke-width:4;stroke-linecap:round;stroke-linejoin:round;stroke-miterlimit:10;}
	.st8{fill:#FFAD8D;}
	.st9{fill:#C26E32;}
	.st10{fill:#C7C7C7;}
</style>
<defs>
</defs>
<g>
	<rect x="0" width="1366" height="768"/>
</g>
<g>
	<rect y="768" width="1366" height="768"/>
</g>
<rect x="119.8" y="114" style="fill:none;" width="529.2" height="87"/>
<text transform="matrix(1 0 0 1 119.8303 144.213)"><tspan x="0" y="0" style="fill:#FFFFFF; font-family:'Avenir-Book'; font-size:40px;">Schwangerschaftsabbrüche </tspan><tspan x="0" y="48" style="fill:#FFFFFF; font-family:'Avenir-Book'; font-size:40px;">in Deutschland im Jahr 2019</tspan></text>
<rect x="119.4" y="229.2" style="fill:none;" width="182.6" height="30.8"/>
<text transform="matrix(1 0 0 1 119.3672 251.9277)" style="fill:#FFFFFF; font-family:'Avenir-Book'; font-size:30px;">Kalendarium</text>
<path class="st0" d="M871.4,692c-13,0.6-25.1-1.9-36.8-6.2c-11.1-4-21.2-9.9-30.4-17.4c-12.4-10.2-22-22.6-28.7-37.2
	c-4.4-9.5-7.5-19.5-8.7-30c-0.1-1.3-0.3-2.6-0.4-3.9c-0.3-4.2,2.3-5.5,4.7-5.7c2.9-0.2,5,1.9,5.3,5.3c0.9,12,4.6,23.2,10,33.8
	c5.6,11,13.2,20.4,22.6,28.5c9.5,8.2,20.1,14.2,31.9,18.2c6.6,2.2,13.4,3.6,20.3,4.3c6,0.6,12,0.6,18,0.2c6.6-0.4,13-1.9,19.4-3.8
	c12.7-3.8,24-10.2,34-18.7c10.6-9.1,18.9-19.9,24.7-32.6c3.8-8.4,6.4-17.2,7.7-26.4c0.7-4.5,0.6-9.1,1.1-13.7
	c0.3-2.5,1.8-4.2,4.3-4.3c3.2-0.1,5.2,1.3,5.3,4c0.4,6.3-0.1,12.6-1.3,18.8c-2,11.3-5.7,22.2-11.3,32.3c-3.9,7.2-8.7,13.8-14.1,19.9
	c-7.4,8.3-15.9,15.1-25.4,20.6c-9.7,5.7-20.1,9.8-31.2,12C885.3,691.5,878.2,692.5,871.4,692z"/>
<path class="st1" d="M943.6,679.4c-0.1-1.5,0.5-2.8,1.5-3.7c2.5-2.4,5.1-4.7,7.7-6.9c1.8-1.5,5-1.2,6.5,0.5c1.8,1.9,1.9,4.8,0.2,6.7
	c-2.4,2.7-5.1,5.1-7.8,7.4c-1.6,1.3-3.5,1.5-5.4,0.6C944.5,683.1,943.6,681.5,943.6,679.4z"/>
<path class="st2" d="M974.3,653.7c-3,0-4.9-1.9-5-4.7c0-3.1,2.8-6.4,5.6-6.5c2.9,0,5.4,2.4,5.2,5.2
	C979.9,650.3,977.7,654.1,974.3,653.7z"/>
<path class="st3" d="M870.8,712.9c-16.5,0.1-32.5-3.1-47.8-9.4c-11.5-4.7-22.1-11-31.6-19c-13.8-11.5-24.8-25.1-32.7-41.2
	c-5.5-11.2-9.4-23.1-11.4-35.5c-0.8-5-1-10.1-1.4-15.2c-0.4-4.8,0-9.4,0.2-14.1c0.4-7.5,1.8-14.8,3.7-22.1
	c2.5-9.7,6.1-18.9,10.9-27.7c4.6-8.6,10.2-16.4,16.6-23.8c6.7-7.7,14.4-14.4,22.8-20.2c8-5.5,16.7-9.9,25.7-13.5
	c8.8-3.5,18-5.8,27.4-7.2c7.6-1.1,15.2-1.7,22.8-1.2c12.5,0.7,24.8,2.9,36.7,7.1c13.6,4.8,26,11.7,37.2,20.8
	c13,10.6,23.5,23.2,31.3,38c6.2,11.6,10.5,23.9,12.9,36.8c1.1,5.9,1.6,11.8,1.8,17.8c0.1,3.3,0,6.6-0.1,9.9c-0.1,9.1-1.7,18-4,26.8
	c-0.5,2-3.2,3.7-5.3,3.4c-2.3-0.3-4.3-2.5-4.3-4.8c0-3.3,1.3-6.3,1.8-9.5c0.8-5.2,1.7-10.4,1.9-15.7c0.2-3.9-1.8-28.9-4.3-37.3
	c-3.5-11.9-8.6-23.1-15.7-33.4c-5.2-7.6-11.2-14.5-18.1-20.6c-14.3-12.8-30.8-21.4-49.3-26.1c-6.5-1.6-13.2-2.5-20-3.1
	c-14.8-1.2-29.3,0.9-43.3,5.4c-11.6,3.7-22.4,9.2-32.1,16.4c-13.4,10-24.4,22.2-32.6,36.9c-6.1,11-10.2,22.7-12.7,35
	c-1.1,5.4-1.4,10.9-1.9,16.4c-0.4,4.6,0,9,0.3,13.5c0.6,10.3,2.9,20.3,6.5,30c3.3,9,7.4,17.6,12.9,25.5c4.7,6.7,9.7,13.1,15.7,18.8
	c13.4,12.6,28.8,21.7,46.4,27c6.5,2,13.1,3.2,19.8,4.1c6.8,0.9,13.7,1,20.5,0.7c8.5-0.4,16.9-2,25.2-4.4c5.7-1.7,11.3-3.9,16.7-6.3
	c2.8-1.2,5.7-0.4,6.9,2c1.4,2.9,0.5,5.6-2.6,7.1c-8.4,4.1-17.2,7-26.3,9c-5.6,1.2-11.2,1.9-16.9,2.5
	C877.5,712.9,874.2,712.7,870.8,712.9z"/>
<path class="st4" d="M929.7,502.8c0.1,2.1-0.6,3.6-2.3,4.6c-1.8,1-3.7,0.9-5.4-0.2c-7.4-4.8-15.3-8.3-23.7-10.8
	c-5.8-1.8-11.7-2.9-17.8-3.6c-5.8-0.6-11.7-0.7-17.4-0.2c-10.5,0.9-20.7,3.4-30.4,7.7c-8,3.6-15.5,8-22.2,13.6
	c-9,7.5-16.5,16.2-22.2,26.4c-4.9,8.6-8.3,17.8-10.5,27.4c-0.2,1-0.4,2.1-0.5,3.1c-0.4,3-3,5.2-5.6,4.8c-3.1-0.6-5-3.4-4.4-6.4
	c2-11.2,5.7-21.7,11.1-31.7c3.8-7.1,8.4-13.6,13.7-19.6c9.7-11.1,21.4-19.7,34.8-25.9c8.7-4.1,17.8-6.8,27.3-8.3
	c4.8-0.8,9.7-1.1,14.6-1.2c19.1-0.6,36.8,4.1,53.5,13.1c2,1.1,3.8,2.4,5.7,3.6C929.1,500,929.9,501.2,929.7,502.8z"/>
<path class="st5" d="M955.3,542.7c0-2.6,1.5-4.5,3.6-5c2.7-0.6,4.7,0.2,5.8,2.4c3.3,6.4,5.9,13.1,7.7,20.1c0.7,2.7-0.9,5.4-3.5,6.2
	c-2.6,0.7-5.3-0.8-6.1-3.4c-1.8-6.4-4.1-12.5-7.1-18.5C955.3,543.7,955.2,543.1,955.3,542.7z"/>
<path class="st6" d="M945.7,525.7c-2.9,0-6-2.9-6-5.6c0-2.8,2.3-5.2,5.1-5.2c2.9,0,5.7,2.9,5.7,5.8
	C950.5,523.8,948.7,525.7,945.7,525.7z"/>
<g>
	<g>
		<path class="st7" d="M873.5,435.7c0.1-4.9,0.1-9.8,0.2-14.7"/>
		<path class="st7" d="M922.5,442.2c1.6-4.7,3.2-9.4,4.8-14.1"/>
		<path class="st7" d="M962.3,459.2c2.9-4.2,5.7-8.3,8.6-12.5"/>
		<path class="st7" d="M993.5,484.7c3.8-3.4,7.7-6.7,11.5-10.1"/>
		<path class="st7" d="M1015.6,665.3c13.5,7,27.1,14,40.6,21"/>
		<path class="st7" d="M993.5,697c11.5,10,22.9,19.9,34.4,29.9"/>
		<path class="st7" d="M962.2,722.5c8.5,12.4,17.1,24.7,25.6,37.1"/>
		<path class="st7" d="M922.2,739.4c0.3,0.8,0.4,1.3,0.7,2.1"/>
		<path class="st7" d="M1015.7,516.4c18.2-9.4,36.4-18.8,54.6-28.2"/>
		<path class="st7" d="M1029.1,552.6c19.9-4.8,39.8-9.7,59.6-14.5"/>
		<path class="st7" d="M1033.5,591.1c22.5,0,45,0.1,67.5,0.1"/>
		<path class="st7" d="M1029,629.3c21.9,5.3,43.7,10.7,65.6,16"/>
		<path class="st7" d="M873.5,745.9c0,0.9,0,1.3,0.1,2.2"/>
	</g>
</g>
<path class="st2" d="M1005.6,922.3c-0.1,71.5-57.9,129.7-129.8,129.7c-72,0-130.4-58.5-129.9-130.9c0.5-71,58.1-128.8,129.9-128.8
	C947.7,792.3,1005.6,850.6,1005.6,922.3z"/>
<path d="M995.6,922.2c-0.1,65.9-53.4,119.8-119.9,119.8c-66.6,0-120.3-54.1-119.8-120.7c0.4-65.5,53.5-119.1,120-119
	C942.4,802.4,995.6,856.3,995.6,922.2z"/>
<path class="st4" d="M876.7,1031.2c-54-0.1-99.2-38-108.4-90.2c-10.1-57.3,26.6-112.3,83.4-125.2c3.4-0.8,6.1,0.7,6.8,3.7
	c0.6,2.8-1.2,5.2-4.6,6c-19.7,4.6-36.6,14.1-50.5,28.9c-14.6,15.7-23.5,34.2-25.9,55.5c-3.8,33.5,6.9,62,31.2,85
	c14.5,13.7,32,21.9,51.8,25c21.1,3.2,41.1,0,60.1-9.6c2-1,3.9-1.3,5.9,0.1c1.6,1.2,2.2,2.8,2,4.7c-0.2,2-1.6,3.2-3.2,4
	c-9.6,4.9-19.6,8.3-30.2,10.2C888.8,1030.6,882.3,1031.3,876.7,1031.2z"/>
<path class="st8" d="M881.3,813.1c36.9,3,65.9,19.4,86.5,50.5c1.7,2.6,1.8,4.8,0.4,6.5c-2.3,3-6.4,2.7-8.5-0.7
	c-4-6.4-8.8-12.3-14.1-17.6c-14.5-14.3-31.8-23.3-51.8-27.2c-4.4-0.9-8.9-1.1-13.4-1.6c-3.1-0.3-4.9-2.5-4.7-5.5
	C875.9,815,878.3,813.1,881.3,813.1z"/>
<path class="st0" d="M984.8,925.1c-1,24.4-8.9,46.3-24.1,65.5c-3.3,4.2-7,8-10.9,11.7c-1.8,1.7-4.2,2.1-6.1,1.1
	c-1.9-1-2.9-3-2.6-5.2c0.2-1.6,1.3-2.6,2.3-3.6c9.1-8.5,16.3-18.3,21.6-29.5c6.3-13.3,9.7-27.3,9.8-42.1c0-3.4,2-5.7,5-5.7
	c2.9,0,5,2.3,5,5.6C984.8,923.6,984.8,924.3,984.8,925.1z"/>
<path class="st9" d="M982.5,900.3c0,2.6-1.8,4.8-4.2,5.2c-2.3,0.4-4.9-1.1-5.6-3.4c-0.9-3.1-1.6-6.1-2.4-9.2c-0.5-2.2,1-4.6,3.2-5.5
	c2.4-0.9,5.2,0.1,6.2,2.4C981.1,893.2,981.9,896.8,982.5,900.3z"/>
<path class="st7" d="M827.9,754.2c-0.3-1-0.5-1.5-0.8-2.6"/>
<path class="st7" d="M785.4,770.5c-0.3-0.4-0.4-0.6-0.7-1.1"/>
<path class="st7" d="M751.8,795.1c-0.4-0.4-0.5-0.5-0.9-0.9"/>
<path class="st7" d="M723.9,841.8c-0.5-0.3-0.7-0.5-1.2-0.8"/>
<path class="st7" d="M704.8,882c-0.5-0.2-0.7-0.3-1.2-0.4"/>
<path class="st7" d="M696.8,926.4c-0.5-0.1-0.7-0.1-1.2-0.2"/>
<path class="st7" d="M696.6,971.2c-0.5,0-0.7,0.1-1.2,0.1"/>
<path class="st7" d="M704.4,1014.1c-0.6,0.2-1,0.3-1.6,0.5"/>
<path class="st7" d="M723.5,1054.9c-0.6,0.3-0.9,0.5-1.5,0.9"/>
<path class="st7" d="M751.3,1045.9c-0.4,0.4-0.6,0.6-1.1,1"/>
<path class="st7" d="M785.2,1070.8c-0.3,0.5-0.5,0.7-0.8,1.2"/>
<path class="st7" d="M827.5,1087.3c-0.2,0.5-0.3,0.8-0.5,1.4"/>
<path class="st7" d="M827.6,1087.3c-0.2,0.5-0.3,0.8-0.5,1.4"/>
<path class="st7" d="M878.4,1093.5c0,0.6,0,0.9,0,1.4"/>
<path class="st10" d="M876.3,1191.9c44.1-0.1,80.5,35.9,80.6,79.8c0.1,45.1-35.8,81.3-80.6,81.3c-44.2-0.1-80.4-36-80.5-79.9
	C795.8,1228.1,831.5,1192,876.3,1191.9z"/>
<path class="st2" d="M1006.9,1276c-0.1,72.2-58.5,130.8-131,130.8c-72.5,0-131.4-59-130.8-132c0.6-71.4,58.5-129.6,130.8-129.7
	C948.4,1145.1,1006.9,1203.8,1006.9,1276z"/>
<path d="M755.2,1275.9c0.1-66.4,53.8-120.7,120.8-120.7c67.1,0,121.3,54.6,120.7,121.8c-0.5,65.8-54,119.8-120.9,119.7
	C808.8,1396.7,755.2,1342.3,755.2,1275.9z"/>
<path class="st4" d="M765.9,1275.9c1.9-43.2,20.9-76.1,59.1-97.2c13.6-7.5,28.3-11.3,43.8-12.2c29.2-1.7,55.1,6.9,77.7,25.3
	c0.7,0.6,1.4,1.2,2,1.9c1.9,2.2,1.9,4.8,0,6.8c-1.7,1.9-4.7,2.1-6.8,0.4c-2.3-1.7-4.4-3.6-6.7-5.3c-14.6-10.7-31-17.1-49.1-18.8
	c-52.7-5.1-97.9,30.6-107.8,79.3c-9.4,46.7,14.5,92.4,58.1,111.6c13.1,5.8,26.7,8.3,41,8.2c1,0,2.1-0.1,3.1,0.1
	c2.3,0.4,3.9,2.5,4,4.8c0,2.3-1.5,4.2-3.8,4.9c-1.2,0.3-2.4,0.3-3.5,0.3c-20.9,0.1-40.5-5-58.2-16.1c-28.8-18-46-44-51.5-77.6
	c-0.3-1.9-0.6-3.7-0.7-5.6C766.3,1283.1,766,1279.6,765.9,1275.9z"/>
<path class="st0" d="M985.9,1279.7c-1,24.3-9.1,46.6-24.8,65.9c-13.4,16.4-30.3,28-50.4,34.7c-3.2,1.1-5.8,0.3-7.1-2.1
	c-1.5-2.9-0.1-6.1,3.4-7.3c5.4-1.8,10.6-3.9,15.6-6.6c28.6-15.7,45.8-39.7,51.9-71.8c1-5.2,1.4-10.5,1.4-15.8c0-3.4,2.1-5.7,5.1-5.7
	c3,0.1,5,2.4,5,5.8C985.9,1277.6,985.9,1278.3,985.9,1279.7z"/>
<path class="st6" d="M963.7,1213.9c4.2-0.1,9.5,8.1,7.8,11.9c-1.5,3.3-6.3,4-8.5,1c-1.4-1.9-2.7-3.9-3.6-6.1
	C957.9,1217.6,960.3,1214,963.7,1213.9z"/>
<path class="st9" d="M982.3,1248.6c0,2.8-1.8,4.8-4.1,5.2c-2.5,0.4-4.8-0.9-5.6-3.3c-0.5-1.3-0.8-2.7-1.1-4c-0.6-2.5,0.8-5,3.2-5.9
	c2.3-0.8,5,0.1,6.1,2.3C981.6,1244.8,982.1,1246.9,982.3,1248.6z"/>
<path class="st7" d="M877.3,1451c0,0.6,0,0.8,0,1.4"/>
<path class="st7" d="M926.9,1445.5c0.2,0.5,0.3,0.8,0.4,1.3"/>
<path class="st7" d="M968.8,1431.1c0.3,0.5,0.5,0.7,0.8,1.2"/>
<path class="st7" d="M1003.2,1409c0.4,0.4,0.6,0.6,1,1"/>
<path class="st7" d="M1029.8,1381c0.5,0.3,0.7,0.5,1.2,0.8"/>
<path class="st7" d="M1048.9,1348.4c0.6,0.2,0.8,0.3,1.4,0.6"/>
<path class="st7" d="M1060.4,1312.7c0.6,0.1,0.9,0.2,1.5,0.3"/>
<path class="st7" d="M1064.2,1275.6c0.6,0,0.9,0,1.5,0"/>
<path class="st7" d="M1060.4,1238.5c0.6-0.1,0.9-0.2,1.5-0.3"/>
<path class="st7" d="M1048.9,1202.9c0.5-0.2,0.8-0.4,1.4-0.6"/>
<path class="st7" d="M1029.9,1170.3c0.5-0.3,0.7-0.5,1.2-0.8"/>
<path class="st7" d="M1003.2,1142.2c0.4-0.4,0.6-0.6,1-1.1"/>
<path class="st7" d="M968.8,1120.2c0.3-0.5,0.4-0.7,0.7-1.2"/>
<path class="st7" d="M926.9,1105.7c0.2-0.5,0.2-0.8,0.4-1.3"/>
<rect x="179.8" y="522.3" style="fill:none;" width="377.2" height="167.7"/>
<text transform="matrix(1 0 0 1 179.8 535.9554)"><tspan x="0" y="0" style="fill:#7C7C7C; font-family:'Avenir-Book'; font-size:18px;">98,7 Prozent der Frauen treiben im ertsen Tri</tspan><tspan x="360.2" y="0" style="fill:#7C7C7C; font-family:'Avenir-Book'; font-size:18px;">-</tspan><tspan x="0" y="21.6" style="fill:#7C7C7C; font-family:'Avenir-Book'; font-size:18px;">mester ihr ungeborenes Kind aufgrund einer </tspan><tspan x="0" y="43.2" style="fill:#7C7C7C; font-family:'Avenir-Book'; font-size:18px;">Beratungsregelung ab.</tspan><tspan x="0" y="64.8" style="fill:#7C7C7C; font-family:'Avenir-Book'; font-size:18px;">Bei 1,29 Prozent findet eine Abtreibung nach </tspan><tspan x="0" y="86.4" style="fill:#7C7C7C; font-family:'Avenir-Book'; font-size:18px;">medizinischen Beweggründen statt. 0,02 pro</tspan><tspan x="359.3" y="86.4" style="fill:#7C7C7C; font-family:'Avenir-Book'; font-size:18px;">-</tspan><tspan x="0" y="108" style="fill:#7C7C7C; font-family:'Avenir-Book'; font-size:18px;">zent der Abtreibungen sind die Folge Krimino</tspan><tspan x="368.6" y="108" style="fill:#7C7C7C; font-family:'Avenir-Book'; font-size:18px;">-</tspan><tspan x="0" y="129.6" style="fill:#7C7C7C; font-family:'Avenir-Book'; font-size:18px;">logischer Gründe.</tspan></text>
<rect x="37.7" y="190.4" style="fill:none;" width="30.8" height="543.8"/>
<text transform="matrix(0 -1 1 0 52.8656 734.1274)"><tspan x="0" y="0" style="fill:#FFFFFF; font-family:'Avenir-Book'; font-size:20px;">Kalendarium</tspan><tspan x="112.2" y="0" style="fill:#FFFFFF; font-family:'Avenir-Book'; font-size:20px; letter-spacing:26;">	</tspan><tspan x="144" y="0" style="fill:#FFFFFF; font-family:'Avenir-Book'; font-size:20px; letter-spacing:30;">			</tspan><tspan x="252" y="0" style="fill:#FFFFFF; font-family:'Avenir-Book'; font-size:20px;">Dokumentation</tspan></text>
<rect x="179.4" y="483.9" style="fill:none;" width="131.6" height="19.1"/>
<text transform="matrix(1 0 0 1 179.4119 497.5338)" style="fill:#7C7C7C; font-family:'Avenir-Black'; font-size:18px;">1. Trimester</text>
</svg>
