<!-- Generator: Adobe Illustrator 24.2.1, SVG Export Plug-In  -->
<svg version="1.1" xmlns="http://www.w3.org/2000/svg" xmlns:xlink="http://www.w3.org/1999/xlink" x="0px" y="0px" width="1935px"
	 height="1112px" viewBox="0 0 1935 1112" style="overflow:visible;enable-background:new 0 0 1935 1112;" xml:space="preserve">
<style type="text/css">
	.st0{fill:#FFFFFF;}
	.st1{fill:none;stroke:#E5007E;stroke-width:17;stroke-linecap:round;stroke-miterlimit:10;}
	.st2{fill:#C37AA5;}
	.st3{fill:none;stroke:#E5007E;stroke-width:15;stroke-miterlimit:10;}
	.st4{fill:none;stroke:#E5007E;stroke-width:15;stroke-linecap:round;stroke-miterlimit:10;}
	.st5{fill:none;stroke:#C37AA5;stroke-width:18;stroke-linecap:round;stroke-miterlimit:10;}
	.st6{fill:#D64D68;}
	.st7{fill:#DF80B1;}
	.st8{fill:#8C3843;}
	.st9{fill:#A2195B;}
	.st10{fill:#1D1D1B;stroke:#F5F5F5;stroke-width:4;stroke-linecap:round;stroke-linejoin:round;stroke-miterlimit:10;}
	.st11{opacity:0.4;fill:#6F6F6E;}
	.st12{fill:none;}
	.st13{font-family:'Rockwell-Regular';}
	.st14{font-size:150px;}
	.st15{font-family:'AvenirNext-Medium';}
	.st16{font-size:18px;}
	.st17{fill:none;stroke:#FFFFFF;stroke-miterlimit:10;}
	.st18{letter-spacing:-1;}
</style>
<defs>
</defs>
<g>
	<rect x="0.5" y="0.5" width="1934" height="1111"/>
	<path class="st0" d="M1934,1v1110H1V1H1934 M1935,0H0v1112h1935V0L1935,0z"/>
</g>
<g>
	<g>
		<path class="st1" d="M652.4,408.1"/>
		<path class="st1" d="M624.8,410.5"/>
		<path class="st1" d="M599.9,417"/>
		<path class="st1" d="M591.8,428"/>
		<path class="st2" d="M652.4,823.1c-66.9,0-129.9-26.1-177.2-73.4c-47.3-47.3-73.4-110.3-73.4-177.2c0-66.9,26.1-129.9,73.4-177.2
			C522.5,348,585.4,322,652.4,322c66.9,0,129.9,26.1,177.2,73.4c47.3,47.3,73.4,110.3,73.4,177.2c0,66.9-26.1,129.9-73.4,177.2
			C782.2,797,719.3,823.1,652.4,823.1z M652.4,338.5c-129,0-234,105-234,234s105,234,234,234s234-105,234-234
			S781.4,338.5,652.4,338.5z"/>
		<path class="st3" d="M707.5,433.3"/>
		<path class="st3" d="M677.9,435"/>
		<path class="st3" d="M674.8,435.4"/>
		<path class="st4" d="M671.8,435.8"/>
		<path class="st4" d="M719.5,433.6"/>
		<path class="st5" d="M652.5,406.9"/>
		<path class="st6" d="M615.6,390c-3.9,0-7.6-2.5-8.9-6.4c-1.6-4.9,1-10.2,5.9-11.9c0.5-0.2,1-0.3,1.4-0.4c5-1.3,10.1,1.8,11.4,6.8
			c1.3,5-1.8,10.1-6.8,11.4C617.6,389.8,616.6,390,615.6,390z"/>
		<path class="st5" d="M608.6,413"/>
		<path class="st7" d="M591.2,399.5c-0.5,0-1.1-1.2-4.5-10.7c-0.7-1.9-4-11.2-3.9-12l0-0.3l0.3-0.2c0.7-0.3,0.9-0.3,5,11.2
			c3.1,8.6,3.7,10.8,3.6,11.5l0,0l-0.1,0.3l-0.3,0.1C591.4,399.5,591.3,399.5,591.2,399.5z"/>
		<g>
			<path class="st8" d="M493.7,467.5c-1.9,0-3.8-0.6-5.5-1.8c-4.2-3-5.2-8.9-2.1-13.1c17.6-24.4,40.8-45,67.1-59.6
				c4.5-2.5,10.2-0.9,12.7,3.7c2.5,4.5,0.9,10.2-3.7,12.7c-23.9,13.2-44.9,32-60.9,54.1C499.5,466.2,496.6,467.5,493.7,467.5z"/>
			<path class="st8" d="M472.1,506c-1.2,0-2.4-0.2-3.6-0.7c-4.8-2-7-7.5-5-12.3c6-14.2,13.6-27.8,22.6-40.3c3-4.2,8.9-5.2,13.1-2.1
				c4.2,3,5.2,8.9,2.1,13.1c-8.2,11.4-15.1,23.7-20.5,36.6C479.3,503.8,475.8,506,472.1,506z"/>
			<path class="st8" d="M652.3,777c-111.2,0-202.7-89.4-204.7-201c-0.5-28.8,4.8-56.7,15.9-83c2-4.8,7.5-7,12.3-5
				c4.8,2,7,7.5,5,12.3c-10.1,23.9-14.9,49.3-14.4,75.4c1.9,101.4,84.9,182.6,185.9,182.6c1.1,0,2.3,0,3.4,0
				c49.7-0.9,96-21.1,130.5-56.9c34.5-35.8,53-82.8,52.1-132.5c-0.5-28.4-7.2-55.5-20-80.6c-2.3-4.6-0.5-10.3,4.1-12.6
				c4.6-2.3,10.3-0.5,12.6,4.1c14,27.7,21.4,57.5,22,88.8c1,54.7-19.4,106.5-57.3,145.8c-38,39.4-89,61.6-143.7,62.6
				C654.8,777,653.6,777,652.3,777z"/>
		</g>
		<path class="st5" d="M778.6,468.1"/>
		<path class="st9" d="M802.1,455.8c-2.7,0-5.3-1.1-7.2-3.3c-35.5-42.1-87.4-66.2-142.3-66.2c-5.2,0-9.4-4.2-9.4-9.4
			c0-5.2,4.2-9.4,9.4-9.4c60.5,0,117.7,26.6,156.7,72.9c3.3,4,2.8,9.9-1.1,13.2C806.4,455.1,804.2,455.8,802.1,455.8z"/>
	</g>
	<g>
		<g>
			<path class="st10" d="M652.8,194.6c0-2.4,0-3.6,0-5.9"/>
			<path class="st10" d="M543.6,207.8c-0.7-2.3-1.1-3.4-1.8-5.7"/>
			<path class="st10" d="M452,243.1c-0.6-0.9-0.9-1.4-1.4-2.4"/>
			<path class="st10" d="M379.3,296.1c-0.8-0.8-1.2-1.2-2-2"/>
			<path class="st10" d="M324.6,363.3c-1-0.6-1.4-0.9-2.4-1.5"/>
			<path class="st10" d="M288.1,439.9c-0.9-0.3-1.4-0.5-2.3-0.8"/>
			<path class="st10" d="M269.6,522.9c-1-0.1-1.4-0.2-2.4-0.3"/>
			<path class="st10" d="M269.2,608.2c-1,0.1-1.4,0.1-2.4,0.2"/>
			<path class="st10" d="M287.5,691.5c-1.3,0.4-1.9,0.6-3.1,1"/>
			<path class="st10" d="M323.8,769.3c-1.1,0.7-1.7,1-2.8,1.7"/>
			<path class="st10" d="M378.4,837.2c-1,0.9-1.4,1.4-2.4,2.3"/>
			<path class="st10" d="M451.4,890.9c-0.7,1.1-1.1,1.6-1.8,2.7"/>
			<path class="st10" d="M542.9,926.5c-0.4,1.2-0.6,1.8-1,3"/>
			<path class="st10" d="M543,926.5c-0.4,1.2-0.6,1.8-1,3"/>
			<path class="st10" d="M652.8,939.9c0,1.3-0.1,1.9-0.1,3.2"/>
		</g>
	</g>
	<circle class="st11" cx="652.3" cy="572.5" r="82.2"/>
</g>
<rect x="112" y="153.2" class="st12" width="133.2" height="153.7"/>
<text transform="matrix(1 0 0 1 111.9546 263.5829)" class="st0 st13 st14">2</text>
<rect x="122.4" y="357.9" class="st12" width="56.6" height="127.6"/>
<text transform="matrix(1 0 0 1 122.4312 371.5505)" class="st0 st15 st16">Menü</text>
<rect x="77" y="307" class="st17" width="152.5" height="638"/>
<rect x="1352.4" y="312.9" class="st12" width="423.1" height="127.6"/>
<text transform="matrix(1 0 0 1 1352.4316 326.5505)" class="st0 st15 st16">Textfeld</text>
<rect x="1316" y="254" class="st17" width="495.5" height="638"/>
</svg>
