<!-- Generator: Adobe Illustrator 24.2.1, SVG Export Plug-In  -->
<svg version="1.1" xmlns="http://www.w3.org/2000/svg" xmlns:xlink="http://www.w3.org/1999/xlink" x="0px" y="0px" width="1938px"
	 height="1082px" viewBox="0 0 1938 1082" style="overflow:visible;enable-background:new 0 0 1938 1082;" xml:space="preserve">
<style type="text/css">
	.st0{fill:#FFFFFF;}
	.st1{fill:none;stroke:#E5007E;stroke-width:17;stroke-linecap:round;stroke-miterlimit:10;}
	.st2{fill:#C37AA5;}
	.st3{fill:#D64D68;}
	.st4{fill:#DF80B1;}
	.st5{fill:none;stroke:#C37AA5;stroke-width:18;stroke-linecap:round;stroke-miterlimit:10;}
	.st6{fill:#8C3843;}
	.st7{fill:#A2195B;}
	.st8{fill:#1D1D1B;stroke:#F5F5F5;stroke-width:4;stroke-linecap:round;stroke-linejoin:round;stroke-miterlimit:10;}
	.st9{opacity:0.4;fill:#6F6F6E;}
	.st10{fill:none;stroke:#FFFFFF;stroke-miterlimit:10;}
</style>
<defs>
</defs>
<g>
	<rect x="0.5" y="0.5" width="1937" height="1081"/>
	<path class="st0" d="M1937,1v1080H1V1H1937 M1938,0H0v1082h1938V0L1938,0z"/>
</g>
<g>
	<g>
		<path class="st1" d="M651.1,370.1"/>
		<path class="st1" d="M628.4,371.1"/>
		<path class="st1" d="M587.3,380.5"/>
		<path class="st1" d="M572.3,386.3"/>
		<path class="st1" d="M577.4,393.7"/>
		<path class="st2" d="M650,808.4c-66.9,0-129.9-26.1-177.2-73.4c-47.3-47.3-73.4-110.3-73.4-177.2s26.1-129.9,73.4-177.2
			c47.3-47.3,110.3-73.4,177.2-73.4s129.9,26.1,177.2,73.4c47.3,47.3,73.4,110.3,73.4,177.2S874.6,687.7,827.2,735
			C779.9,782.3,717,808.4,650,808.4z M650,323.8c-129,0-234,105-234,234s105,234,234,234s234-105,234-234S779.1,323.8,650,323.8z"/>
		<path class="st3" d="M633.5,380.3c-0.1,0-0.6-3.6-1.2-8.9c-0.7-6.1-1.3-12.2-1.4-13.6c0-0.1,0-0.3,0-0.4c0-1.2,0.6,2.8,1.3,9
			c0.7,6.2,1.3,12.1,1.3,13.3c0,0.1,0,0.2,0,0.3C633.6,380.2,633.5,380.3,633.5,380.3z"/>
		<path class="st4" d="M619.2,382C619.2,382,619.2,382,619.2,382C619.1,382,619.1,382,619.2,382c-0.3,0.3-1.3-4.6-2.3-10.8
			c-1-6.2-1.7-11.5-1.5-11.7c0,0,0.1,0,0.1,0c0.3,0.3,1.4,5.6,2.4,11.9C618.9,377.3,619.4,382,619.2,382z"/>
		<path class="st5" d="M613.1,372.3"/>
		<path class="st5" d="M602.5,374.6"/>
		<path class="st6" d="M650.1,757.4c-111,0-202.5-87-204.7-195.7c-1.9-90.9,59.5-171.5,149.1-196.1c5-1.4,10.2,1.6,11.5,6.6
			s-1.6,10.2-6.6,11.5c-81.4,22.3-137,95.4-135.3,177.7c2,98.5,85.1,177.3,185.9,177.3c1.3,0,2.5,0,3.8,0
			c50.7-1,97.6-21.4,132.2-57.4c33.2-34.6,51-79.7,50.1-127.1c0-2.2-0.1-4.4-0.3-6.5c-0.3-5.2,3.7-9.6,8.8-9.9
			c5.2-0.3,9.6,3.7,9.9,8.8c0.1,2.4,0.2,4.8,0.3,7.2c1.1,52.4-18.6,102.2-55.3,140.5c-38.1,39.6-89.7,62-145.4,63.1
			C652.9,757.4,651.5,757.4,650.1,757.4z"/>
		<path class="st7" d="M837.9,514.3c-4,0-7.8-2.6-9-6.7c-10.8-36.4-33.8-69.3-64.7-92.7c-31.9-24.1-70.2-37.3-110.8-38
			c-5.2-0.1-9.3-4.4-9.2-9.5c0.1-5.1,4.3-9.2,9.4-9.2c0.1,0,0.1,0,0.2,0c44.5,0.8,86.6,15.2,121.7,41.8
			c34.1,25.8,59.4,62.1,71.4,102.3c1.5,5-1.4,10.2-6.3,11.7C839.7,514.2,838.8,514.3,837.9,514.3z"/>
	</g>
	<g>
		<g>
			<path class="st8" d="M649.6,920.2c0,1.2,0.1,1.9,0.1,3.1"/>
			<path class="st8" d="M755.8,908.6c0.4,1.2,0.6,1.8,1,3"/>
			<path class="st8" d="M845.7,877.6c0.7,1.1,1,1.6,1.7,2.7"/>
			<path class="st8" d="M919.2,830.5c0.9,0.9,1.4,1.4,2.3,2.3"/>
			<path class="st8" d="M976.4,770.4c1.1,0.7,1.7,1.1,2.8,1.8"/>
			<path class="st8" d="M1017.3,700.6c1.2,0.5,1.9,0.7,3.1,1.2"/>
			<path class="st8" d="M1041.8,624.3c1.3,0.2,2,0.4,3.3,0.6"/>
			<path class="st8" d="M1049.9,544.8c1.3,0,2,0,3.3,0"/>
			<path class="st8" d="M1041.8,465.3c1.3-0.3,2-0.4,3.3-0.7"/>
			<path class="st8" d="M1017.3,389.1c1.2-0.5,1.8-0.8,3.1-1.3"/>
			<path class="st8" d="M976.4,319.3c1.1-0.8,1.6-1.1,2.7-1.9"/>
			<path class="st8" d="M919.2,259.2c0.9-1,1.3-1.4,2.2-2.4"/>
			<path class="st8" d="M845.7,212c0.6-1.1,1-1.7,1.6-2.8"/>
			<path class="st8" d="M755.8,181c0.3-1.2,0.5-1.8,0.9-3"/>
			<path class="st8" d="M649.6,169.4c0-1.2,0-1.9,0-3.1"/>
		</g>
	</g>
	<circle class="st9" cx="649.8" cy="557.2" r="21"/>
</g>
<rect x="112" y="96.2" style="fill:none;" width="133.2" height="153.7"/>
<text transform="matrix(1 0 0 1 111.9546 206.5829)" class="st0" style="font-family:'Rockwell-Regular'; font-size:150px;">3</text>
<rect x="117.4" y="309.9" style="fill:none;" width="56.6" height="127.6"/>
<text transform="matrix(1 0 0 1 117.4312 323.5505)" class="st0" style="font-family:'AvenirNext-Medium'; font-size:18px;">Menü</text>
<rect x="72" y="259" class="st10" width="152.5" height="638"/>
<rect x="1352.4" y="309.9" style="fill:none;" width="423.1" height="397.1"/>
<text transform="matrix(1 0 0 1 1352.4316 346.2302)"><tspan x="0" y="0" class="st0" style="font-family:'AvenirNext-Medium'; font-size:48px;">Notizen</tspan><tspan x="0" y="43.2" class="st0" style="font-family:'AvenirNext-Medium'; font-size:18px;">Wo kommt der „Home-Button“ hin ?</tspan><tspan x="0" y="86.4" class="st0" style="font-family:'AvenirNext-Medium'; font-size:18px;">Pfeil als alternative, wenn Scrollnavigation nicht </tspan><tspan x="0" y="108" class="st0" style="font-family:'AvenirNext-Medium'; font-size:18px;">fuktioniert</tspan><tspan x="0" y="151.2" class="st0" style="font-family:'AvenirNext-Medium'; font-size:18px;">Bei Mose over über einzelne Elemente </tspan><tspan x="0" y="172.8" class="st0" style="font-family:'AvenirNext-Medium'; font-size:18px;">Beschreibung und Anzahl evtl. Auffälligkeiten im </tspan><tspan x="0" y="194.4" class="st0" style="font-family:'AvenirNext-Medium'; font-size:18px;">Textfeld einblenden.</tspan></text>
<rect x="1316" y="259" class="st10" width="495.5" height="638"/>
</svg>
