<!-- Generator: Adobe Illustrator 24.2.1, SVG Export Plug-In  -->
<svg version="1.1" xmlns="http://www.w3.org/2000/svg" xmlns:xlink="http://www.w3.org/1999/xlink" x="0px" y="0px"
	 width="1077.2px" height="664px" viewBox="0 0 1077.2 664" style="overflow:visible;enable-background:new 0 0 1077.2 664;"
	 xml:space="preserve">
<style type="text/css">
	.st0{fill:#FFFFFF;}
	.st1{fill:#B90024;}
	.st2{fill:none;stroke:#B90024;stroke-width:3;stroke-linecap:round;stroke-linejoin:round;stroke-miterlimit:10;}
	.st3{fill:#FFFFFF;stroke:#F7931E;stroke-width:3;stroke-miterlimit:10;}
	.st4{font-family:'MyriadPro-Regular';}
	.st5{font-size:20px;}
	.st6{fill:none;}
	.st7{fill:none;stroke:#000000;stroke-miterlimit:10;}
	.st8{fill:#F7931E;}
	.st9{letter-spacing:-1;}
</style>
<defs>
</defs>
<g>
	
		<ellipse transform="matrix(0.2298 -0.9732 0.9732 0.2298 -187.1728 298.2124)" class="st0" cx="94.8" cy="267.4" rx="92.1" ry="92.1"/>
	<path d="M94.8,175.7c50.5,0,91.6,41.1,91.6,91.6S145.3,359,94.8,359S3.2,317.9,3.2,267.4S44.3,175.7,94.8,175.7 M94.8,174.7
		c-51.2,0-92.6,41.5-92.6,92.6S43.7,360,94.8,360s92.6-41.5,92.6-92.6S146,174.7,94.8,174.7L94.8,174.7z"/>
</g>
<g>
	<ellipse class="st1" cx="140.2" cy="283.9" rx="34.4" ry="35"/>
</g>
<g>
	<path class="st1" d="M407.2,265.9c0,39.5-24.8,73.3-59.7,86.6V179.3C382.4,192.6,407.2,226.3,407.2,265.9z"/>
</g>
<g>
	<path class="st0" d="M314.6,358c-50.8,0-92.1-41.3-92.1-92.1s41.3-92.1,92.1-92.1c11.2,0,22.1,2,32.4,5.9v172.5
		C336.7,356,325.8,358,314.6,358z"/>
	<path d="M314.6,174.3c11,0,21.7,1.9,31.9,5.7v171.8c-10.2,3.8-20.9,5.7-31.9,5.7c-50.5,0-91.6-41.1-91.6-91.6
		S264.1,174.3,314.6,174.3 M314.6,173.3c-51.1,0-92.6,41.5-92.6,92.6s41.5,92.6,92.6,92.6c11.6,0,22.7-2.1,32.9-6V179.3
		C337.3,175.4,326.2,173.3,314.6,173.3L314.6,173.3z"/>
</g>
<path class="st2" d="M21.2,566.4C21.2,515.3,79,459.8,152,480"/>
<path class="st3" d="M619.2,298.4c0-51.2,57.7-106.6,130.8-86.4"/>
<text transform="matrix(1 0 0 1 1.6562 19.6816)" class="st4 st5">Gesamtmenge Schwangerschaften jährlich</text>
<rect x="0" y="45.3" class="st6" width="198.2" height="24.7"/>
<text transform="matrix(1 0 0 1 2.001953e-02 59.5181)" class="st4 st5">Teilmenge: Abbrüche</text>
<g>
	<line class="st7" x1="347.6" y1="400.6" x2="347.6" y2="352.5"/>
</g>
<g>
	<line class="st7" x1="347.6" y1="179.3" x2="347.6" y2="132.5"/>
</g>
<line class="st7" x1="410.2" y1="411" x2="410.8" y2="411"/>
<circle class="st7" cx="381.7" cy="12.5" r="12"/>
<circle class="st1" cx="201.7" cy="55.5" r="11.5"/>
<circle class="st8" cx="853.7" cy="11.5" r="11.5"/>
<circle class="st8" cx="636.7" cy="101.5" r="11.5"/>
<circle class="st8" cx="684.7" cy="101.5" r="11.5"/>
<circle class="st8" cx="732.7" cy="101.5" r="11.5"/>
<circle class="st8" cx="638.7" cy="148.5" r="11.5"/>
<circle class="st8" cx="686.7" cy="149.5" r="11.5"/>
<circle class="st8" cx="733.7" cy="148.5" r="11.5"/>
<rect x="623.7" y="4.4" class="st6" width="225.5" height="20.6"/>
<text transform="matrix(1 0 0 1 623.7041 18.5967)" class="st4 st5">Schwangerschaftswoche</text>
<rect x="786.6" y="107" class="st6" width="290.6" height="247"/>
<text transform="matrix(1 0 0 1 786.5552 121.229)"><tspan x="0" y="0" class="st4 st5">räumliche Anordnung/ Achse/ Ko</tspan><tspan x="278.4" y="0" class="st4 st5">-</tspan><tspan x="0" y="24" class="st4 st5">ordinatensystem</tspan><tspan x="0" y="120" class="st4 st5">Zeitstrahl: linear oder gebogen </tspan></text>
<rect x="562.9" y="391.6" class="st6" width="184.3" height="272.4"/>
<text transform="matrix(1 0 0 1 562.9277 405.8262)"><tspan x="0" y="0" class="st4 st5">Farbe</tspan><tspan x="0" y="48" class="st4 st5">Form</tspan><tspan x="0" y="96" class="st4 st5">Redundanz</tspan><tspan x="0" y="144" class="st4 st5">Breite </tspan><tspan x="0" y="192" class="st4 st5">Kreisausschnitte </tspan><tspan x="0" y="240" class="st4 st5">Winkel</tspan></text>
<rect x="773.9" y="390.6" class="st6" width="184.3" height="272.4"/>
<text transform="matrix(1 0 0 1 773.9277 404.8262)"><tspan x="0" y="0" class="st4 st5">Abstände</tspan><tspan x="0" y="48" class="st4 st5">räumliche Anordnung</tspan><tspan x="0" y="96" class="st4 st5">Radius</tspan></text>
</svg>
