<!-- Generator: Adobe Illustrator 24.2.1, SVG Export Plug-In  -->
<svg version="1.1" xmlns="http://www.w3.org/2000/svg" xmlns:xlink="http://www.w3.org/1999/xlink" x="0px" y="0px"
	 width="1686.3px" height="2399.1px" viewBox="0 0 1686.3 2399.1"
	 style="overflow:visible;enable-background:new 0 0 1686.3 2399.1;" xml:space="preserve">
<style type="text/css">
	.st0{fill:#A54535;}
	.st1{fill:#CC979E;}
	.st2{fill:#BC6778;}
	.st3{fill:#A53256;}
	.st4{fill:#D36B52;}
	.st5{fill:#C37032;}
	.st6{fill:#EFC49F;}
	.st7{fill:#1E1E1C;stroke:#F5F5F5;stroke-width:4;stroke-linecap:round;stroke-linejoin:round;stroke-miterlimit:10;}
	.st8{fill:#F6AC90;}
	.st9{fill:#C26E32;}
	.st10{fill:#C8C7C7;}
</style>
<defs>
</defs>
<rect width="1686.3" height="2399.1"/>
<path class="st0" d="M841.5,791.5c-22.8,1-44-3.4-64.5-10.8c-19.5-7-37.2-17.3-53.3-30.5c-21.8-17.9-38.6-39.6-50.3-65.1
	c-7.7-16.7-13.1-34.2-15.2-52.5c-0.3-2.3-0.5-4.6-0.6-6.9c-0.5-7.4,4-9.6,8.2-9.9c5.1-0.4,8.8,3.3,9.3,9.2
	c1.7,21,8.1,40.6,17.6,59.3c9.8,19.3,23.2,35.8,39.6,50c16.6,14.3,35.3,24.9,56,31.8c11.5,3.9,23.4,6.3,35.6,7.5
	c10.5,1,21,1,31.5,0.4c11.5-0.7,22.8-3.4,34-6.7c22.3-6.7,42-17.8,59.7-32.8c18.6-15.9,33.1-34.9,43.2-57.1
	c6.7-14.7,11.2-30.1,13.5-46.2c1.2-8,1-16,1.9-23.9c0.5-4.3,3.2-7.4,7.5-7.6c5.7-0.2,9.1,2.3,9.3,7.1c0.6,11-0.3,22-2.2,32.9
	c-3.6,19.9-10,38.8-19.8,56.6c-6.9,12.6-15.2,24.1-24.8,34.9c-12.9,14.5-27.8,26.4-44.5,36.2c-17.1,10-35.3,17.1-54.7,21
	C866,790.5,853.5,792.3,841.5,791.5z"/>
<path class="st1" d="M968.2,769.4c-0.2-2.6,0.8-4.9,2.6-6.6c4.4-4.2,8.9-8.2,13.5-12.1c3.1-2.6,8.7-2,11.4,0.9
	c3.1,3.3,3.3,8.4,0.3,11.7c-4.2,4.7-8.9,8.9-13.7,12.9c-2.8,2.4-6.2,2.7-9.5,1C969.6,775.8,968,773.1,968.2,769.4z"/>
<path class="st2" d="M1021.8,724.3c-5.2,0-8.7-3.3-8.7-8.3c0-5.5,5-11.3,9.8-11.3c5,0,9.4,4.1,9.1,9
	C1031.7,718.4,1027.9,725,1021.8,724.3z"/>
<path class="st3" d="M840.5,828.1c-28.9,0.2-56.9-5.4-83.7-16.5c-20.1-8.3-38.6-19.3-55.4-33.3c-24.1-20.1-43.5-43.9-57.3-72.1
	c-9.7-19.7-16.4-40.4-20-62.1c-1.4-8.8-1.8-17.8-2.5-26.7c-0.6-8.3-0.1-16.5,0.4-24.7c0.8-13.1,3.1-26,6.5-38.7
	c4.4-16.9,10.8-33.1,19-48.6c8.1-15,17.8-28.8,29-41.7c11.8-13.5,25.2-25.2,39.9-35.3c14-9.7,29.2-17.4,45-23.7
	c15.5-6.1,31.6-10.2,48-12.6c13.3-1.9,26.6-2.9,40-2.2c22,1.3,43.5,5.1,64.3,12.5c23.8,8.5,45.6,20.5,65.1,36.4
	c22.7,18.5,41.1,40.7,54.9,66.6c10.8,20.4,18.4,41.9,22.6,64.5c1.9,10.2,2.9,20.6,3.1,31.1c0.1,5.8-0.1,11.6-0.1,17.4
	c-0.3,16-3,31.6-7.1,47c-0.9,3.6-5.6,6.5-9.2,6c-4-0.5-7.5-4.4-7.5-8.3c0-5.8,2.2-11.1,3.1-16.7c1.4-9.2,2.9-18.3,3.3-27.6
	c0.3-6.9,0.2-13.7-0.1-20.5c-0.7-15.2-3.1-30.2-7.5-44.8c-6.2-20.9-15-40.5-27.5-58.5c-9.2-13.3-19.7-25.4-31.7-36.2
	c-25-22.3-53.9-37.5-86.4-45.7c-11.5-2.9-23.2-4.4-35-5.4c-26-2.1-51.3,1.6-75.9,9.5c-20.3,6.5-39.2,16.1-56.3,28.8
	c-23.5,17.5-42.7,38.9-57.1,64.7c-10.7,19.3-17.9,39.8-22.2,61.3c-1.9,9.4-2.5,19-3.2,28.7c-0.6,8,0,15.8,0.4,23.7
	c1.1,18,5.1,35.5,11.4,52.5c5.8,15.8,13,30.8,22.7,44.7c8.2,11.8,17,23,27.5,32.9c23.4,22,50.4,38,81.3,47.3
	c11.3,3.4,22.9,5.6,34.7,7.2c12,1.7,24,1.7,35.9,1.2c14.9-0.7,29.7-3.4,44.1-7.7c10-3,19.8-6.8,29.3-11.1c4.8-2.2,10-0.6,12,3.4
	c2.5,5.1,0.9,9.8-4.6,12.4c-14.7,7.1-30.1,12.2-46.1,15.7c-9.7,2.1-19.6,3.4-29.5,4.4C852.2,828,846.4,827.7,840.5,828.1z"/>
<path class="st4" d="M943.7,459.9c0.2,3.6-1,6.3-4.1,8c-3.2,1.8-6.4,1.7-9.5-0.3c-12.9-8.4-26.8-14.5-41.5-19
	c-10.2-3.1-20.5-5.1-31.1-6.2c-10.2-1.1-20.4-1.2-30.5-0.4c-18.5,1.5-36.3,6-53.3,13.6c-14.1,6.2-27.1,14.1-38.9,23.9
	c-15.7,13.1-28.9,28.4-39,46.3c-8.5,15.1-14.5,31.1-18.4,48c-0.4,1.8-0.7,3.6-0.9,5.5c-0.8,5.3-5.2,9.1-9.7,8.3
	c-5.4-1-8.7-5.9-7.7-11.3c3.6-19.5,10-38.1,19.4-55.6c6.6-12.4,14.7-23.8,23.9-34.3c17.1-19.5,37.5-34.5,60.9-45.4
	c15.2-7.1,31.2-11.8,47.8-14.6c8.5-1.4,17-1.9,25.6-2.1c33.4-1.1,64.5,7.2,93.7,22.9c3.4,1.9,6.7,4.1,10,6.3
	C942.7,454.9,944,457.1,943.7,459.9z"/>
<path class="st5" d="M988.5,529.8c0.1-4.6,2.6-7.9,6.2-8.8c4.7-1.1,8.2,0.3,10.2,4.2c5.8,11.2,10.3,23,13.4,35.2
	c1.2,4.8-1.5,9.5-6.2,10.8c-4.5,1.3-9.3-1.3-10.6-6c-3.2-11.1-7.2-22-12.4-32.3C988.6,531.7,988.5,530.4,988.5,529.8z"/>
<path class="st6" d="M971.7,500c-5,0-10.5-5.1-10.5-9.9c0-5,4.1-9.1,8.9-9c5.2,0.1,10,5,10,10.2C980.1,496.8,977.1,500,971.7,500z"
	/>
<g>
	<g>
		<path class="st7" d="M845.3,342.4c0.1-8.6,0.2-17.2,0.3-25.7"/>
		<path class="st7" d="M931.1,353.8c2.8-8.2,5.6-16.4,8.4-24.7"/>
		<path class="st7" d="M1000.9,383.5c5-7.3,10-14.6,15-21.9"/>
		<path class="st7" d="M1055.6,428.2c6.7-5.9,13.5-11.8,20.2-17.6"/>
		<path class="st7" d="M1094.3,744.6c23.7,12.2,47.4,24.5,71.2,36.7"/>
		<path class="st7" d="M1055.4,800.1c20.1,17.5,40.2,34.9,60.2,52.4"/>
		<path class="st7" d="M1000.8,844.8c14.9,21.7,29.9,43.3,44.8,65"/>
		<path class="st7" d="M930.6,874.6c0.5,1.5,0.8,2.2,1.3,3.7"/>
		<path class="st7" d="M1094.4,483.8c31.9-16.4,63.7-32.9,95.6-49.3"/>
		<path class="st7" d="M1117.9,547.1c34.8-8.5,69.6-16.9,104.5-25.4"/>
		<path class="st7" d="M1125.7,614.5c39.4,0,78.8,0.1,118.2,0.1"/>
		<path class="st7" d="M1117.7,681.6c38.3,9.4,76.6,18.7,114.9,28"/>
		<path class="st7" d="M845.3,885.8c0,1.5,0.1,2.3,0.1,3.8"/>
	</g>
</g>
<path class="st2" d="M1060.6,1184.8c-0.1,120.9-98,219.3-219.5,219.4c-121.7,0.1-220.6-98.8-219.6-221.3
	c0.9-120,98.3-217.8,219.7-217.8C962.7,965,1060.7,1063.6,1060.6,1184.8z"/>
<path d="M1043.7,1184.7c-0.1,111.4-90.2,202.5-202.8,202.5c-112.6,0-203.3-91.6-202.6-204c0.7-110.7,90.5-201.4,202.9-201.3
	C953.8,982,1043.8,1073.2,1043.7,1184.7z"/>
<path class="st4" d="M842.7,1369c-91.3-0.2-167.8-64.3-183.3-152.5c-17-96.9,44.9-189.9,141-211.8c5.8-1.3,10.3,1.2,11.4,6.3
	c1.1,4.8-2,8.9-7.8,10.2c-33.4,7.7-62,23.9-85.3,48.9c-24.8,26.5-39.7,57.9-43.8,93.9c-6.5,56.6,11.6,104.8,52.8,143.8
	c24.5,23.2,54.1,37,87.6,42.2c35.6,5.5,69.5,0,101.7-16.2c3.3-1.7,6.7-2.3,9.9,0.1c2.7,2,3.8,4.7,3.4,8c-0.4,3.4-2.6,5.4-5.4,6.8
	c-16.2,8.3-33.2,14.1-51,17.3C863.1,1368,852.1,1369.1,842.7,1369z"/>
<path class="st8" d="M850.5,1000.3c62.4,5,111.5,32.9,146.2,85.4c2.9,4.4,3,8,0.7,11c-4,5.1-10.8,4.6-14.3-1.1
	c-6.8-10.9-14.8-20.8-23.9-29.8c-24.5-24.2-53.7-39.4-87.6-45.9c-7.5-1.4-15.1-1.8-22.7-2.7c-5.3-0.6-8.3-4.3-7.9-9.3
	C841.4,1003.4,845.4,1000.2,850.5,1000.3z"/>
<path class="st0" d="M1025.4,1189.6c-1.7,41.3-15.1,78.3-40.8,110.7c-5.6,7.1-11.9,13.6-18.5,19.7c-3.1,2.9-7.1,3.5-10.3,1.8
	c-3.2-1.7-4.9-5.2-4.3-8.9c0.4-2.6,2.2-4.4,4-6c15.3-14.3,27.6-30.9,36.6-49.9c10.7-22.5,16.5-46.2,16.5-71.2c0-5.7,3.4-9.6,8.4-9.7
	c5-0.1,8.5,3.9,8.5,9.5C1025.4,1187,1025.4,1188.3,1025.4,1189.6z"/>
<path class="st9" d="M1021.6,1147.6c0.1,4.4-3,8-7.1,8.7c-3.9,0.7-8.3-1.8-9.4-5.7c-1.5-5.2-2.8-10.4-4-15.6
	c-0.9-3.7,1.7-7.9,5.4-9.2c4-1.5,8.8,0.2,10.4,4.1C1019.3,1135.7,1020.5,1141.8,1021.6,1147.6z"/>
<g>
	<g>
		<path class="st7" d="M845.6,890.2c0-1.8,0-2.7,0-4.5"/>
		<path class="st7" d="M760.1,900.5c-0.5-1.7-0.8-2.6-1.3-4.4"/>
		<path class="st7" d="M688.3,928.2c-0.4-0.7-0.7-1.1-1.1-1.8"/>
		<path class="st7" d="M631.4,969.8c-0.6-0.6-0.9-0.9-1.5-1.5"/>
		<path class="st7" d="M588.5,1022.5c-0.7-0.5-1.1-0.7-1.8-1.2"/>
		<path class="st7" d="M560,1082.5c-0.7-0.3-1-0.4-1.7-0.6"/>
		<path class="st7" d="M545.5,1147.5c-0.7-0.1-1.1-0.1-1.8-0.2"/>
		<path class="st7" d="M545.2,1214.3c-0.7,0.1-1.1,0.1-1.8,0.2"/>
		<path class="st7" d="M559.5,1279.6c-1,0.3-1.4,0.5-2.4,0.8"/>
		<path class="st7" d="M587.9,1340.6c-0.9,0.5-1.3,0.8-2.2,1.3"/>
		<path class="st7" d="M630.7,1393.7c-0.7,0.7-1.1,1-1.8,1.7"/>
		<path class="st7" d="M687.9,1435.9c-0.5,0.8-0.8,1.2-1.4,2.1"/>
		<path class="st7" d="M759.5,1463.8c-0.3,0.9-0.5,1.4-0.8,2.3"/>
		<path class="st7" d="M759.6,1463.8c-0.3,0.9-0.5,1.4-0.8,2.3"/>
		<path class="st7" d="M845.6,1474.3c0,1,0,1.4-0.1,2.4"/>
	</g>
</g>
<path class="st10" d="M843.8,1630.3c74-0.2,135.1,60.3,135.2,133.9c0.2,75.7-60.1,136.5-135.2,136.4c-74.2-0.1-134.9-60.4-135.1-134
	C708.7,1690.9,768.6,1630.4,843.8,1630.3z"/>
<path class="st2" d="M1062.9,1771.4c-0.1,121.2-98.1,219.6-219.7,219.5c-121.6-0.1-220.5-99-219.4-221.5
	c1-119.8,98.2-217.5,219.5-217.6C964.8,1551.7,1062.9,1650.2,1062.9,1771.4z"/>
<path d="M640.6,1771.2c0.1-111.4,90.3-202.5,202.8-202.5c112.6,0,203.5,91.7,202.6,204.4c-0.9,110.5-90.6,201-202.9,200.9
	C730.6,1973.8,640.5,1882.6,640.6,1771.2z"/>
<path class="st4" d="M658.6,1771.1c3.2-72.4,35-127.7,99.2-163.1c22.8-12.6,47.5-19,73.5-20.6c49-2.9,92.4,11.5,130.4,42.5
	c1.2,1,2.3,2,3.3,3.1c3.2,3.6,3.2,8.1,0,11.4c-2.9,3.2-7.8,3.5-11.5,0.7c-3.8-2.9-7.4-6.1-11.3-9c-24.6-18-52-28.7-82.3-31.6
	c-88.5-8.6-164.3,51.3-180.8,133c-15.8,78.3,24.2,155.1,97.4,187.3c21.9,9.7,44.9,13.8,68.7,13.8c1.8,0,3.5-0.1,5.3,0.2
	c3.8,0.7,6.6,4.2,6.7,8c0.1,3.8-2.6,7.1-6.4,8.2c-2,0.6-4,0.4-5.9,0.4c-35.1,0.2-67.9-8.4-97.6-26.9
	c-48.3-30.2-77.1-73.8-86.4-130.1c-0.5-3.1-1-6.3-1.2-9.4C659.2,1783.2,658.7,1777.3,658.6,1771.1z"/>
<path class="st0" d="M1027.7,1777.4c-1.7,40.8-15.3,78.1-41.7,110.6c-22.5,27.6-50.8,46.9-84.5,58.3c-5.4,1.8-9.8,0.5-11.9-3.6
	c-2.5-4.9-0.1-10.2,5.7-12.2c9-3.1,17.8-6.5,26.2-11.1c48-26.4,76.9-66.7,87-120.4c1.6-8.7,2.4-17.6,2.3-26.6c0-5.7,3.6-9.6,8.5-9.5
	c5,0.1,8.3,4,8.3,9.7C1027.7,1773.9,1027.7,1775.2,1027.7,1777.4z"/>
<path class="st6" d="M990.5,1667.1c7-0.1,16,13.6,13.1,20c-2.5,5.6-10.6,6.7-14.3,1.7c-2.4-3.2-4.5-6.6-6.1-10.2
	C980.7,1673.3,984.8,1667.2,990.5,1667.1z"/>
<path class="st9" d="M1021.6,1725.4c-0.1,4.7-3,8.1-6.8,8.7c-4.2,0.6-8.1-1.5-9.5-5.5c-0.8-2.2-1.4-4.5-1.9-6.7
	c-1-4.2,1.3-8.3,5.3-9.8c3.8-1.4,8.4,0.1,10.2,3.8C1020.4,1719,1021.3,1722.4,1021.6,1725.4z"/>
<g>
	<g>
		<path class="st7" d="M845.5,2064.9c0,0.9,0,1.4,0.1,2.3"/>
		<path class="st7" d="M928.7,2055.8c0.3,0.9,0.4,1.3,0.7,2.2"/>
		<path class="st7" d="M999,2031.5c0.5,0.8,0.8,1.2,1.3,2"/>
		<path class="st7" d="M1056.6,1994.5c0.7,0.7,1,1.1,1.7,1.8"/>
		<path class="st7" d="M1101.4,1947.4c0.8,0.5,1.2,0.8,2.1,1.4"/>
		<path class="st7" d="M1133.4,1892.7c0.9,0.4,1.4,0.6,2.3,0.9"/>
		<path class="st7" d="M1152.6,1833c1,0.2,1.5,0.3,2.5,0.5"/>
		<path class="st7" d="M1159,1770.7c1,0,1.5,0,2.5,0"/>
		<path class="st7" d="M1152.6,1708.4c1-0.2,1.5-0.3,2.5-0.5"/>
		<path class="st7" d="M1133.4,1648.6c0.9-0.4,1.4-0.6,2.3-1"/>
		<path class="st7" d="M1101.4,1593.9c0.8-0.6,1.2-0.9,2-1.4"/>
		<path class="st7" d="M1056.7,1546.8c0.7-0.7,1-1.1,1.7-1.8"/>
		<path class="st7" d="M999.1,1509.9c0.5-0.8,0.7-1.2,1.2-2.1"/>
		<path class="st7" d="M928.7,1485.5c0.3-0.9,0.4-1.4,0.6-2.3"/>
		<path class="st7" d="M845.5,1476.4c0-0.9,0-1.4,0-2.3"/>
	</g>
</g>
</svg>
