<!-- Generator: Adobe Illustrator 24.2.1, SVG Export Plug-In  -->
<svg version="1.1" xmlns="http://www.w3.org/2000/svg" xmlns:xlink="http://www.w3.org/1999/xlink" x="0px" y="0px"
	 width="2240.1px" height="745px" viewBox="0 0 2240.1 745" style="overflow:visible;enable-background:new 0 0 2240.1 745;"
	 xml:space="preserve">
<style type="text/css">
	.st0{fill:none;stroke:#000000;stroke-miterlimit:10;}
	.st1{fill:#D84A72;}
	.st2{fill:#DB6E8F;}
	.st3{fill:#BF889C;}
	.st4{fill:#E5B7CD;}
	.st5{fill:#CE95AE;}
	.st6{fill:#CE3257;}
	.st7{fill:#B2203C;}
	.st8{fill:#991428;}
	.st9{fill:none;stroke:#000000;stroke-linecap:square;stroke-linejoin:round;stroke-miterlimit:10;}
	.st10{fill:none;stroke:#000000;stroke-linecap:round;stroke-miterlimit:10;}
	.st11{fill:none;stroke:#FFFFFF;stroke-width:2;stroke-miterlimit:10;}
	.st12{fill:none;stroke:#FFFFFF;stroke-width:0.25;stroke-linecap:square;stroke-linejoin:round;stroke-miterlimit:10;}
	.st13{fill:none;stroke:#FFFFFF;stroke-width:0.25;stroke-linecap:round;stroke-miterlimit:10;}
	.st14{fill:none;stroke:#FFFFFF;stroke-width:0.25;stroke-miterlimit:10;}
	.st15{fill:#E6E6E6;}
	.st16{fill:#F2F2F2;}
	.st17{fill:#666666;}
	.st18{fill:#B3B3B3;}
	.st19{fill:#FFFFFF;}
	.st20{fill:#FFFFFF;stroke:#999999;stroke-miterlimit:10;}
	.st21{fill:none;stroke:#F2F2F2;stroke-miterlimit:10;}
	.st22{fill:none;}
	.st23{font-family:'MyriadPro-Regular';}
	.st24{font-size:30.3503px;}
</style>
<defs>
</defs>
<line class="st0" x1="988.3" y1="475.1" x2="1269.9" y2="346.5"/>
<g id="XMLID_2_">
	<g>
		<path class="st1" d="M2084.7,624.9l-12.7,82.1h-0.1L1870.2,65.6c59-18.1,120.4-27.7,186.4-29.2c40.1-0.9,79.3,1.6,117.3,7.1
			l0.4,0.7L2084.7,624.9z"/>
		<path class="st2" d="M2100.2,681.1l-28,25.9h-0.1l12.7-82.1c25,2.1,36.9,11,49.1,24.9l0,0.3L2100.2,681.1z"/>
		<path class="st3" d="M2091.2,702.2l-18.6,4.8h-0.3l28-25.9c4.1,4.6,7.1,10.2,8.5,16.5l-0.1,0L2091.2,702.2z"/>
		<path class="st4" d="M2107.2,721.4L2107.2,721.4c-6,13.6-19.7,23.1-35.6,23.1c-20.1,0-36.7-17.9-38.8-37.4v-0.3l38.8,0.2l0.6,0.4
			l-0.2-0.3l19,7.7L2107.2,721.4z"/>
		<path class="st5" d="M2091,714.8l-19-7.7l0,0l0.5-0.1l18.6-4.8c0.3,0.8,0.5,1.6,0.7,2.5c0.6,3.3,0.4,6.5-0.5,9.5L2091,714.8z"/>
		<path class="st6" d="M1750.9,258.8l-109.6-153l0.3-0.3c43.6-31.2,90.7-57.7,140.8-78.6c21.8-10,44.1-18.8,67-26.4l0.4,0.4
			l20.4,64.8L2072,707l0,0L1750.9,258.8z"/>
		<path class="st7" d="M1815.7,518.9l-181.2-133.2c32.2-48.8,73-92.3,116.5-126.9L2072,707h-0.3L1815.7,518.9z"/>
		<path class="st8" d="M2071.7,707l-38.8-0.2l-278.9-1.7l-0.9,0c1-70.1,23.3-134.1,62.6-186.2L2071.7,707z"/>
	</g>
	<g>
		<polyline class="st9" points="2072,707.1 2072,707 1750.9,258.8 1641.3,105.8 		"/>
		<line class="st9" x1="2072.1" y1="707.1" x2="2072" y2="707.1"/>
		<polyline class="st9" points="1634.3,385.6 1634.4,385.7 1815.7,518.9 2071.7,707 2072.3,707.4 2072.1,707.1 		"/>
		<polyline class="st9" points="2072,707.1 2072,707.1 2072.1,707 2084.7,624.9 2174.4,44.2 		"/>
		<polyline class="st9" points="1849.8,0.9 1870.2,65.6 2072,707 2072,707.1 2072,707.1 		"/>
		<polyline class="st9" points="2072.1,707.1 2072.5,707 2091.2,702.2 2108.6,697.6 		"/>
		<polyline class="st9" points="2133.8,650 2100.2,681.1 2072.2,707 2072.1,707.1 2072.1,707.1 		"/>
		<polyline class="st9" points="2107.2,721.4 2091,714.8 2072.1,707.1 2072.1,707.1 2072,707.1 		"/>
		<polyline class="st10" points="1754,705.1 2032.9,706.8 2071.7,707 2072,707 2072,707 2072.1,707 2072.2,707 2072.5,707 
			2072.6,707 		"/>
		<path class="st0" d="M1753,709.9c0-1.6,0-3.2,0-4.8c1-70.1,23.3-134.1,62.6-186.2c0-0.1,0.1-0.1,0.1-0.2"/>
		<path class="st0" d="M2084.4,624.8c0.1,0,0.2,0,0.4,0c25,2.1,36.9,11,49.1,24.9"/>
		<path class="st0" d="M2107.4,721.3c0,0.1,0,0.1-0.1,0.2c-6.1,13.6-19.7,23.1-35.6,23.1c-20.1,0-36.7-17.9-38.8-37.4"/>
		<path class="st0" d="M2099.6,680.5c0.2,0.2,0.4,0.4,0.6,0.6c4.1,4.6,7.1,10.2,8.5,16.5c0.1,0.2,0.1,0.4,0.1,0.6"/>
		<path class="st0" d="M2091.1,702.1C2091.1,702.1,2091.1,702.1,2091.1,702.1c0.3,0.8,0.5,1.7,0.7,2.5c0.6,3.3,0.4,6.5-0.5,9.5"/>
		<path class="st0" d="M1634.4,385.8C1634.4,385.7,1634.4,385.7,1634.4,385.8c32.2-48.9,73.1-92.3,116.5-126.9
			c0.1-0.1,0.1-0.1,0.2-0.2"/>
		<path class="st0" d="M1870,65.7c0.1,0,0.1,0,0.2-0.1c59-18.1,120.4-27.7,186.4-29.2c40.1-0.9,79.3,1.6,117.3,7.1"/>
		<path class="st0" d="M1782.4,26.8c21.8-10,44.1-18.8,67-26.4"/>
		<path class="st0" d="M1641.6,105.5c43.6-31.2,90.7-57.7,140.8-78.6"/>
	</g>
</g>
<circle class="st11" cx="1156.1" cy="334.8" r="268"/>
<g id="XMLID_1_">
	<g>
		<path class="st1" d="M1169.2,339.8l-2.2,14.6h0l-35.7-113.6c10.4-3.1,21.5-5,33-5.2c7.1-0.2,14.1,0.3,20.8,1.3l0.1,0.1
			L1169.2,339.8z"/>
		<path class="st2" d="M1171.9,349.8l-5,4.6h0l2.2-14.6c4.4,0.4,6.5,2,8.7,4.4l0,0.1L1171.9,349.8z"/>
		<path class="st3" d="M1170.3,353.5l-3.3,0.9h-0.1l5-4.6c0.7,0.8,1.3,1.8,1.5,2.9l0,0L1170.3,353.5z"/>
		<path class="st4" d="M1173.2,356.9L1173.2,356.9c-1.1,2.4-3.5,4.1-6.3,4.1c-3.6,0-6.5-3.2-6.9-6.6v-0.1l6.9,0l0.1,0.1l0-0.1
			l3.4,1.4L1173.2,356.9z"/>
		<path class="st5" d="M1167,354.4l3.3-0.9c0,0.1,0.1,0.3,0.1,0.4c0.1,0.6,0.1,1.2-0.1,1.7l-0.1,0.1L1167,354.4L1167,354.4
			L1167,354.4z"/>
		<path class="st6" d="M1110,275l-19.4-27.1l0-0.1c7.7-5.5,16.1-10.2,24.9-13.9c3.9-1.8,7.8-3.3,11.9-4.7l0.1,0.1l3.6,11.5
			l35.7,113.6l0,0L1110,275z"/>
		<path class="st7" d="M1121.5,321l-32.1-23.6c5.7-8.6,12.9-16.4,20.6-22.5l56.9,79.4h-0.1L1121.5,321z"/>
		<path class="st8" d="M1166.8,354.4l-6.9,0l-49.3-0.3c0.1-12.4,4-23.7,10.8-33L1166.8,354.4z"/>
	</g>
	<g>
		<polyline class="st12" points="1166.9,354.4 1166.9,354.4 1110,275 1090.6,247.8 		"/>
		<line class="st12" x1="1166.9" y1="354.4" x2="1166.9" y2="354.4"/>
		<polyline class="st12" points="1089.3,297.4 1089.4,297.4 1121.5,321 1166.8,354.4 1167,354.5 1166.9,354.4 		"/>
		<polyline class="st12" points="1166.9,354.4 1166.9,354.4 1166.9,354.4 1169.2,339.8 1185.1,236.9 		"/>
		<polyline class="st12" points="1127.5,229.2 1131.2,240.8 1166.9,354.4 1166.9,354.4 1166.9,354.4 		"/>
		<polyline class="st12" points="1166.9,354.4 1167,354.4 1170.3,353.5 1173.4,352.7 		"/>
		<polyline class="st12" points="1177.9,344.3 1171.9,349.8 1166.9,354.4 1166.9,354.4 1166.9,354.4 		"/>
		<polyline class="st12" points="1173.2,356.9 1170.3,355.8 1166.9,354.4 1166.9,354.4 1166.9,354.4 		"/>
		<polyline class="st13" points="1110.5,354 1110.6,354 1160,354.3 1166.8,354.4 1166.9,354.4 1166.9,354.4 1166.9,354.4 
			1166.9,354.4 1167,354.4 1167,354.4 		"/>
		<path class="st14" d="M1110.6,354.5c0-0.1,0-0.3,0-0.4c0.1-12.4,4-23.7,10.8-33c0.1-0.1,0.2-0.3,0.3-0.4"/>
		<path class="st14" d="M1169.1,339.8C1169.1,339.8,1169.1,339.8,1169.1,339.8c4.5,0.4,6.6,2,8.8,4.4"/>
		<path class="st14" d="M1173.2,356.9C1173.2,356.9,1173.2,356.9,1173.2,356.9c-1.1,2.4-3.5,4.1-6.3,4.1c-3.6,0-6.5-3.2-6.9-6.6"/>
		<path class="st14" d="M1171.8,349.7c0,0,0.1,0.1,0.1,0.1c0.7,0.8,1.3,1.8,1.5,2.9c0,0,0,0.1,0,0.1"/>
		<path class="st14" d="M1170.3,353.5C1170.3,353.5,1170.3,353.5,1170.3,353.5c0.1,0.2,0.1,0.3,0.1,0.4c0.1,0.6,0.1,1.2-0.1,1.7"/>
		<path class="st14" d="M1089.4,297.5C1089.4,297.4,1089.4,297.4,1089.4,297.5c5.7-8.7,13-16.4,20.7-22.5c0,0,0,0,0,0"/>
		<path class="st14" d="M1130.8,240.9c0.1,0,0.3-0.1,0.4-0.1c10.4-3.1,21.5-5,33-5.2c7.1-0.2,14.1,0.3,20.8,1.3"/>
		<path class="st14" d="M1115.6,233.8c3.9-1.8,7.8-3.3,11.9-4.7"/>
		<path class="st14" d="M1090.6,247.8c7.7-5.5,16.1-10.2,24.9-13.9"/>
	</g>
</g>
<g>
	<g>
		<path class="st15" d="M575.2,195.5c-1-0.2-1.6-1-2.2-1.9c-0.1-0.2-0.2-0.3-0.4-0.5c-6.4-8.5-14.3-18.4-23.4-27.2
			c-1-1-2.1-2-2.6-3.4c1.6-2.7,4-4.9,6.3-7c0.5-0.5,1-0.9,1.5-1.4c12.8,13.1,22,23.9,29.7,34.9C582.3,191.8,579.5,193.9,575.2,195.5
			z"/>
		<path class="st16" d="M554.5,154.8c12.5,12.8,21.5,23.4,29.1,34.2c-1.8,2.6-4.5,4.5-8.4,6c-0.7-0.2-1.1-0.8-1.8-1.6
			c-0.1-0.2-0.2-0.3-0.4-0.5c-6.4-8.5-14.3-18.5-23.5-27.3c-0.9-0.9-1.9-1.8-2.4-3c1.6-2.6,3.8-4.6,6.1-6.7
			C553.7,155.5,554.1,155.1,554.5,154.8 M554.5,153.4c-3,2.8-6.3,5.4-8.4,9c0.4,1.6,1.6,2.8,2.8,3.9c8.7,8.3,16.2,17.6,23.4,27.2
			c0.8,1.1,1.5,2.3,3,2.6c3.8-1.5,7.3-3.5,9.6-7C575.9,176.1,565.5,164.5,554.5,153.4L554.5,153.4z"/>
	</g>
	<g>
		<path class="st17" d="M151.1,162.7c-2.5-1.5-4.4-3.6-6.4-5.7c-0.7-0.7-1.4-1.5-2.1-2.2c7.3-7.1,16.9-16.1,27.4-24.1
			c1.8-1.4,3.6-2.7,5.4-4c0.7-0.5,1.5-1.1,2.2-1.6c2.9,2.1,5,5.1,6.4,9c-1.1,2-2.8,3.2-4.7,4.5c-0.7,0.5-1.5,1-2.1,1.6
			c-7.2,5.8-15.4,12.4-22.5,19.9c-0.2,0.2-0.4,0.4-0.6,0.6C153.3,161.5,152.5,162.4,151.1,162.7z"/>
		<path class="st16" d="M177.7,125.6c2.6,2,4.6,4.7,5.9,8.3c-1,1.7-2.7,2.9-4.4,4.1c-0.7,0.5-1.5,1-2.2,1.6
			c-7.2,5.8-15.4,12.4-22.6,19.9c-0.2,0.2-0.4,0.4-0.6,0.6c-0.8,0.9-1.5,1.7-2.6,2c-2.3-1.4-4.2-3.4-6.1-5.5
			c-0.6-0.6-1.1-1.2-1.7-1.8c7.2-7,16.7-15.8,27-23.7c1.8-1.4,3.6-2.7,5.4-4C176.4,126.6,177,126.1,177.7,125.6 M177.7,124.4
			c-2.6,2-5.3,3.9-7.9,5.9c-9.8,7.5-18.9,15.9-27.8,24.5c2.9,2.9,5.4,6.3,9.1,8.4c1.9-0.2,2.9-1.7,4.1-3
			c6.9-7.3,14.7-13.6,22.5-19.8c2.5-2,5.5-3.4,7.1-6.4C183.3,130.1,181.1,126.8,177.7,124.4L177.7,124.4z"/>
	</g>
	<g>
		<path class="st18" d="M625.6,450.8c-1.5-0.7-3.2-1.2-4.7-1.7c-2-0.6-4.1-1.3-5.9-2.4c0-2.4,0.8-4.6,1.6-7c0.4-1.1,0.8-2.2,1.1-3.3
			c2.9-10.7,5.2-21.3,6.9-31.5c0-0.2,0.1-0.4,0.1-0.6c0.1-1,0.2-1.6,0.9-1.9c2.1,1.6,4.6,2.1,7,2.5l0.2,0c0.3,0,0.6,0.1,0.9,0.1
			c1.1,0.1,2.1,0.3,2.8,1c-1.4,11.4-4.3,22.7-7.2,33.4c-0.8,2.8-1.7,5.6-2.6,8.4C626.2,448.7,625.9,449.7,625.6,450.8z"/>
		<path class="st16" d="M625.5,402.9c2.1,1.5,4.6,2,7,2.3l0.2,0c0.3,0,0.6,0.1,0.9,0.1c0.9,0.1,1.7,0.2,2.4,0.7
			c-1.4,11.3-4.3,22.5-7.2,33c-0.8,2.8-1.7,5.6-2.6,8.4c-0.3,0.9-0.6,1.8-0.9,2.7c-1.4-0.6-2.9-1.1-4.3-1.5c-2-0.6-3.9-1.2-5.6-2.2
			c0.1-2.2,0.8-4.3,1.6-6.5c0.4-1.1,0.8-2.2,1.1-3.3c2.9-10.7,5.3-21.3,6.9-31.6c0-0.2,0.1-0.4,0.1-0.7
			C625.1,403.5,625.2,403.1,625.5,402.9 M625.6,401.7c-1.5,0.5-1.4,1.9-1.6,3.1c-1.7,10.6-4,21.1-6.9,31.5c-1,3.5-2.8,6.9-2.7,10.7
			c3.5,2.3,7.8,2.7,11.5,4.6c1.3-4.1,2.7-8.1,3.8-12.2c3-11.1,5.9-22.2,7.3-33.7c-1.1-1.2-2.7-1.1-4.1-1.4
			C630.2,403.8,627.6,403.4,625.6,401.7L625.6,401.7z"/>
	</g>
	<g>
		<path class="st19" d="M177.8,595.4c-0.2,0-0.5-0.1-0.7-0.2c-14.5-10.7-25-19.7-33.9-29.3c2.4-3.7,4.8-6,7.8-7.4
			c1.6,0.1,2.8,1.2,3.9,2.4c7.3,7.5,15.8,14.8,27.6,23.7c0.9,0.6,1.6,1.2,1.7,2.2c-0.6,2.5-2.2,4.4-3.9,6.3
			c-0.5,0.6-1.1,1.2-1.6,1.9C178.5,595.1,178.2,595.4,177.8,595.4z"/>
		<path class="st16" d="M151,559c1.4,0.2,2.5,1.1,3.5,2.2c7.3,7.5,15.8,14.9,27.7,23.8c0.8,0.6,1.3,1,1.5,1.7
			c-0.6,2.4-2.1,4.1-3.8,6c-0.5,0.6-1.1,1.2-1.6,1.9c-0.1,0.1-0.3,0.3-0.6,0.3c-0.1,0-0.3,0-0.4-0.1c-14.3-10.6-24.7-19.5-33.5-28.9
			C146.1,562.5,148.3,560.3,151,559 M150.9,558c-3.7,1.7-6.2,4.7-8.3,8c10.3,11.1,22.1,20.7,34.3,29.7c0.3,0.2,0.6,0.3,1,0.3
			c0.5,0,1-0.3,1.4-0.7c2.1-2.7,4.8-5,5.6-8.5c-0.1-1.2-1-1.9-1.9-2.6c-9.7-7.3-19.1-14.9-27.5-23.6
			C154,559.2,152.7,558.1,150.9,558L150.9,558z"/>
	</g>
	<g>
		<path class="st19" d="M555.2,565.4c-3.9-0.6-5.9-3.4-8-7c0.3-2,1.7-3.4,3.1-4.8c8.6-8.3,16-17.7,22.8-26.7l0.2-0.2
			c0.6-0.8,1.1-1.4,1.9-1.6c4.2,1.5,7.1,3.6,9.1,6.5C574.1,545.6,564.9,556.4,555.2,565.4z"/>
		<path class="st16" d="M575.1,525.6c3.9,1.4,6.6,3.3,8.5,6c-9.9,13.7-19,24.3-28.6,33.3c-3.5-0.7-5.3-3.3-7.3-6.6
			c0.4-1.7,1.6-3,2.9-4.3c8.6-8.3,16-17.8,22.9-26.8l0.2-0.2C574.2,526.3,574.6,525.8,575.1,525.6 M575.2,524.6
			c-1.2,0.2-1.8,1.2-2.5,2.1c-7.1,9.3-14.3,18.5-22.8,26.6c-1.5,1.4-2.9,3-3.3,5.2c2,3.5,4.2,6.8,8.7,7.5
			c11.1-10.4,20.6-22,29.5-34.3C582.5,528,579.1,526,575.2,524.6L575.2,524.6z"/>
	</g>
	<g>
		<path class="st15" d="M82.7,274c-3.6-0.7-7.3-1.6-10.6-3.7c3.9-12,9-24.6,15.5-38.5c0.4-0.8,0.9-1.6,1.4-2.3
			c0.2-0.3,0.4-0.6,0.5-0.9c0.1,0,0.2,0,0.3,0c3.6,0,6.6,1.6,9.6,4.9c-0.4,2.6-1.6,5-2.8,7.4c-0.4,0.8-0.9,1.7-1.2,2.5
			c-3.9,8.5-7.4,17.3-10.7,26.9c-0.1,0.3-0.2,0.6-0.3,0.9C84.1,272.5,83.8,273.5,82.7,274z"/>
		<path class="st16" d="M89.8,229.2c3.3,0,6.2,1.5,9.1,4.6c-0.4,2.5-1.5,4.7-2.7,7c-0.4,0.8-0.9,1.7-1.3,2.5
			c-3.9,8.5-7.5,17.4-10.7,27c-0.1,0.3-0.2,0.6-0.3,0.9c-0.3,1.1-0.6,1.9-1.3,2.3c-3.4-0.7-6.8-1.6-9.9-3.4
			c3.9-11.8,8.9-24.3,15.4-38c0.4-0.8,0.8-1.5,1.3-2.2C89.5,229.6,89.7,229.4,89.8,229.2 M89.8,228.2c-0.2,0-0.4,0-0.5,0
			c-0.7,1.1-1.5,2.2-2.1,3.4c-6,12.7-11.4,25.6-15.7,38.9c3.4,2.2,7.3,3.2,11.2,4c1.8-0.7,1.9-2.5,2.4-4c3.1-9.1,6.6-18.1,10.7-26.9
			c1.5-3.3,3.7-6.5,4.1-10.2C97.2,230.3,94,228.2,89.8,228.2L89.8,228.2z"/>
	</g>
	<g>
		<path class="st19" d="M303.4,647.6c-11-1.2-21.6-4-33.3-7.1c-2.8-0.8-5.7-1.7-8.4-2.6c-1.1-0.4-2.2-0.7-3.3-1
			c0.8-1.6,1.3-3.2,1.8-4.9c0.6-2,1.3-4,2.4-5.8c0.1,0,0.1,0,0.2,0c2.1,0,4,0.7,6.1,1.4c0.9,0.3,1.9,0.7,2.9,1
			c10.2,2.8,19.7,5,29.2,6.6l0.5,0.1c1.3,0.2,2.6,0.4,3.6,1.3C305.7,640.1,305.2,643.6,303.4,647.6z"/>
		<path class="st16" d="M262.9,626.7c2,0,3.9,0.7,5.8,1.4c1,0.3,1.9,0.7,2.9,1c10.2,2.8,19.7,5,29.2,6.6l0.5,0.1
			c1.2,0.2,2.3,0.4,3.2,1.1c0.6,3.2,0.1,6.5-1.5,10.2c-10.8-1.2-21.3-3.9-32.9-7.1c-2.8-0.8-5.6-1.7-8.4-2.6
			c-0.9-0.3-1.8-0.6-2.7-0.9c0.7-1.4,1.1-2.9,1.6-4.4C261.3,630.2,261.9,628.4,262.9,626.7 M262.8,625.7c-0.2,0-0.3,0-0.5,0
			c-2.3,3.5-2.6,7.8-4.6,11.5c4.1,1.3,8.1,2.7,12.2,3.8c11.1,3,22.3,5.9,33.8,7.2c1.7-3.8,2.6-7.7,1.8-11.8
			c-1.2-1.2-2.9-1.3-4.4-1.6c-9.8-1.7-19.5-3.9-29.2-6.6C268.9,627.3,266,625.7,262.8,625.7L262.8,625.7z"/>
	</g>
	<g>
		<path class="st17" d="M475.6,110.7c-2.6-0.4-5-1.6-7.3-2.8c-0.8-0.4-1.7-0.9-2.5-1.2c-8.4-3.9-17.5-7.5-26.9-10.7
			c-0.3-0.1-0.6-0.2-0.9-0.3c-1.2-0.3-2.2-0.6-2.7-1.7c0.8-3.9,1.7-7.5,3.7-10.5c16.7,5.4,29.9,11,41.6,17.4
			C480.8,105,478.3,107.7,475.6,110.7L475.6,110.7z"/>
		<path class="st16" d="M439.2,84.1c16.4,5.4,29.4,10.8,40.9,17.1c0,3.7-2.3,6.3-4.7,9c-2.4-0.4-4.6-1.5-6.9-2.7
			c-0.8-0.4-1.7-0.9-2.5-1.3c-8.4-3.9-17.5-7.5-26.9-10.7c-0.3-0.1-0.6-0.2-0.9-0.3c-1.1-0.3-1.9-0.6-2.3-1.3
			C436.6,90.3,437.4,87,439.2,84.1 M438.8,82.9c-2.4,3.4-3.2,7.3-4,11.2c0.7,1.8,2.5,1.9,4,2.4c9.1,3.1,18.1,6.6,26.8,10.7
			c3.3,1.5,6.5,3.7,10.2,4.1c2.8-3.1,5.6-6.1,5.3-10.7C467.6,93.2,453.4,87.7,438.8,82.9L438.8,82.9z"/>
	</g>
	<g>
		<path class="st19" d="M438.9,637.1c-2-3.3-2.9-7-3.7-10.5c0.3-0.9,1.2-1.2,2.2-1.5l0.3-0.1c13.4-4.3,25.9-10,35.4-14.5
			c0.7-0.3,1.5-0.7,2.3-0.7c0,0,0.1,0,0.1,0c2.7,2.9,5.2,5.7,5.1,9.8c-6.7,4.1-14.1,7.1-21.3,10l-2.5,1c-4.2,1.7-8.5,3.2-12.7,4.7
			C442.5,635.9,440.7,636.5,438.9,637.1z"/>
		<path class="st16" d="M475.3,610.3c2.5,2.7,4.8,5.3,4.8,9.1c-6.6,4-13.9,6.9-20.9,9.8c-0.8,0.3-1.6,0.7-2.5,1
			c-4.1,1.7-8.5,3.2-12.6,4.6c-1.6,0.6-3.3,1.1-4.9,1.7c-1.8-3.1-2.7-6.6-3.4-9.9c0.3-0.6,0.9-0.8,1.8-1.1l0.3-0.1
			c13.4-4.3,26-10,35.4-14.5C474,610.6,474.6,610.3,475.3,610.3 M475.4,609.3c-0.9,0-1.7,0.4-2.5,0.7c-11.5,5.5-23.2,10.5-35.3,14.4
			c-1.1,0.4-2.4,0.7-2.9,2.1c0.8,3.9,1.8,7.8,4,11.2c6.1-2.2,12.3-4.2,18.3-6.7c8.2-3.3,16.4-6.5,24-11.1c0.3-4.6-2.5-7.6-5.3-10.6
			C475.6,609.3,475.5,609.3,475.4,609.3L475.4,609.3z"/>
	</g>
	<g>
		<path class="st19" d="M89.6,491.9c-4.4-7.5-7.7-15.6-10.8-23.6c-0.5-1.3-1-2.6-1.6-3.9c-1.3-3.3-2.5-6.7-3.6-10
			c-0.5-1.4-0.9-2.8-1.4-4.2c3.1-1.9,6.4-2.8,10.5-3.7c0.9,0.3,1.2,1.2,1.5,2.2l0.1,0.3c4.3,13.4,10,25.9,14.5,35.4
			c0.4,0.8,0.7,1.5,0.7,2.4l-0.5,0.5c-2.7,2.4-5.3,4.6-9.1,4.6C89.8,491.9,89.7,491.9,89.6,491.9z"/>
		<path class="st16" d="M82.6,447.1c0.6,0.3,0.8,0.9,1.1,1.8l0.1,0.3c4.3,13.4,10,26,14.5,35.4c0.3,0.7,0.6,1.3,0.6,1.9l-0.4,0.3
			c-2.7,2.3-5.2,4.5-8.7,4.5c0,0,0,0,0,0c-4.3-7.4-7.6-15.4-10.7-23.2c-0.5-1.3-1-2.6-1.6-3.9c-1.3-3.3-2.5-6.7-3.6-10
			c-0.4-1.3-0.9-2.5-1.3-3.8C75.6,448.8,78.8,447.9,82.6,447.1 M82.7,446.1c-3.9,0.8-7.7,1.8-11.2,4c1.7,4.9,3.2,9.8,5.2,14.6
			c3.8,9.4,7.3,19,12.6,27.8c0.2,0,0.4,0,0.6,0c4.2,0,7.1-2.8,10.1-5.3c0.1-1-0.3-1.9-0.7-2.8c-5.5-11.5-10.5-23.2-14.4-35.3
			C84.4,447.8,84.1,446.5,82.7,446.1L82.7,446.1z"/>
	</g>
	<g>
		<path class="st18" d="M222.4,110.8c-2.7-2.9-5.3-5.7-5.1-9.9c12.1-6.6,25.4-12.1,40.7-17c0.3-0.1,0.4-0.2,0.6-0.2
			c0.6,0,0.8,0.5,0.9,0.7c0.2,0.5,0.5,1.1,0.7,1.6c1.3,2.7,2.4,5.3,1.8,8.3c-0.6,0.9-1.6,1.2-2.8,1.6c-12.6,4.1-24.5,9.4-34.5,14.2
			c-0.7,0.3-1.4,0.7-2.2,0.7C222.5,110.8,222.5,110.8,222.4,110.8z"/>
		<path class="st16" d="M258.6,84.2L258.6,84.2c0.2,0,0.4,0.2,0.4,0.4c0.2,0.6,0.5,1.1,0.7,1.6c1.2,2.6,2.4,5,1.8,7.9
			c-0.5,0.7-1.4,1-2.4,1.3c-12.6,4.1-24.5,9.5-34.6,14.2c-0.6,0.3-1.3,0.6-1.9,0.6c-2.5-2.7-4.9-5.4-4.8-9.1
			c12-6.5,25.2-12,40.3-16.8l0.1,0l0.1,0C258.4,84.2,258.5,84.2,258.6,84.2 M258.6,83.2c-0.2,0-0.5,0.1-0.8,0.2
			c-14.2,4.5-27.9,10-41,17.2c-0.3,4.6,2.5,7.6,5.3,10.7c0.1,0,0.3,0,0.4,0c0.9,0,1.7-0.4,2.4-0.7c11.2-5.3,22.6-10.3,34.5-14.2
			c1.2-0.4,2.4-0.8,3.1-1.9c0.8-3.9-1.2-7-2.6-10.3C259.7,83.6,259.2,83.2,258.6,83.2L258.6,83.2z"/>
	</g>
	<g>
		<path class="st15" d="M263.7,94.4c-0.4,0-0.7-0.1-1-0.3c-0.2-0.7-0.3-1.3-0.4-2c-0.6-3-1.2-6-3.4-8.4c15-5.1,30-8.7,44.6-10.6
			c1.7,3.8,2.3,7.4,1.7,10.9c-1,0.9-2.3,1.1-3.6,1.3c-0.4,0.1-0.8,0.1-1.2,0.2c-10.4,2-22.6,4.6-34.4,8.4c-0.2,0.1-0.3,0.1-0.5,0.2
			C264.8,94.2,264.2,94.4,263.7,94.4z"/>
		<path class="st16" d="M303,73.5c1.5,3.6,2.1,6.9,1.6,10.1c-0.9,0.7-2,0.9-3.2,1c-0.4,0.1-0.8,0.1-1.2,0.2
			c-10.4,2-22.6,4.6-34.5,8.4c-0.2,0.1-0.3,0.1-0.5,0.2c-0.6,0.2-1.1,0.4-1.6,0.4c-0.2,0-0.4,0-0.6-0.1c-0.1-0.6-0.2-1.2-0.4-1.8
			c-0.5-2.8-1.1-5.7-3.1-8.1C274.3,79,288.9,75.5,303,73.5 M303.6,72.4c-15.6,2.1-30.9,5.9-45.8,11c3.2,2.9,3.4,7.1,4.3,11
			c0.5,0.4,1,0.5,1.5,0.5c0.8,0,1.6-0.3,2.4-0.6c11.2-3.6,22.8-6.2,34.3-8.4c1.8-0.3,3.7-0.3,5.2-1.7
			C306.2,80,305.4,76.2,303.6,72.4L303.6,72.4z"/>
	</g>
	<g>
		<path class="st19" d="M113.7,531.7c-9.2-12.3-16.7-25.3-22.8-36.5c-0.3-0.6-0.6-1.3-0.8-2c-0.1-0.2-0.1-0.3-0.2-0.5
			c2-0.6,3.8-1.7,5.5-2.7c1.3-0.8,2.7-1.7,4.2-2.3c1.5,0.8,2.2,2.2,2.9,3.7c0.2,0.4,0.4,0.8,0.6,1.1c5.2,9.8,11.1,19.4,18.1,29.3
			l0.1,0.2c0.6,0.8,1.2,1.6,1.1,2.7c-1.4,1.8-3.2,3-5.1,4.3C116.1,529.9,114.9,530.7,113.7,531.7z"/>
		<path class="st16" d="M99.5,488.3c1.2,0.7,1.8,2,2.5,3.4c0.2,0.4,0.4,0.8,0.6,1.2c5.2,9.8,11.1,19.4,18.1,29.3l0.1,0.2
			c0.5,0.8,1,1.4,1,2.2c-1.3,1.7-3.1,2.9-4.9,4.1c-1.1,0.7-2.2,1.5-3.2,2.3c-9.1-12.1-16.4-25-22.5-36c-0.3-0.6-0.5-1.2-0.8-1.9
			c1.9-0.6,3.5-1.6,5.1-2.6C97,489.6,98.2,488.8,99.5,488.3 M99.6,487.2c-3.6,1.4-6.5,4.3-10.3,5.2c0.4,1,0.7,2.1,1.2,3
			c7,12.8,14.4,25.4,23.2,37c2.9-2.8,6.8-4.3,9.2-7.6c0.1-1.3-0.7-2.3-1.4-3.3c-6.6-9.4-12.7-19.1-18.1-29.2
			C102.5,490.5,101.8,488.2,99.6,487.2L99.6,487.2z"/>
	</g>
	<g>
		<path class="st18" d="M628,316.6c-0.9,0-1.8-0.1-2.7-0.2c-0.7-0.7-0.8-1.6-1-2.5l-0.1-0.5c-2.4-12.1-5-24.9-9.1-37.3
			c-0.3-0.8-0.4-1.5-0.3-2.1c1.9-1.3,4-1.9,6.2-2.6c1.5-0.5,3.1-0.9,4.5-1.6c5.2,15.5,8.8,30.2,10.7,44.9
			C633.4,316,630.6,316.6,628,316.6z"/>
		<path class="st16" d="M625.2,270.5c5.1,15.2,8.5,29.6,10.5,43.9c-2.7,1.2-5.3,1.7-7.7,1.7c-0.8,0-1.6-0.1-2.4-0.2
			c-0.5-0.5-0.6-1.3-0.7-2.1c0-0.2-0.1-0.3-0.1-0.5c-2.4-12.1-5-25-9.2-37.3c-0.2-0.7-0.3-1.2-0.3-1.6c1.8-1.2,3.8-1.8,5.9-2.4
			C622.5,271.5,623.9,271.1,625.2,270.5 M625.8,269.1c-3.7,1.9-8,2.2-11.5,4.6c-0.2,0.9,0,1.7,0.3,2.5c4.1,12.2,6.7,24.7,9.1,37.2
			c0.2,1.2,0.3,2.5,1.3,3.4c1,0.2,2,0.3,2.9,0.3c3,0,6-0.8,8.8-2.1C634.7,299.3,630.9,284.1,625.8,269.1L625.8,269.1z"/>
	</g>
	<g>
		<path class="st19" d="M216.7,619.4c-10.5-4.9-20.2-11-30-17.4c-2.2-1.5-4.4-3.1-6.6-4.6c-0.8-0.6-1.6-1.2-2.4-1.7
			c2.5-1.7,4.1-4.2,5.6-6.7c0.4-0.7,0.8-1.3,1.2-1.9c0.2,0,0.3-0.1,0.5-0.1c0.7,0,1.3,0.5,2,0.9l0.3,0.2
			c10.3,7.4,21.4,13.8,31.9,19.7c0.2,0.1,0.4,0.2,0.5,0.3c0.8,0.4,1.6,0.8,2,1.6C221.1,613.4,219,616.3,216.7,619.4z"/>
		<path class="st16" d="M185.1,587.4L185.1,587.4c0.5,0,1.1,0.4,1.7,0.8l0.3,0.2c10.3,7.4,21.4,13.9,31.9,19.7
			c0.2,0.1,0.4,0.2,0.6,0.3c0.7,0.4,1.4,0.7,1.7,1.3c-0.7,3.4-2.6,6.2-4.8,9c-10.3-4.8-19.9-10.9-29.6-17.2
			c-2.2-1.4-4.4-3.1-6.5-4.6c-0.6-0.4-1.2-0.9-1.8-1.3c2.3-1.8,3.8-4.1,5.2-6.4c0.4-0.6,0.7-1.2,1.1-1.8
			C185,587.5,185,587.4,185.1,587.4 M185.1,586.4c-0.3,0-0.5,0-0.8,0.2c-2.2,3.2-3.9,6.9-7.5,9c3.2,2.3,6.3,4.7,9.6,6.8
			c9.8,6.4,19.7,12.7,30.5,17.7c2.4-3.2,4.8-6.4,5.5-10.5c-0.6-1.2-1.8-1.7-2.9-2.3c-10.9-6.1-21.7-12.3-31.8-19.7
			C186.9,587.1,186.1,586.4,185.1,586.4L185.1,586.4z"/>
	</g>
	<g>
		<path class="st19" d="M257.6,636.6c-15-4.9-28.2-10.4-40.1-16.8c0.9-2.4,2.1-4.7,3.4-6.8c0.5-0.9,1.1-1.9,1.6-2.8
			c0.1,0,0.2,0,0.3,0c2.4,0,4.5,1.2,6.5,2.3c0.8,0.5,1.7,0.9,2.5,1.3c9.1,4.2,17.8,7.6,26.5,10.6c0.2,0.1,0.4,0.1,0.7,0.2
			c1.1,0.3,2.1,0.6,2.6,1.6c-0.1,0.7-0.2,1.4-0.4,2C260.7,631.4,260.2,634.4,257.6,636.6z"/>
		<path class="st16" d="M222.7,610.6c2.3,0,4.2,1.1,6.3,2.2c0.8,0.5,1.7,0.9,2.6,1.3c9.2,4.2,17.8,7.6,26.6,10.6
			c0.2,0.1,0.5,0.1,0.7,0.2c1.1,0.3,1.8,0.6,2.2,1.2c-0.1,0.6-0.2,1.3-0.3,1.9c-0.5,3-1,5.8-3.2,7.9c-14.7-4.8-27.6-10.2-39.4-16.5
			c0.8-2.2,2-4.2,3.2-6.3C221.7,612.4,222.2,611.5,222.7,610.6 M222.7,609.6c-0.2,0-0.4,0-0.6,0c-1.8,3.4-4,6.7-5.3,10.4
			c13.1,7.1,26.8,12.6,40.9,17.1c3.6-2.8,3.6-7.1,4.4-11c-0.7-1.6-2.3-1.8-3.6-2.3c-9-3.1-17.8-6.6-26.5-10.6
			C229,611.9,226.2,609.6,222.7,609.6L222.7,609.6z"/>
	</g>
	<g>
		<path class="st19" d="M65.5,405.9c-1.3,0-2.6-0.2-4-0.6c-1.2-4-1.6-8.3-2-12.5l-0.1-1.3c-0.1-1.7-0.3-3.3-0.4-5
			c-0.8-8.5-1.6-17.3-1.2-25.9c1.7-0.7,3.4-1.1,5.3-1.1c1.7,0,3.6,0.3,5.8,0.9c0.5,0.5,0.8,1.3,0.8,2.3c0.5,14.7,1.6,27.7,3.3,39.9
			c0,0.3,0,0.7-0.2,1C70.5,405.1,68,405.9,65.5,405.9z"/>
		<path class="st16" d="M63.2,360L63.2,360c1.6,0,3.4,0.3,5.5,0.9c0.4,0.4,0.6,1,0.6,1.8c0.5,14.7,1.6,27.7,3.3,39.9
			c0,0.2,0,0.4-0.1,0.7c-2.2,1.4-4.5,2.1-6.9,2.1c-1.2,0-2.3-0.2-3.6-0.5c-1.2-3.9-1.5-8.1-1.9-12.1l-0.1-1.3
			c-0.1-1.7-0.3-3.3-0.4-5c-0.8-8.4-1.6-17-1.2-25.6C59.9,360.3,61.5,360,63.2,360 M63.2,359c-1.9,0-3.9,0.4-5.8,1.3
			c-0.6,10.5,0.7,20.9,1.6,31.3c0.4,4.7,0.7,9.5,2.2,14.1c1.5,0.5,2.9,0.7,4.4,0.7c2.7,0,5.3-0.8,7.7-2.5c0.2-0.5,0.3-1,0.3-1.4
			c-1.8-13.2-2.8-26.5-3.3-39.8c0-1-0.3-2-1-2.7C67.2,359.4,65.2,359,63.2,359L63.2,359z"/>
	</g>
	<g>
		<path class="st15" d="M614.9,272.9c-0.9-0.4-1.2-1.3-1.5-2.3l-0.1-0.3c-4.1-12.5-9.4-24.3-14.1-34.3c-0.4-0.8-0.7-1.5-0.7-2.4
			c2.8-2.6,5.5-5.1,9.5-5.1c0.1,0,0.3,0,0.4,0c6.5,12,12,25.2,16.9,40.3c-2.2,2.4-5.1,3-8.2,3.5
			C616.3,272.7,615.6,272.8,614.9,272.9z"/>
		<path class="st16" d="M608,229.2L608,229.2c0,0,0.1,0,0.1,0c6.4,11.8,11.8,24.8,16.6,39.7c-2.1,2.1-4.8,2.6-7.8,3.2
			c-0.7,0.1-1.3,0.2-2,0.4c-0.6-0.3-0.8-0.9-1.1-1.9l-0.1-0.3c-4.1-12.5-9.4-24.4-14.1-34.4c-0.3-0.7-0.6-1.3-0.6-1.9
			C601.7,231.5,604.3,229.2,608,229.2 M608,228.2c-4.2,0-7.1,2.7-10,5.3c-0.1,1,0.3,1.9,0.7,2.8c5.3,11.2,10.3,22.5,14.1,34.2
			c0.4,1.1,0.7,2.4,2.1,2.9c3.9-0.9,8.1-1,11-4.4c-4.5-14.1-10-27.9-17.1-40.9C608.4,228.2,608.2,228.2,608,228.2L608,228.2z"/>
	</g>
	<g>
		<path class="st15" d="M390.1,84.3c-1.6,0-3.2-0.3-4.7-0.6c-1.1-0.2-2.2-0.4-3.3-0.5c-9.4-0.9-19.4-1.8-29.5-2.1
			c-1.3,0-2.5-0.1-3.4-0.8c-0.9-3.1-1.7-7.1,0.2-11c1,0,2,0,3,0c14.4,0,28.4,1.2,41.6,3.6c1.5,4.3,0.1,8-1.6,11.2
			C391.7,84.2,390.9,84.3,390.1,84.3z"/>
		<path class="st16" d="M352.3,68.8v1c14.2,0,28.1,1.2,41.2,3.5c1,3.1,0.6,6.3-1.5,10.3c-0.6,0.1-1.2,0.2-1.9,0.2
			c-1.5,0-3-0.3-4.6-0.6c-1.1-0.2-2.2-0.4-3.3-0.5c-9.4-0.9-19.5-1.8-29.6-2.1l-0.1,0c-1.1,0-2.1-0.1-2.9-0.6
			c-1.2-4.2-1.2-7.4,0.1-10.2c0.9,0,1.8,0,2.7,0L352.3,68.8 M352.3,68.8c-1.1,0-2.2,0-3.3,0c-2,3.9-1.5,7.9-0.3,11.8
			c1.1,1,2.5,1,3.9,1c9.9,0.3,19.7,1.1,29.5,2.1c2.7,0.3,5.3,1.1,8.1,1.1c0.8,0,1.7-0.1,2.6-0.3c2-3.8,3.2-7.8,1.6-12.1
			C380.4,69.9,366.4,68.8,352.3,68.8L352.3,68.8z"/>
	</g>
	<g>
		<path class="st19" d="M575.7,524.7c-0.3-0.8,0-1.4,0.7-2.3l0.1-0.1c7.9-11,14.5-22.4,20.4-33.2c0.4-0.7,0.8-1.3,1.4-1.6
			c3.8,0.5,6.7,2.8,9.7,5.1c-6,12.7-13.7,25.2-23.4,38.4L575.7,524.7z"/>
		<path class="st16" d="M598.4,488c3.5,0.5,6.2,2.6,9,4.7c-5.9,12.4-13.4,24.7-22.9,37.6l-4-2.8l-4.4-3.1c-0.1-0.5,0.1-0.9,0.7-1.7
			l0.1-0.1c7.9-11,14.5-22.5,20.5-33.2C597.7,488.7,598,488.3,598.4,488 M598.2,486.9c-0.8,0.4-1.3,1.1-1.7,1.9
			c-6.3,11.4-12.8,22.6-20.4,33.1c-0.6,0.9-1.4,1.8-0.8,3c3.2,2.2,6.3,4.4,9.5,6.6c9.1-12.4,17.3-25.3,23.9-39.2
			C605.5,490,602.4,487.5,598.2,486.9L598.2,486.9z"/>
	</g>
	<g>
		<path class="st19" d="M608.4,491.8c-1.9-0.6-3.6-1.6-5.4-2.7c-1.4-0.8-2.8-1.7-4.3-2.3c-0.4-0.9,0-1.6,0.5-2.5
			c0.1-0.2,0.2-0.4,0.3-0.7c4.6-9.8,9.7-21.3,13.6-33.1l0.1-0.4c0.3-1,0.6-2,1.6-2.5c0.7,0.1,1.4,0.3,2,0.4c3.2,0.5,6.2,1.1,8.4,3.6
			C620.2,467.1,614.7,480.2,608.4,491.8z"/>
		<path class="st16" d="M614.9,448.2c0.6,0.1,1.3,0.2,1.9,0.3c3,0.5,5.8,1,7.9,3.2c-5,15.1-10.4,28.1-16.5,39.4
			c-1.7-0.6-3.3-1.5-4.9-2.5c-1.3-0.8-2.7-1.6-4.2-2.3c-0.2-0.6,0.1-1.1,0.5-1.9c0.1-0.2,0.2-0.5,0.4-0.7
			c4.6-9.8,9.8-21.3,13.6-33.1l0.1-0.4C614.1,449.3,614.3,448.6,614.9,448.2 M614.8,447.2c-1.4,0.6-1.7,2-2.1,3.3
			c-3.7,11.3-8.5,22.2-13.5,33c-0.5,1.2-1.5,2.3-0.7,3.8c3.6,1.4,6.5,4.2,10.3,5.2c7.1-13,12.6-26.8,17.2-40.9
			C623,448,618.7,448,614.8,447.2L614.8,447.2z"/>
	</g>
	<g>
		<path class="st17" d="M513.3,133.8c-1,0-1.8-0.6-2.6-1.2l-0.1-0.1c-9.5-6.8-19.4-12.7-31.5-19.5c-0.2-0.1-0.5-0.3-0.7-0.4
			c-0.9-0.4-1.7-0.8-1.9-1.7c0.6-1.3,1.3-2.5,2-3.7c1.1-1.9,2.2-3.8,2.9-5.9c12.7,5.9,24.3,13.5,34.9,20.8c1,0.7,2.1,1.5,3,2.2
			c0.3,0.2,0.6,0.5,1,0.7c-0.9,1-1.6,2.2-2.4,3.3c-1.4,2-2.7,4-4.6,5.5C513.4,133.8,513.3,133.8,513.3,133.8z"/>
		<path class="st16" d="M481.7,102c12.5,5.9,23.9,13.3,34.4,20.5c1,0.7,2,1.5,3,2.2c0.2,0.1,0.4,0.3,0.6,0.4
			c-0.7,0.9-1.4,1.9-2.1,2.9c-1.3,2-2.6,3.8-4.3,5.3c-0.8,0-1.5-0.5-2.3-1.1l-0.1-0.1c-9.5-6.8-19.5-12.7-31.5-19.5
			c-0.2-0.1-0.5-0.3-0.7-0.4c-0.8-0.4-1.4-0.7-1.6-1.2c0.6-1.2,1.2-2.3,1.9-3.5C479.9,105.7,481,103.9,481.7,102 M481.1,100.6
			c-1,3.8-3.6,6.8-5.2,10.3c0.4,1.6,1.8,1.9,2.9,2.6c10.8,6,21.4,12.2,31.4,19.4c0.9,0.7,1.8,1.4,3,1.4c0.1,0,0.2,0,0.3,0
			c3.2-2.5,4.9-6.3,7.5-9.3c-1.5-1.1-2.9-2.2-4.4-3.2C505.3,113.9,493.7,106.4,481.1,100.6L481.1,100.6z"/>
	</g>
	<g>
		<path class="st15" d="M69.8,316.6c-2.5,0-5.1-0.6-8.1-1.9c1.3-10.7,3.8-21.1,7.2-33.4c0.7-2.4,1.4-4.9,2.2-7.3
			c0.3-1,0.6-1.9,0.9-2.9c3.7,0.7,7.3,1.9,10.4,3.5c0.7,0.9,0.4,1.8,0,3c-3.6,11.3-6,22.5-8.7,36l-0.1,0.3c-0.2,0.9-0.3,1.7-0.9,2.4
			C71.7,316.5,70.8,316.6,69.8,316.6z"/>
		<path class="st16" d="M72.2,271.7c3.5,0.7,6.8,1.8,9.8,3.3c0.4,0.6,0.3,1.3-0.1,2.4c-3.6,11.4-6,22.6-8.7,36.1l-0.1,0.3
			c-0.2,0.8-0.3,1.5-0.7,2c-0.9,0.2-1.8,0.3-2.7,0.3c-2.3,0-4.7-0.6-7.6-1.7c1.3-10.5,3.8-20.8,7.1-33c0.7-2.4,1.4-4.9,2.2-7.3
			C71.7,273.3,72,272.5,72.2,271.7 M71.5,270.5c-1.1,3.5-2.2,7.1-3.2,10.6c-3,11.2-5.9,22.4-7.2,33.9c2.8,1.2,5.7,2.1,8.7,2.1
			c1.1,0,2.1-0.1,3.2-0.3c0.8-0.9,1-2,1.2-3.1c2.4-12.1,4.9-24.2,8.7-36c0.4-1.2,0.8-2.4-0.2-3.5C79.1,272.4,75.4,271.2,71.5,270.5
			L71.5,270.5z"/>
	</g>
	<g>
		<path class="st19" d="M354.5,651.5c-1.8,0-3.5-0.1-5.2-0.2c-1.9-3.8-1.2-7.7-0.2-11c0.5-0.5,1.3-0.8,2.3-0.8
			c13.5-0.4,26.8-1.5,39.5-3.3c0.1,0,0.2,0,0.3,0c0.3,0,0.7,0.1,1,0.2c2.4,4.3,2.9,7.8,1.6,11.3c-6.9,1.6-14.1,2.2-21.1,2.7l-0.1,0
			c-1.1,0.1-2.2,0.2-3.3,0.3C364.4,651.1,359.4,651.5,354.5,651.5z"/>
		<path class="st16" d="M391.2,636.7c0.2,0,0.5,0,0.7,0.1c2.2,4,2.7,7.3,1.6,10.5c-6.8,1.6-13.9,2.1-20.8,2.6l-0.1,0
			c-1.1,0.1-2.2,0.2-3.3,0.3c-4.8,0.4-9.8,0.8-14.7,0.8c-1.7,0-3.3,0-4.9-0.1c-1.6-3.5-1-7.1-0.1-10.3c0.4-0.4,1-0.6,1.8-0.6
			c13.5-0.4,26.8-1.5,39.6-3.3C391,636.7,391.1,636.7,391.2,636.7 M391.2,635.7c-0.1,0-0.3,0-0.4,0c-13.1,1.8-26.2,2.9-39.5,3.3
			c-1,0-2,0.3-2.7,1c-1.1,4-1.6,7.9,0.4,11.8c1.8,0.1,3.7,0.2,5.5,0.2c6.1,0,12.1-0.6,18.1-1c7.2-0.5,14.5-1.1,21.6-2.8
			c1.7-4.3,0.5-8.3-1.6-12.1C392.2,635.8,391.7,635.7,391.2,635.7L391.2,635.7z"/>
	</g>
	<g>
		<path class="st15" d="M99.7,232.8c-3.6-2.4-6.7-3.9-9.7-4.9c4.8-10.3,10.6-19.7,15.7-27.5c1.8-2.8,3.8-5.6,5.8-8.3
			c0.8-1.1,1.6-2.2,2.3-3.3c1.1,1,2.4,1.9,3.6,2.7c1.9,1.3,3.7,2.5,5.1,4.3c0.1,1.2-0.6,2.2-1.4,3.2c-6.4,8.9-12.4,18.5-18.4,29.6
			c-0.2,0.3-0.3,0.7-0.5,1C101.6,230.9,101,232.2,99.7,232.8z"/>
		<path class="st16" d="M113.8,189.6c1,0.9,2.2,1.7,3.3,2.4c1.8,1.2,3.5,2.4,4.8,4c0,1-0.6,1.8-1.3,2.7
			c-6.4,8.8-12.4,18.5-18.4,29.6c-0.2,0.3-0.3,0.7-0.5,1c-0.6,1.2-1.1,2.3-2.1,2.9c-3.4-2.2-6.2-3.6-9.1-4.6
			c4.8-10.1,10.5-19.3,15.5-26.9c1.8-2.8,3.8-5.6,5.7-8.3C112.5,191.5,113.2,190.5,113.8,189.6 M113.7,188.1c-2.8,4-5.8,7.9-8.4,12
			c-5.9,9-11.5,18.3-16,28.1c3.7,1.2,7.1,3.1,10.4,5.2c2.1-0.8,2.7-2.9,3.5-4.6c5.5-10.2,11.5-20.1,18.3-29.5
			c0.8-1.1,1.6-2.2,1.5-3.7C120.4,192.4,116.5,190.9,113.7,188.1L113.7,188.1z"/>
	</g>
	<g>
		<path class="st17" d="M433.5,94.1c-0.6,0-1.2-0.2-1.8-0.4l-0.3-0.1c-11.7-3.7-23.7-6.2-33.9-8.2c-0.3-0.1-0.7-0.1-1.1-0.2
			c-1.2-0.2-2.4-0.3-3.1-1.4c0.1-1.5,0.4-3.1,0.7-4.6c0.4-2,0.8-4.1,0.8-6.2c13.3,1.8,27.6,5.1,43.4,10.2c-0.8,3.8-2,7.3-3.5,10.4
			C434.3,94,433.9,94.1,433.5,94.1z"/>
		<path class="st16" d="M395.3,73.6c13,1.8,26.9,5,42.3,10c-0.8,3.6-1.9,6.8-3.3,9.8c-0.3,0.2-0.5,0.2-0.8,0.2
			c-0.5,0-1.1-0.2-1.7-0.4l-0.3-0.1c-11.7-3.7-23.7-6.3-34-8.2c-0.4-0.1-0.7-0.1-1.1-0.2c-1.3-0.2-2.1-0.3-2.7-1
			c0.1-1.4,0.4-2.9,0.7-4.3C394.8,77.5,395.2,75.5,395.3,73.6 M394.3,72.4c0.1,3.9-1.2,7.6-1.5,11.5c1.1,1.8,3,1.6,4.6,1.9
			c11.4,2.2,22.8,4.7,33.9,8.2c0.7,0.2,1.5,0.5,2.3,0.5c0.5,0,1.1-0.1,1.6-0.5c1.7-3.5,2.9-7.3,3.7-11.1
			C424.2,78.2,409.5,74.4,394.3,72.4L394.3,72.4z"/>
	</g>
	<g>
		<path class="st19" d="M520.3,595.5c-2.8-1.9-4.9-4.8-6.5-9c0.2-0.9,0.9-1.5,1.8-2c0.2-0.1,0.4-0.3,0.6-0.4
			c8.4-6.4,17.2-13.4,25.2-21.5c0.2-0.2,0.4-0.4,0.6-0.7c1.4-1.5,2.7-2.8,4.8-3.1c2,2.6,4.5,5.4,7.7,7.4
			C545.1,576.1,533.9,585.8,520.3,595.5z"/>
		<path class="st16" d="M546.6,559.3c1.9,2.4,4.2,5,7.2,6.9c-9.2,9.8-20.2,19.2-33.5,28.7c-2.6-1.8-4.5-4.5-6-8.4
			c0.2-0.6,0.7-1,1.5-1.6c0.2-0.2,0.4-0.3,0.6-0.5c8.4-6.4,17.2-13.4,25.3-21.6c0.2-0.2,0.4-0.4,0.6-0.7
			C543.7,560.9,544.9,559.6,546.6,559.3 M547,558.2c-2.7,0.2-4.3,2.2-6,3.9c-7.8,7.9-16.4,14.7-25.2,21.5c-1.1,0.8-2.3,1.4-2.6,2.9
			c1.4,3.9,3.5,7.3,7,9.6c12.6-9,24.5-18.8,35-30.2C551.9,564.1,549.4,561.2,547,558.2L547,558.2z"/>
	</g>
	<g>
		<path class="st19" d="M476.5,609.7c1-1.8,2.7-2.6,4.6-3.4c0.6-0.3,1.3-0.6,1.9-0.9c9.5-5.3,18.6-11,27-16.9
			c0.2-0.2,0.5-0.3,0.7-0.5c0.6-0.5,1.3-1,2-1c0.2,0,0.4,0,0.7,0.1l6.2,8.9c-13.9,10.2-26.1,17.6-38.3,23.3L476.5,609.7z"/>
		<path class="st16" d="M512.7,587.5L512.7,587.5c0.1,0,0.2,0,0.3,0l5.9,8.4c-13.6,9.9-25.5,17.2-37.4,22.7l-4.4-8.9
			c0.9-1.5,2.5-2.2,4.2-3c0.6-0.3,1.3-0.6,1.9-1c9.5-5.3,18.7-11,27.1-16.9c0.2-0.2,0.5-0.4,0.7-0.5
			C511.6,587.9,512.1,587.5,512.7,587.5 M512.7,586.5c-1.2,0-2,1-2.9,1.6c-8.7,6.1-17.7,11.6-27,16.8c-2.4,1.3-5.4,2-6.8,4.8
			c1.7,3.4,3.4,6.8,5.1,10.2c14-6.4,26.8-14.7,39.2-23.8c-2.2-3.1-4.4-6.3-6.6-9.4C513.3,586.6,513,586.5,512.7,586.5L512.7,586.5z"
			/>
	</g>
	<g>
		<path class="st18" d="M185.3,133.6c-0.2,0-0.5,0-0.7-0.1l-6.2-8.9c13.8-10,25.9-17.4,38.2-23.2c0.7,2.2,1.8,4.1,3,6
			c0.7,1.2,1.4,2.4,2,3.6c-1.1,1.8-2.9,2.6-4.8,3.5c-0.7,0.3-1.4,0.6-2,1c-9.9,5.6-18.7,11.1-26.8,16.7c-0.2,0.2-0.5,0.3-0.7,0.5
			C186.6,133.1,186,133.6,185.3,133.6z"/>
		<path class="st16" d="M216.2,102c0.7,2,1.8,3.8,2.8,5.5c0.7,1.1,1.3,2.2,1.9,3.3c-1,1.5-2.7,2.3-4.4,3.1c-0.7,0.3-1.4,0.6-2.1,1
			c-9.9,5.6-18.7,11.1-26.8,16.7c-0.2,0.2-0.5,0.4-0.7,0.6c-0.6,0.5-1.1,0.9-1.6,0.9c-0.1,0-0.2,0-0.4-0.1l-3.5-5.1l-2.3-3.4
			C192.5,114.9,204.3,107.7,216.2,102 M216.8,100.6c-13.9,6.6-26.8,14.8-39.2,23.8c2.2,3.2,4.4,6.3,6.6,9.5c0.4,0.2,0.7,0.2,1,0.2
			c1.2,0,2-1,2.9-1.6c8.6-6,17.6-11.5,26.7-16.7c2.5-1.4,5.6-2.1,7.1-5C220.4,107.4,217.9,104.4,216.8,100.6L216.8,100.6z"/>
	</g>
	<g>
		<path class="st19" d="M394.8,647.6c0-2.1-0.4-4.2-0.8-6.2c-0.3-1.5-0.6-3.1-0.7-4.6c0.5-0.9,1.4-1,2.4-1.2c0.2,0,0.5-0.1,0.7-0.1
			c13.3-2.6,24.3-5,35.3-8.5c0.6-0.2,1.2-0.4,1.8-0.4c0.5,0,0.8,0.1,1.2,0.4c1.7,3.3,2.8,6.9,3.5,10.5
			C421.8,642.6,408,645.9,394.8,647.6z"/>
		<path class="st16" d="M433.5,627L433.5,627c0.3,0,0.6,0.1,0.8,0.2c1.6,3.1,2.7,6.4,3.3,9.8c-15.9,5.1-29.4,8.2-42.3,10
			c-0.1-2-0.4-3.9-0.8-5.8c-0.3-1.5-0.6-2.9-0.7-4.4c0.4-0.5,1-0.6,2-0.8c0.2,0,0.5-0.1,0.7-0.1c13.3-2.6,24.4-5,35.3-8.6
			C432.4,627.2,433,627,433.5,627 M433.5,626c-0.7,0-1.3,0.2-1.9,0.4c-11.5,3.7-23.4,6.2-35.2,8.5c-1.3,0.2-2.8,0.2-3.5,1.6
			c0.3,3.9,1.7,7.6,1.5,11.5c15.2-2,29.9-5.8,44.5-10.4c-0.7-3.9-1.9-7.6-3.7-11.2C434.5,626.2,434,626,433.5,626L433.5,626z"/>
	</g>
	<g>
		<path class="st15" d="M598.4,232.8c-1.8-1.1-2.6-2.9-3.5-4.8c-0.3-0.7-0.6-1.4-1-2c-5.6-9.9-11.1-18.7-16.7-26.8
			c-0.2-0.2-0.3-0.5-0.5-0.7c-0.8-1-1.2-1.6-0.9-2.6l8.9-6.3c9.6,13,17.2,25.5,23.3,38.2c-2.2,0.7-4.1,1.8-6,2.9
			C600.9,231.5,599.7,232.2,598.4,232.8z"/>
		<path class="st16" d="M584.6,190.4c9.3,12.6,16.7,24.8,22.7,37.2c-2,0.7-3.8,1.8-5.5,2.8c-1.1,0.7-2.2,1.3-3.3,1.9
			c-1.5-1-2.3-2.7-3.1-4.4c-0.3-0.7-0.6-1.4-1-2.1c-5.6-9.9-11.1-18.7-16.7-26.8c-0.2-0.2-0.4-0.5-0.5-0.7c-0.7-0.9-1-1.4-0.9-2
			L584.6,190.4 M584.8,189c-3.1,2.2-6.3,4.4-9.4,6.6c-0.7,1.7,0.6,2.8,1.4,3.9c6,8.6,11.5,17.6,16.7,26.7c1.4,2.5,2.1,5.6,4.9,7.1
			c3.5-1.6,6.5-4.2,10.3-5.2C602.1,214.3,594,201.3,584.8,189L584.8,189z"/>
	</g>
	<g>
		<path class="st15" d="M306.9,84.3c-0.6,0-0.9-0.2-1.2-0.6c-0.1-1.6-0.4-3.2-0.7-4.7c-0.4-2-0.8-4.2-0.8-6.3
			c6.7-1.6,13.6-2.1,20.3-2.6l3.3-0.3c5.1-0.4,10.5-0.8,15.7-0.8c1.8,0,3.5,0,5.1,0.1l0,11c-0.6,0.6-1.4,0.8-2.5,0.8
			c-11.3,0.4-24.6,1.1-37.9,3.1l-0.2,0C307.6,84.3,307.2,84.3,306.9,84.3z"/>
		<path class="st16" d="M343.4,68.6v1c1.6,0,3.1,0,4.6,0.1l0,2.9l0,7.4c-0.4,0.4-1.1,0.5-2,0.5c-11.3,0.4-24.6,1.1-37.9,3.1l-0.2,0
			c-0.3,0.1-0.6,0.1-0.9,0.1c-0.3,0-0.6-0.1-0.7-0.3c-0.2-1.6-0.4-3.1-0.7-4.6c-0.4-2-0.7-3.9-0.8-5.8c6.5-1.5,13.2-2,19.8-2.5
			l0.4,0c1-0.1,2-0.2,2.9-0.2c5.1-0.4,10.4-0.8,15.6-0.8V68.6 M343.4,68.6c-6.2,0-12.4,0.6-18.7,1.1c-7.1,0.5-14.2,1.1-21.1,2.7
			c-0.1,3.9,1.2,7.7,1.6,11.5c0.5,0.7,1.1,0.9,1.7,0.9c0.4,0,0.9-0.1,1.3-0.1c12.5-1.9,25.2-2.6,37.8-3.1c1.1,0,2.2-0.2,3-1.2
			c0-3.9,0-7.8,0-11.7C347.1,68.7,345.3,68.6,343.4,68.6L343.4,68.6z"/>
	</g>
	<g>
		<path class="st19" d="M71.9,449.5c-4.1-12.4-7.4-25.8-10.2-42c-0.1-0.3,0-0.7,0-1.1c0-0.1,0-0.1,0-0.2l11-1.4
			c0.9,0.8,1,1.9,1.2,3.1c0,0.3,0.1,0.6,0.1,0.9c2,10.1,4.5,22,8.2,33.9l0.1,0.3c0.4,1.1,0.7,2.1,0,3
			C79.1,447.6,75.6,448.8,71.9,449.5z"/>
		<path class="st16" d="M72.5,405.2c0.6,0.7,0.7,1.6,0.9,2.6c0,0.3,0.1,0.6,0.1,0.9c2,10.1,4.5,22.1,8.2,34l0.1,0.3
			c0.4,1.1,0.6,1.8,0.2,2.5c-3.1,1.6-6.3,2.7-9.8,3.3c-4-12.3-7.2-25.5-10.1-41.5c0-0.2,0-0.5,0-0.8L72.5,405.2 M72.8,404.2
			c-3.9,0.5-7.8,1-11.6,1.5c0,0.6-0.1,1.2,0,1.8c2.5,14.4,5.8,28.6,10.4,42.5c3.9-0.6,7.6-1.9,11.2-3.7c1-1.3,0.4-2.6,0-3.9
			c-3.5-11.1-6-22.4-8.2-33.9C74.2,407,74.2,405.3,72.8,404.2L72.8,404.2z"/>
	</g>
	<g>
		<path class="st18" d="M634.3,404.8c-2.1-0.3-4.3-0.6-6.4-0.8c-1.4-0.2-2-0.8-1.9-2l0-0.2l-0.1-0.2c-0.8-1-0.6-2.1-0.5-3.3l0-0.2
			c1.4-11.1,2.3-22.6,2.6-34.1c0-1.3,0.1-2.5,0.8-3.4c2.2-0.7,4.1-1,5.8-1c1.9,0,3.6,0.4,5.3,1.2c0.2,14.6-1,29.5-3.5,44.4
			L634.3,404.8z"/>
		<path class="st16" d="M634.7,360L634.7,360c1.7,0,3.3,0.3,4.8,1c0.2,14.3-1,28.9-3.4,43.5c-0.6-0.1-1.1-0.2-1.7-0.2
			c-2.1-0.3-4.2-0.6-6.4-0.8c-1.3-0.2-1.5-0.6-1.4-1.5l0-0.4l-0.2-0.3c-0.6-0.8-0.5-1.6-0.4-3l0-0.2c1.4-11.2,2.3-22.7,2.6-34.2
			l0-0.1c0-1.1,0.1-2.1,0.6-2.9C631.3,360.3,633.1,360,634.7,360 M634.7,359c-2,0-4.1,0.4-6.1,1.1c-0.9,1.1-1,2.5-1,3.8
			c-0.3,11.4-1.2,22.8-2.6,34.1c-0.2,1.3-0.4,2.7,0.6,3.9c-0.1,1.7,0.7,2.4,2.3,2.6c3,0.4,6,0.8,9,1.2c2.6-15,3.8-30.1,3.6-45.3
			C638.6,359.4,636.6,359,634.7,359L634.7,359z"/>
	</g>
	<g>
		<path class="st19" d="M345.9,651.3c-14.3,0-28.3-1.2-41.7-3.6c0-2,0.4-4.1,0.8-6c0.3-1.6,0.6-3.2,0.7-4.9c0.7-0.3,1.4-0.5,2.3-0.5
			c0.9,0,1.7,0.1,2.6,0.3l0.7,0.1c10.9,1.7,22.1,2.2,32.9,2.7l0.3,0c0.3,0,0.5,0,0.8,0c1.2,0,2.3,0,3.2,0.9l0,11
			C347.6,651.3,346.8,651.3,345.9,651.3z"/>
		<path class="st16" d="M308,636.8L308,636.8c0.8,0,1.6,0.1,2.5,0.3c0.2,0,0.5,0.1,0.7,0.1c11,1.7,22.2,2.2,33,2.7l0.3,0
			c0.3,0,0.5,0,0.8,0c1.2,0,2.1,0.1,2.7,0.6l0,10.3c-0.7,0-1.4,0-2.1,0c-14.1,0-28-1.2-41.2-3.5c0-1.8,0.4-3.6,0.7-5.5
			c0.3-1.5,0.6-3,0.7-4.6C306.7,636.9,307.3,636.8,308,636.8 M308,635.8c-0.9,0-1.9,0.2-2.8,0.7c-0.2,3.9-1.7,7.7-1.5,11.6
			c14,2.5,28,3.7,42.2,3.7c1,0,2.1,0,3.1,0c0-3.9,0-7.8,0-11.7c-1.2-1.4-2.9-1.1-4.5-1.2c-11.1-0.5-22.2-1-33.2-2.7
			C310.2,636.1,309.1,635.8,308,635.8L308,635.8z"/>
	</g>
	<g>
		<path class="st18" d="M629,359.8c-0.6-0.6-0.8-1.4-0.8-2.5c-0.5-14.3-1.4-26.1-3-37.3c-0.1-1-0.2-2.1,0.4-3
			c1.6-0.1,3.1-0.4,4.6-0.7c2-0.4,4.1-0.8,6.2-0.8c0,0,0.1,0,0.1,0c1.6,6.8,2.1,13.8,2.7,20.6c0,0,0.2,2.6,0.3,3.7
			c0.5,6.6,1.1,13.4,0.6,20.1L629,359.8z"/>
		<path class="st16" d="M636,316c1.5,6.6,2,13.5,2.6,20.1l0,0.4c0.1,1.1,0.2,2.2,0.3,3.3c0.5,6.4,1,13,0.7,19.5l-4.9,0l-5.4,0
			c-0.4-0.5-0.5-1.1-0.5-2c-0.5-14.3-1.4-26.2-3-37.3c-0.1-0.8-0.2-1.7,0.2-2.5c1.5-0.1,3-0.4,4.4-0.7
			C632.2,316.4,634.1,316,636,316 M636.3,315c-3.8,0-7.3,1.2-11,1.5c-0.8,1.1-0.8,2.4-0.6,3.6c1.7,12.4,2.5,24.8,3,37.2
			c0,1.1,0.2,2.2,1.2,3c3.9,0,7.8,0,11.7,0c0.6-8-0.3-16-0.9-23.9c-0.5-7.2-1.1-14.4-2.8-21.5C636.7,315,636.5,315,636.3,315
			L636.3,315z"/>
	</g>
	<g>
		<path class="st15" d="M57.9,359.8c-0.1-15.1,1.1-30,3.6-44.3c0.1,0,0.2,0,0.4,0c1.9,0,3.9,0.4,5.7,0.8c1.6,0.3,3.2,0.6,4.8,0.7
			c0.8,2.2,0.4,4.4-0.1,6.7c-0.2,1-0.4,2-0.5,3l-0.3,3.3c-0.8,8.4-1.6,17.2-1.8,25.8c0,0.2,0,0.5,0,0.7c0,1.2,0,2.4-0.9,3.3
			L57.9,359.8z"/>
		<path class="st16" d="M61.9,316c1.9,0,3.7,0.4,5.6,0.7c1.5,0.3,3,0.6,4.6,0.7c0.6,2,0.2,4-0.2,6.1c-0.2,1-0.4,2-0.5,3l-0.3,3.3
			c-0.8,8.5-1.6,17.2-1.8,25.9c0,0.2,0,0.5,0,0.7c0,1.3,0,2.1-0.6,2.8l-10.3,0C58.3,344.5,59.5,329.9,61.9,316 M61.9,315
			c-0.3,0-0.5,0-0.8,0c-2.7,15-3.8,30-3.7,45.2c3.9,0,7.8,0,11.8,0c1.3-1.2,1.1-2.9,1.2-4.5c0.2-9.7,1.2-19.4,2.1-29.1
			c0.3-3.4,1.8-6.7,0.4-10.2C69.1,316.3,65.6,315,61.9,315L61.9,315z"/>
	</g>
	<g>
		<path class="st17" d="M546.2,161.7c-1.5-0.1-2.5-1.1-3.5-2.2c-0.2-0.2-0.3-0.4-0.5-0.5c-8.3-8.7-17.9-16.1-26.3-22.6
			c-0.2-0.1-0.4-0.3-0.6-0.4c-0.8-0.6-1.3-1-1.3-1.8c0.7-0.9,1.3-1.9,1.9-2.9c1.4-2.3,2.7-4.4,5-5.8c10.6,7.6,21.4,16.7,32.9,28
			c-1.2,2.9-3.6,4.8-6,6.8C547.4,160.8,546.8,161.2,546.2,161.7z"/>
		<path class="st16" d="M521,126.1c10.4,7.5,21,16.5,32.3,27.5c-1.2,2.6-3.4,4.4-5.7,6.3c-0.5,0.4-1,0.8-1.5,1.3c-1.2-0.1-2-1-2.9-2
			c-0.2-0.2-0.3-0.4-0.5-0.5c-8.3-8.7-17.9-16.1-26.4-22.6c-0.2-0.1-0.4-0.3-0.6-0.4c-0.8-0.5-1.1-0.8-1.1-1.2
			c0.7-0.9,1.3-1.9,1.8-2.8C517.7,129.4,518.9,127.4,521,126.1 M521.1,124.9c-3.8,1.9-5.1,5.9-7.5,9.1c-0.2,1.6,1.1,2.1,2,2.8
			c9.1,7.1,18.3,14.2,26.3,22.5c1.2,1.3,2.4,2.9,4.5,2.9c0,0,0,0,0,0c3-2.6,6.5-4.8,8.1-8.8C544,143.1,533,133.5,521.1,124.9
			L521.1,124.9z"/>
	</g>
	<g>
		<path class="st17" d="M123.1,195.1c-0.1,0-0.1,0-0.2,0c-1-0.7-2-1.3-3-1.9c-2.3-1.3-4.4-2.6-5.6-5c7.6-10.5,16.4-20.9,27.8-32.8
			c2.8,1.3,4.7,3.5,6.7,5.9c0.5,0.6,1,1.2,1.6,1.8c-0.4,1.7-1.6,2.9-2.9,4.2l-0.1,0.1c-8.3,8-15.4,17.1-22.2,25.9
			c-0.1,0.2-0.3,0.4-0.4,0.6C124.1,194.7,123.8,195.1,123.1,195.1z"/>
		<path class="st16" d="M142.2,156c2.5,1.2,4.3,3.4,6.2,5.6c0.5,0.5,0.9,1.1,1.4,1.6c-0.4,1.5-1.5,2.6-2.7,3.7l-0.1,0.1
			c-8.3,8-15.4,17.2-22.2,26c-0.1,0.2-0.3,0.4-0.4,0.6c-0.5,0.7-0.7,1-1.1,1c0,0,0,0,0,0c-0.9-0.7-2-1.3-3-1.9
			c-2.1-1.2-4.1-2.4-5.3-4.6C122.3,177.9,131,167.6,142.2,156 M142,154.8c-10.1,10.5-19.8,21.5-28.3,33.3c1.8,4,5.9,5.1,9,7.5
			c0.2,0,0.3,0,0.4,0c1.3,0,1.7-1.2,2.4-2c7-9,13.9-18,22.1-25.9c1.4-1.4,2.9-2.7,3.2-4.8C148.1,159.9,145.9,156.4,142,154.8
			L142,154.8z"/>
	</g>
	<g>
		<path class="st19" d="M142.6,565.3c-9.2-8.6-17.9-18.8-28.3-32.8c1.2-2.4,3.3-3.7,5.6-5c1-0.6,2.1-1.2,3-1.9c0.1,0,0.2,0,0.2,0
			c0.7,0,1.1,0.5,1.6,1.2c0.1,0.2,0.3,0.4,0.4,0.6c6.8,8.8,13.8,17.9,22.2,25.9l0.3,0.3c1.4,1.4,2.8,2.6,3,4.6L142.6,565.3z"/>
		<path class="st16" d="M123.1,526c0.4,0,0.7,0.3,1.2,1c0.1,0.2,0.3,0.4,0.4,0.6c6.8,8.8,13.8,17.9,22.2,26l0.3,0.3
			c1.3,1.2,2.5,2.4,2.8,4.1l-7.4,6.6c-9-8.5-17.6-18.5-27.7-32.2c1.1-2.1,3.2-3.3,5.3-4.5C121.1,527.3,122.1,526.7,123.1,526
			C123.1,526,123.1,526,123.1,526 M123.1,525c-0.1,0-0.3,0-0.4,0c-3.1,2.4-7.2,3.5-9,7.5c8.8,11.9,18,23.4,28.9,33.5
			c2.8-2.5,5.7-5.1,8.5-7.6c-0.1-2.5-1.9-4-3.5-5.5c-8.2-7.9-15.2-16.9-22.1-25.9C124.8,526.1,124.4,525,123.1,525L123.1,525z"/>
	</g>
	<line class="st20" x1="349" y1="79.7" x2="349" y2="640.9"/>
	<line class="st20" x1="43.8" y1="360.3" x2="629.5" y2="360.3"/>
	<polyline class="st21" points="122.6,195.5 348.6,360 184.2,133.9 	"/>
	<polyline class="st21" points="262.6,94.3 348.6,359.9 392.4,84.2 	"/>
	<polyline class="st21" points="546.7,162.6 348.6,359.9 615,273 	"/>
	<line class="st21" x1="615" y1="447.6" x2="348.6" y2="359.9"/>
	<rect x="325" y="367.7" class="st22" width="24.3" height="37.4"/>
	<text transform="matrix(1 0 0 1 325.0013 389.2262)" class="st19 st23 st24">0</text>
	<rect y="366.7" class="st22" width="67.9" height="37.4"/>
	<text transform="matrix(1 0 0 1 2.041465e-04 388.2257)" class="st19 st23 st24">100</text>
	<rect x="17.1" y="237.4" class="st22" width="49.4" height="30.2"/>
	<text transform="matrix(1 0 0 1 17.0988 258.941)" class="st19 st23 st24">1-4</text>
	<rect x="53.9" y="108.4" class="st22" width="78.5" height="37.4"/>
	<text transform="matrix(1 0 0 1 53.9006 129.9528)" class="st19 st23 st24">5-6</text>
	<rect x="121.3" y="57.8" class="st22" width="99.6" height="37.4"/>
	<text transform="matrix(1 0 0 1 121.3459 79.3688)" class="st19 st23 st24">7-8</text>
	<rect x="272.3" y="41" class="st22" width="60.8" height="37.4"/>
	<text transform="matrix(1 0 0 1 272.2551 62.5074)" class="st19 st23 st24">9-11</text>
	<rect x="496" y="60.3" class="st22" width="88.2" height="37.4"/>
	<text transform="matrix(1 0 0 1 495.9602 81.8981)" class="st19 st23 st24">12-15</text>
	<rect x="622.4" y="180.9" class="st22" width="101.7" height="37.4"/>
	<text transform="matrix(1 0 0 1 622.4191 202.4567)" class="st19 st23 st24">16-18</text>
	<rect x="668.8" y="347.8" class="st22" width="76.4" height="37.4"/>
	<text transform="matrix(1 0 0 1 668.7883 369.3834)" class="st19 st23 st24">19-21</text>
	<rect x="624.1" y="561.1" class="st22" width="164.9" height="37.4"/>
	<text transform="matrix(1 0 0 1 624.1057 582.6783)" class="st19 st23 st24">22 und Mehr</text>
	<line class="st21" x1="3.4" y1="359.5" x2="347.9" y2="359.5"/>
</g>
</svg>
