<!-- Generator: Adobe Illustrator 24.2.1, SVG Export Plug-In  -->
<svg version="1.1" xmlns="http://www.w3.org/2000/svg" xmlns:xlink="http://www.w3.org/1999/xlink" x="0px" y="0px"
	 width="2261.3px" height="1521.3px" viewBox="0 0 2261.3 1521.3"
	 style="overflow:visible;enable-background:new 0 0 2261.3 1521.3;" xml:space="preserve">
<style type="text/css">
	.st0{fill:none;}
	.st1{fill:#F2F2F2;}
	.st2{font-family:'MyriadPro-Regular';}
	.st3{font-size:34.9426px;}
	.st4{fill:none;stroke:#4A0F10;stroke-width:10;stroke-miterlimit:10;}
	.st5{fill:none;stroke:#61130E;stroke-width:10;stroke-miterlimit:10;}
	.st6{fill:none;stroke:#79170E;stroke-width:10;stroke-miterlimit:10;}
	.st7{fill:none;stroke:#931913;stroke-width:10;stroke-miterlimit:10;}
	.st8{fill:none;stroke:#C61617;stroke-width:10;stroke-miterlimit:10;}
	.st9{fill:none;stroke:#D83030;stroke-width:10;stroke-miterlimit:10;}
	.st10{fill:none;stroke:#C16667;stroke-width:10;stroke-miterlimit:10;}
	.st11{fill:none;stroke:#CB9291;stroke-width:10;stroke-miterlimit:10;}
	.st12{fill:#5A111B;}
	.st13{fill:#66151E;}
	.st14{fill:#881812;}
	.st15{fill:#931913;}
	.st16{fill:#C61617;}
	.st17{fill:#D83030;}
	.st18{fill:#C16667;}
	.st19{fill:#CB9291;}
	.st20{fill:none;stroke:#4A0F10;stroke-width:25;stroke-miterlimit:10;}
	.st21{fill:none;stroke:#61130E;stroke-width:46;stroke-miterlimit:10;}
	.st22{fill:none;stroke:#79170E;stroke-width:33;stroke-miterlimit:10;}
	.st23{fill:none;stroke:#931913;stroke-width:23;stroke-miterlimit:10;}
	.st24{fill:none;stroke:#C61617;stroke-width:17;stroke-miterlimit:10;}
	.st25{fill:none;stroke:#D83030;stroke-width:15;stroke-miterlimit:10;}
	.st26{fill:none;stroke:#C16667;stroke-width:12;stroke-miterlimit:10;}
	.st27{fill:#4A0F10;}
	.st28{fill:#61130E;}
	.st29{fill:#79170E;}
	.st30{font-size:39.7957px;}
	.st31{fill:none;stroke:#000000;stroke-width:27;stroke-miterlimit:10;}
	.st32{fill:none;stroke:#000000;stroke-width:44;stroke-miterlimit:10;}
	.st33{fill:none;stroke:#000000;stroke-width:26;stroke-miterlimit:10;}
	.st34{fill:none;stroke:#000000;stroke-width:32;stroke-miterlimit:10;}
	.st35{fill:none;stroke:#000000;stroke-width:33;stroke-miterlimit:10;}
	.st36{fill:none;stroke:#000000;stroke-width:41;stroke-miterlimit:10;}
	.st37{fill:none;stroke:#000000;stroke-width:56;stroke-miterlimit:10;}
	.st38{fill:none;stroke:#000000;stroke-width:39;stroke-miterlimit:10;}
	.st39{letter-spacing:-1;}
</style>
<defs>
</defs>
<rect x="1535.2" y="846.3" class="st0" width="726" height="118"/>
<text transform="matrix(1 0 0 1 1535.2319 871.1394)"><tspan x="0" y="0" class="st1 st2 st3">SSW mit häufigsten Abbrüchen</tspan><tspan x="0" y="41.9" class="st1 st2 st3">(verschiedene Indikationen darstellen: </tspan><tspan x="0" y="83.9" class="st1 st2 st3">Medizinisch, Beratungsregelation, kriminologisch)</tspan></text>
<circle class="st4" cx="555.7" cy="354.2" r="61.6"/>
<circle class="st5" cx="555.7" cy="354.2" r="97.1"/>
<circle class="st6" cx="555.7" cy="354.2" r="130.2"/>
<circle class="st7" cx="555.7" cy="354.2" r="164.7"/>
<circle class="st8" cx="555.7" cy="354.2" r="201.2"/>
<circle class="st9" cx="555.7" cy="354.2" r="238.4"/>
<circle class="st10" cx="555.7" cy="354.2" r="278.2"/>
<circle class="st11" cx="555.7" cy="354.2" r="314.7"/>
<rect x="0" y="48.6" class="st0" width="198" height="321.3"/>
<text transform="matrix(1 0 0 1 0 73.425)"><tspan x="0" y="0" class="st12 st2 st3">unter 5</tspan><tspan x="0" y="41.9" class="st13 st2 st3">5-6</tspan><tspan x="0" y="83.9" class="st14 st2 st3">7-8</tspan><tspan x="0" y="125.8" class="st15 st2 st3">9-11</tspan><tspan x="0" y="167.7" class="st16 st2 st3">12-15</tspan><tspan x="0" y="209.7" class="st17 st2 st3">16-18</tspan><tspan x="0" y="251.6" class="st18 st2 st3">19-21</tspan><tspan x="0" y="293.5" class="st19 st2 st3">22 und mehr</tspan></text>
<circle class="st20" cx="1414.2" cy="373.9" r="60.5"/>
<circle class="st21" cx="1414.2" cy="373.9" r="112.2"/>
<circle class="st22" cx="1414.2" cy="373.9" r="159.2"/>
<circle class="st23" cx="1414.2" cy="373.9" r="198.8"/>
<circle class="st24" cx="1414.2" cy="373.9" r="235.8"/>
<circle class="st25" cx="1414.2" cy="373.9" r="279.4"/>
<circle class="st26" cx="1414.2" cy="373.9" r="326.1"/>
<circle class="st11" cx="1414.2" cy="373.9" r="368.9"/>
<rect x="1915" y="44.1" class="st0" width="346.3" height="371.8"/>
<text transform="matrix(1 0 0 1 1914.9595 68.9387)"><tspan x="0" y="0" class="st27 st2 st3">unter 5 (10%)</tspan><tspan x="0" y="41.9" class="st28 st2 st3">5-6 (30%) </tspan><tspan x="0" y="83.9" class="st29 st2 st3">7-8 (20%)</tspan><tspan x="0" y="125.8" class="st15 st2 st3">9-11 (...)</tspan><tspan x="0" y="167.7" class="st16 st2 st3">12-15</tspan><tspan x="0" y="209.7" class="st17 st2 st3">16-18</tspan><tspan x="0" y="251.6" class="st18 st2 st3">19-21</tspan><tspan x="0" y="293.5" class="st19 st2 st3">22 und mehr</tspan><tspan x="0" y="335.4" class="st2 st3">-&gt; je mehr desto dicker</tspan></text>
<rect x="28.8" y="730.5" class="st0" width="815.5" height="48.3"/>
<text transform="matrix(1 0 0 1 28.832 758.7375)" class="st27 st2 st30">8 Stufen in Schwangerschaftswochen aufgeteilt</text>
<circle class="st20" cx="1058.3" cy="1147.4" r="60.5"/>
<circle class="st21" cx="1058.3" cy="1147.4" r="112.2"/>
<circle class="st22" cx="1058.3" cy="1147.4" r="159.2"/>
<circle class="st23" cx="1058.3" cy="1147.4" r="198.8"/>
<circle class="st24" cx="1058.3" cy="1147.4" r="235.8"/>
<circle class="st25" cx="1058.3" cy="1147.4" r="279.4"/>
<path class="st26" d="M1384.4,1147.4c0,196.3-177.4,321.7-326.1,326.1c-103.8,3.1-180.3-53.2-203.3-71.6
	c-8.5-6.8-125.6-103.9-122.9-254.6C735,991,866.3,821.3,1058.3,821.3C1238.4,821.3,1384.4,967.3,1384.4,1147.4z"/>
<path class="st26" d="M732.2,1147.4"/>
<path class="st26" d="M1384.5,1147.4c0,196.3-177.4,321.7-326.1,326.1c-103.8,3.1-180.3-53.2-203.3-71.6
	c-8.5-6.8-125.6-103.9-122.9-254.6c2.9-156.4,134.1-326.1,326.1-326.1C1238.5,821.3,1384.5,967.3,1384.5,1147.4z"/>
<path class="st31" d="M732.2,1147.4c0,0-6.7,106.5,63.8,200.1c0,0,99.2,114.6,170.4,115"/>
<circle class="st11" cx="1058.4" cy="1147.4" r="368.9"/>
<path class="st32" d="M676.4,1146.4c0,0-5.1,91.8,48.7,172.5c0,0,89.3,115.2,133.6,138.7"/>
<path class="st33" d="M779.3,1154.5c0,0-17.3,134.2,164.7,252c0,0,94,35.2,158.3,16.9"/>
<path class="st34" d="M822.5,1147.4c0,0,9.6,277.9,308.6,224.4c0,0,55.2-20.7,79.3-44.1"/>
<path class="st35" d="M859.5,1147.4c0,0-18.7,141.3,164.7,198.8c0,0,144.4,1.7,183.9-68.1c0,0,45.2-59.8,46.9-101.7"/>
<path class="st36" d="M899.1,1147.4c0,0-2.9,147.1,159.2,159.2c0,0,125.7-11.4,147.3-98.7c0,0,34-94.6-18.9-154.6"/>
<path class="st37" d="M946.1,1147.4c0,0-1.5,114,112.2,112.2c0,0,121.4-12.4,112.2-112.2c-9.2-99.8-80.4-107.6-80.4-107.6"/>
<path class="st38" d="M997.8,1147.4c0,0-5.1,51.6,60.5,60.5c65.6,8.9,60.5-60.5,60.5-60.5s-3.2-56.8-60.5-60.5c0,0-14.3,0-23.2,4.6"
	/>
<rect x="1474.7" y="1285.9" class="st0" width="726" height="118"/>
<rect x="1373.6" y="1430.1" class="st0" width="572.2" height="80.5"/>
<text transform="matrix(1 0 0 1 1373.5581 1454.9504)"><tspan x="0" y="0" class="st1 st2 st3">Aussparung steht für Fortschritt der SS</tspan><tspan x="0" y="41.9" class="st1 st2 st3">je kleiner desto fortgeschrittener</tspan></text>
<rect x="676.3" y="1143" width="358.8" height="14.9"/>
</svg>
