<!-- Generator: Adobe Illustrator 24.2.1, SVG Export Plug-In  -->
<svg version="1.1" xmlns="http://www.w3.org/2000/svg" xmlns:xlink="http://www.w3.org/1999/xlink" x="0px" y="0px"
	 width="1811.6px" height="2496px" viewBox="0 0 1811.6 2496" style="overflow:visible;enable-background:new 0 0 1811.6 2496;"
	 xml:space="preserve">
<style type="text/css">
	.st0{fill:#A44434;}
	.st1{fill:#BA657B;}
	.st2{fill:#A43255;}
	.st3{fill:#7B142C;}
	.st4{fill:#D36B51;}
	.st5{fill:#C26F32;}
	.st6{fill:#EFC49F;}
	.st7{fill:#1D1D1B;stroke:#F5F5F5;stroke-width:4;stroke-linecap:round;stroke-linejoin:round;stroke-miterlimit:10;}
	.st8{fill:#C26E32;}
	.st9{fill:#C7C7C7;}
</style>
<defs>
</defs>
<rect width="1811.6" height="2496"/>
<g>
	<path class="st0" d="M872.3,780.5c-27.2,1.2-52.6-4-77.1-12.9c-23.3-8.4-44.4-20.7-63.6-36.4c-26-21.4-46.1-47.3-60.1-77.8
		c-9.2-20-15.7-40.8-18.2-62.7c-0.3-2.8-0.6-5.5-0.8-8.3c-0.5-8.8,4.8-11.4,9.8-11.8c6.1-0.5,10.5,3.9,11.1,11
		c2,25.1,9.7,48.5,21,70.8c11.7,23.1,27.7,42.8,47.3,59.7c19.8,17.1,42.1,29.7,66.8,38c13.8,4.6,28,7.6,42.5,9
		c12.5,1.2,25.1,1.2,37.6,0.4c13.8-0.8,27.3-4,40.6-8c26.6-8,50.2-21.3,71.2-39.2c22.2-19,39.5-41.7,51.6-68.2
		c8-17.6,13.4-35.9,16.2-55.2c1.4-9.5,1.2-19.1,2.2-28.6c0.6-5.2,3.9-8.9,9-9c6.8-0.2,10.8,2.7,11.2,8.4c0.8,13.2-0.3,26.3-2.6,39.3
		c-4.3,23.7-12,46.4-23.6,67.5c-8.2,15-18.2,28.8-29.6,41.6c-15.4,17.3-33.2,31.5-53.1,43.2c-20.4,11.9-42.1,20.4-65.3,25.1
		C901.5,779.4,886.5,781.5,872.3,780.5z"/>
	<path class="st1" d="M1023.5,754.1c-0.3-3.1,1-5.8,3.1-7.8c5.2-5,10.6-9.8,16.2-14.5c3.8-3.2,10.4-2.4,13.7,1c3.7,4,4,10,0.4,14
		c-5.1,5.6-10.6,10.7-16.4,15.5c-3.4,2.8-7.4,3.2-11.3,1.3C1025.2,761.7,1023.3,758.5,1023.5,754.1z"/>
	<path class="st2" d="M1087.5,700.2c-6.2,0-10.3-4-10.4-9.9c0-6.5,6-13.4,11.7-13.5c6-0.1,11.2,5,10.8,10.8
		C1099.3,693.2,1094.8,701.1,1087.5,700.2z"/>
	<g>
		<path class="st3" d="M871,824.2c-34.6,0.2-68-6.5-100-19.7c-24-9.9-46.2-23.1-66.2-39.7c-28.8-24-52-52.5-68.5-86.1
			c-11.5-23.5-19.6-48.3-23.9-74.2c-1.7-10.5-2.2-21.2-3-31.8c-0.8-9.9-0.1-19.7,0.5-29.5c0.9-15.6,3.7-31,7.7-46.2
			c5.3-20.2,12.8-39.6,22.7-58c9.6-17.9,21.3-34.4,34.7-49.7c14.1-16.1,30.1-30,47.6-42.2c16.7-11.6,34.8-20.8,53.8-28.3
			c18.5-7.3,37.7-12.2,57.3-15c15.8-2.3,31.8-3.5,47.8-2.6c26.3,1.5,52,6.1,76.8,15c28.4,10.1,54.4,24.5,77.8,43.5
			c27.2,22.1,49.1,48.6,65.6,79.6c12.9,24.3,22,50,26.9,77c2.3,12.2,3.4,24.7,3.7,37.2c0.2,6.9-0.1,13.8-0.2,20.7
			c-0.3,19.1-3.6,37.7-8.4,56.1c-1.1,4.3-6.7,7.8-11,7.2c-4.8-0.6-9-5.2-9-10c0-6.9,2.7-13.3,3.7-19.9c1.7-10.9,3.5-21.8,3.9-32.9
			c0.3-8.2,0.2-16.3-0.1-24.5c-0.8-18.2-3.8-36-8.9-53.5c-7.4-24.9-18-48.3-32.8-69.8c-11-15.9-23.5-30.4-37.9-43.2
			c-29.8-26.7-64.4-44.8-103.2-54.5c-13.7-3.4-27.7-5.3-41.8-6.4c-31.1-2.5-61.2,2-90.6,11.4c-24.2,7.7-46.8,19.2-67.2,34.4
			c-28.1,20.9-51,46.5-68.2,77.2c-12.8,23-21.4,47.5-26.5,73.2c-2.2,11.2-2.9,22.7-3.9,34.2c-0.8,9.5,0,18.9,0.5,28.3
			c1.3,21.5,6.1,42.4,13.6,62.7c6.9,18.8,15.6,36.8,27.1,53.3c9.8,14.1,20.4,27.5,32.9,39.2c28,26.3,60.2,45.3,97.1,56.5
			c13.6,4.1,27.4,6.6,41.4,8.6c14.3,2,28.6,2.1,42.9,1.4c17.8-0.9,35.4-4.1,52.6-9.2c12-3.6,23.6-8.1,35-13.2
			c5.8-2.6,12-0.8,14.3,4.1c2.9,6.1,1.1,11.7-5.5,14.8c-17.6,8.5-36,14.6-55,18.8c-11.6,2.6-23.4,4-35.3,5.2
			C885.1,824.1,878.2,823.8,871,824.2z"/>
		<path class="st4" d="M994.2,384.6c0.3,4.3-1.2,7.5-4.9,9.5c-3.8,2.1-7.7,2-11.4-0.4c-15.4-10-32-17.3-49.5-22.6
			c-12.1-3.7-24.5-6.1-37.2-7.5c-12.2-1.3-24.4-1.5-36.4-0.5c-22,1.8-43.3,7.2-63.7,16.2c-16.8,7.5-32.4,16.8-46.4,28.5
			c-18.8,15.6-34.5,33.9-46.5,55.3c-10.2,18.1-17.3,37.2-21.9,57.3c-0.5,2.1-0.8,4.3-1.1,6.5c-0.9,6.4-6.2,10.9-11.6,9.9
			c-6.5-1.2-10.4-7-9.2-13.5c4.3-23.3,12-45.5,23.2-66.4c7.9-14.8,17.5-28.4,28.6-41c20.4-23.3,44.7-41.2,72.7-54.3
			c18.2-8.5,37.2-14.1,57-17.4c10.1-1.7,20.3-2.2,30.6-2.6c39.9-1.3,77,8.6,111.9,27.4c4.1,2.2,8,4.9,11.9,7.5
			C993.1,378.6,994.7,381.2,994.2,384.6z"/>
		<path class="st5" d="M1047.8,468c0.1-5.5,3.1-9.5,7.5-10.5c5.6-1.3,9.8,0.4,12.2,5c6.9,13.4,12.2,27.4,16,42
			c1.5,5.7-1.8,11.4-7.4,12.9c-5.3,1.5-11.1-1.6-12.7-7.2c-3.8-13.3-8.6-26.2-14.8-38.6C1047.9,470.2,1047.8,468.8,1047.8,468z"/>
		<path class="st6" d="M1027.8,432.4c-6,0-12.5-6.1-12.6-11.8c-0.1-5.9,4.9-10.9,10.7-10.8c6.2,0.1,11.9,6,11.9,12.2
			C1037.8,428.6,1034.1,432.4,1027.8,432.4z"/>
		<g>
			<g>
				<path class="st7" d="M876.8,244.3c0.1-10.2,0.2-20.5,0.3-30.7"/>
				<path class="st7" d="M979.2,257.8c3.4-9.8,6.7-19.6,10-29.5"/>
				<path class="st7" d="M1062.6,293.3c6-8.7,12-17.4,18-26.1"/>
				<path class="st7" d="M1127.9,346.7c8-7,16.1-14,24.1-21.1"/>
				<path class="st7" d="M1174.1,724.5c28.3,14.6,56.7,29.3,85,43.9"/>
				<path class="st7" d="M1127.7,790.8c24,20.9,47.9,41.7,71.9,62.6"/>
				<path class="st7" d="M1062.4,844.1c17.8,25.9,35.7,51.7,53.5,77.6"/>
				<path class="st7" d="M978.6,879.7c0.6,1.8,0.9,2.6,1.5,4.4"/>
				<path class="st7" d="M1174.3,413.1c38-19.6,76.1-39.3,114.1-58.9"/>
				<path class="st7" d="M1202.3,488.7c41.6-10.1,83.2-20.2,124.7-30.3"/>
				<path class="st7" d="M1211.6,569.2c47,0.1,94.1,0.1,141.1,0.2"/>
				<path class="st7" d="M1202.1,649.2c45.7,11.2,91.5,22.3,137.2,33.5"/>
				<path class="st7" d="M876.8,893.1c0,1.8,0.1,2.8,0.1,4.6"/>
			</g>
		</g>
	</g>
</g>
<g id="_x32__2_">
	<path class="st2" d="M1133.9,1250.1c-0.2,144.4-117,261.9-262.1,261.9c-145.3,0.1-263.4-118-262.3-264.3
		c1.1-143.3,117.3-260.1,262.3-260C1017,987.7,1134,1105.4,1133.9,1250.1z"/>
	<path d="M1113.7,1250c-0.1,133-107.8,241.8-242.1,241.8c-134.4,0-242.8-109.3-242-243.6c0.9-132.2,108.1-240.5,242.3-240.3
		C1006.3,1008,1113.8,1116.9,1113.7,1250z"/>
	<path class="st4" d="M873.6,1470.1c-109-0.2-200.4-76.8-218.9-182c-20.3-115.7,53.6-226.7,168.4-252.9c6.9-1.6,12.3,1.4,13.7,7.5
		c1.3,5.7-2.4,10.6-9.3,12.2c-39.8,9.2-74,28.5-101.9,58.4c-29.6,31.6-47.4,69.1-52.3,112.1c-7.8,67.6,13.9,125.1,63,171.7
		c29.2,27.7,64.6,44.2,104.7,50.4c42.6,6.5,83,0,121.4-19.3c4-2,7.9-2.7,11.9,0.1c3.3,2.4,4.5,5.6,4.1,9.5c-0.4,4.1-3.1,6.4-6.5,8.1
		c-19.3,9.9-39.6,16.8-60.9,20.7C898,1468.9,884.9,1470.2,873.6,1470.1z"/>
	<path class="st6" d="M883,1029.8c74.5,6,133.2,39.3,174.6,102c3.5,5.3,3.6,9.6,0.8,13.2c-4.7,6.1-12.9,5.5-17.1-1.4
		c-8.1-13-17.7-24.8-28.6-35.6c-29.3-28.9-64.2-47.1-104.6-54.8c-9-1.7-18-2.2-27.1-3.2c-6.3-0.7-10-5.1-9.4-11.1
		C872.1,1033.5,876.9,1029.7,883,1029.8z"/>
	<path class="st0" d="M1091.9,1255.9c-2,49.3-18,93.5-48.7,132.2c-6.7,8.5-14.2,16.2-22.1,23.6c-3.7,3.5-8.5,4.2-12.3,2.1
		c-3.9-2.1-5.8-6.2-5.2-10.6c0.5-3.1,2.6-5.2,4.7-7.2c18.3-17.1,33-36.9,43.7-59.5c12.7-26.9,19.7-55.2,19.7-85.1
		c0-6.8,4-11.5,10-11.5c5.9-0.1,10.1,4.6,10.2,11.4C1091.9,1252.8,1091.9,1254.3,1091.9,1255.9z"/>
	<path class="st8" d="M1087.3,1205.7c0.1,5.2-3.6,9.6-8.4,10.4c-4.7,0.8-9.9-2.2-11.2-6.8c-1.8-6.2-3.3-12.4-4.8-18.7
		c-1-4.5,2-9.4,6.4-11c4.8-1.8,10.5,0.2,12.4,4.9C1084.5,1191.5,1086,1198.8,1087.3,1205.7z"/>
	<g>
		<g>
			<path class="st7" d="M877.1,898.3c0-2.2,0-3.2,0-5.4"/>
			<path class="st7" d="M775,910.7c-0.6-2.1-1-3.1-1.6-5.2"/>
			<path class="st7" d="M689.3,943.8c-0.5-0.9-0.8-1.3-1.3-2.2"/>
			<path class="st7" d="M621.4,993.4c-0.7-0.7-1.1-1.1-1.8-1.8"/>
			<path class="st7" d="M570.2,1056.3c-0.9-0.6-1.3-0.8-2.2-1.4"/>
			<path class="st7" d="M536.1,1127.9c-0.8-0.3-1.2-0.5-2.1-0.8"/>
			<path class="st7" d="M518.8,1205.6c-0.9-0.1-1.3-0.2-2.2-0.3"/>
			<path class="st7" d="M518.4,1285.4c-0.9,0.1-1.3,0.1-2.2,0.2"/>
			<path class="st7" d="M535.5,1363.3c-1.1,0.4-1.7,0.6-2.9,0.9"/>
			<path class="st7" d="M569.4,1436.2c-1,0.6-1.6,0.9-2.6,1.5"/>
			<path class="st7" d="M620.5,1499.7c-0.9,0.8-1.3,1.2-2.2,2"/>
			<path class="st7" d="M688.8,1549.9c-0.6,1-1,1.5-1.6,2.5"/>
			<path class="st7" d="M774.3,1583.3c-0.4,1.1-0.6,1.7-0.9,2.8"/>
			<path class="st7" d="M774.4,1583.3c-0.4,1.1-0.6,1.7-0.9,2.8"/>
			<path class="st7" d="M877.2,1595.9c0,1.1-0.1,1.7-0.1,2.9"/>
		</g>
	</g>
</g>
<g id="_x33__2_">
	<path class="st9" d="M875,1782.1c88.4-0.2,161.3,72,161.5,159.8c0.2,90.4-71.8,163-161.4,162.8c-88.6-0.1-161.1-72.1-161.3-160.1
		C713.6,1854.5,785.2,1782.3,875,1782.1z"/>
	<path class="st2" d="M1136.6,1950.6c-0.1,144.7-117.2,262.2-262.4,262.1c-145.3-0.1-263.3-118.3-262-264.6
		c1.2-143,117.2-259.7,262.2-259.8C1019.5,1688.3,1136.6,1805.9,1136.6,1950.6z"/>
	<path d="M632.3,1950.3c0.1-133,107.8-241.8,242.1-241.8c134.4,0,243,109.5,241.9,244.1c-1.1,131.9-108.1,240-242.3,239.9
		C739.8,2192.4,632.3,2083.4,632.3,1950.3z"/>
	<path class="st4" d="M653.9,1950.3c3.9-86.5,41.8-152.5,118.5-194.7c27.2-15,56.7-22.7,87.8-24.5c58.5-3.4,110.4,13.8,155.7,50.8
		c1.4,1.1,2.8,2.4,4,3.7c3.8,4.3,3.8,9.6,0.1,13.6c-3.5,3.8-9.4,4.2-13.7,0.9c-4.6-3.5-8.9-7.3-13.5-10.7
		c-29.3-21.5-62.2-34.3-98.3-37.8c-105.7-10.3-196.2,61.3-215.9,158.8c-18.9,93.5,29,185.2,116.3,223.7
		c26.2,11.5,53.6,16.5,82.1,16.5c2.1,0,4.2-0.1,6.3,0.3c4.6,0.9,7.9,5,8,9.5c0.1,4.5-3.1,8.5-7.7,9.8c-2.4,0.7-4.7,0.5-7.1,0.5
		c-41.9,0.2-81.1-10-116.6-32.2c-57.7-36.1-92.1-88.1-103.2-155.4c-0.6-3.7-1.2-7.5-1.5-11.2
		C654.6,1964.7,653.9,1957.6,653.9,1950.3z"/>
	<path class="st0" d="M1094.6,1957.8c-2,48.7-18.2,93.3-49.8,132c-26.9,33-60.6,56-100.9,69.6c-6.5,2.2-11.7,0.6-14.2-4.3
		c-3-5.9-0.2-12.2,6.8-14.5c10.7-3.6,21.3-7.8,31.3-13.2c57.3-31.5,91.9-79.6,103.9-143.8c2-10.4,2.8-21.1,2.7-31.7
		c0-6.8,4.3-11.5,10.2-11.4c6,0.1,9.9,4.7,10,11.6C1094.6,1953.7,1094.6,1955.2,1094.6,1957.8z"/>
	<path class="st6" d="M1050.2,1826.1c8.3-0.1,19.1,16.2,15.6,23.9c-3,6.7-12.6,8-17.1,2.1c-2.8-3.8-5.3-7.9-7.3-12.2
		C1038.5,1833.5,1043.3,1826.2,1050.2,1826.1z"/>
	<path class="st8" d="M1087.3,1895.6c-0.1,5.6-3.6,9.7-8.2,10.4c-5.1,0.8-9.6-1.8-11.3-6.6c-0.9-2.6-1.7-5.3-2.3-8
		c-1.2-5,1.6-10,6.4-11.7c4.6-1.7,10,0.1,12.2,4.6C1085.9,1888,1086.9,1892.1,1087.3,1895.6z"/>
	<g>
		<g>
			<path class="st7" d="M877,2301.1c0,1.1,0.1,1.7,0.1,2.8"/>
			<path class="st7" d="M976.3,2290.2c0.3,1.1,0.5,1.6,0.9,2.7"/>
			<path class="st7" d="M1060.4,2261.2c0.6,1,0.9,1.5,1.5,2.4"/>
			<path class="st7" d="M1129.1,2217c0.8,0.8,1.2,1.3,2.1,2.1"/>
			<path class="st7" d="M1182.6,2160.8c1,0.7,1.5,1,2.5,1.6"/>
			<path class="st7" d="M1220.8,2095.5c1.1,0.4,1.7,0.7,2.8,1.1"/>
			<path class="st7" d="M1243.8,2024.1c1.2,0.2,1.8,0.3,2.9,0.6"/>
			<path class="st7" d="M1251.4,1949.8c1.2,0,1.8,0,3,0"/>
			<path class="st7" d="M1243.8,1875.4c1.2-0.2,1.8-0.4,2.9-0.6"/>
			<path class="st7" d="M1220.9,1804c1.1-0.5,1.6-0.7,2.7-1.2"/>
			<path class="st7" d="M1182.7,1738.7c1-0.7,1.5-1,2.4-1.7"/>
			<path class="st7" d="M1129.2,1682.5c0.8-0.9,1.2-1.3,2-2.1"/>
			<path class="st7" d="M1060.4,1638.3c0.6-1,0.9-1.5,1.4-2.5"/>
			<path class="st7" d="M976.4,1609.3c0.3-1.1,0.5-1.6,0.8-2.7"/>
			<path class="st7" d="M877,1598.4c0-1.1,0-1.7,0-2.8"/>
		</g>
	</g>
</g>
</svg>
