<!-- Generator: Adobe Illustrator 24.2.1, SVG Export Plug-In  -->
<svg version="1.1" xmlns="http://www.w3.org/2000/svg" xmlns:xlink="http://www.w3.org/1999/xlink" x="0px" y="0px"
	 width="2009.2px" height="1436.6px" viewBox="0 0 2009.2 1436.6"
	 style="overflow:visible;enable-background:new 0 0 2009.2 1436.6;" xml:space="preserve">
<style type="text/css">
	.st0{fill:none;}
	.st1{fill:#FFFFFF;}
	.st2{font-family:'MyriadPro-Regular';}
	.st3{font-size:24px;}
	.st4{fill:none;stroke:#F2F2F2;stroke-width:2;stroke-miterlimit:10;}
	.st5{fill:none;stroke:#F2F2F2;stroke-width:4;stroke-miterlimit:10;}
	.st6{fill:none;stroke:#0094A8;stroke-width:5;stroke-miterlimit:10;}
	.st7{opacity:0.75;}
	.st8{fill:#FF8DA8;}
	.st9{clip-path:url(#SVGID_2_);}
	.st10{fill:#D84A72;}
	.st11{clip-path:url(#SVGID_4_);}
	.st12{fill:#910023;}
	.st13{clip-path:url(#SVGID_6_);}
	.st14{fill:#FF7BAC;}
	.st15{clip-path:url(#SVGID_8_);}
	.st16{fill:#FFDAE0;}
	.st17{opacity:0.8;}
	.st18{clip-path:url(#SVGID_10_);}
	.st19{clip-path:url(#SVGID_12_);}
	.st20{clip-path:url(#SVGID_14_);}
	.st21{clip-path:url(#SVGID_16_);}
	.st22{fill:none;stroke:#000000;stroke-miterlimit:10;}
	.st23{fill:none;stroke:#FFFFFF;stroke-width:4;stroke-miterlimit:10;}
	.st24{fill:#FFFFFF;stroke:#FFFFFF;stroke-width:2;stroke-miterlimit:10;}
	.st25{letter-spacing:-1;}
	.st26{clip-path:url(#SVGID_18_);}
	.st27{clip-path:url(#SVGID_20_);}
	.st28{clip-path:url(#SVGID_22_);}
	.st29{clip-path:url(#SVGID_24_);}
	.st30{clip-path:url(#SVGID_26_);}
	.st31{clip-path:url(#SVGID_28_);}
	.st32{clip-path:url(#SVGID_30_);}
	.st33{clip-path:url(#SVGID_32_);}
</style>
<defs>
</defs>
<rect x="721.9" y="1040" class="st0" width="1026.1" height="396.6"/>
<text transform="matrix(1 0 0 1 721.871 1057.0729)"><tspan x="0" y="0" class="st1 st2 st3">Pro:</tspan><tspan x="0" y="28.8" class="st1 st2 st3">ansprechendere Optik,</tspan><tspan x="0" y="57.6" class="st1 st2 st3">Keine Asoziation mit Zersplitterndem Glas,</tspan><tspan x="0" y="86.4" class="st1 st2 st3">-&gt; weniger wertend </tspan><tspan x="0" y="144" class="st1 st2 st3">Kontra:</tspan><tspan x="0" y="172.8" class="st1 st2 st3">Sehr große Wert unterschiede, könnte im kleinen Bereich schwierigkeiten geben mit der Gesamtzahl </tspan><tspan x="0" y="201.6" class="st1 st2 st3">der Schwangeren</tspan><tspan x="0" y="259.2" class="st1 st2 st3">Kein Logischer Grund warum Familienstand die Begründung umkreist oder andersherum -&gt; Aussage?</tspan><tspan x="0" y="316.8" class="st1 st2 st3">Es ist nicht klar das die Erhebungsintervalle unterschiedlich lang sind</tspan></text>
<rect x="822.9" y="713" class="st0" width="327.2" height="163"/>
<text transform="matrix(1 0 0 1 822.871 730.0729)"><tspan x="0" y="0" class="st1 st2 st3">Äußerer Kreis</tspan><tspan x="0" y="28.8" class="st1 st2 st3">Gesamtzahl Schangerschaften</tspan><tspan x="0" y="86.4" class="st1 st2 st3">Innerer Kreis </tspan><tspan x="0" y="115.2" class="st1 st2 st3">Gesamtzahl Abbrüche</tspan></text>
<rect x="1622.9" y="722" class="st0" width="318.2" height="161"/>
<text transform="matrix(1 0 0 1 1622.871 739.0729)"><tspan x="0" y="0" class="st1 st2 st3">Äußerer Ring</tspan><tspan x="0" y="28.8" class="st1 st2 st3">Begründung für den Abbruch</tspan><tspan x="0" y="86.4" class="st1 st2 st3">Innerer Ring</tspan><tspan x="0" y="115.2" class="st1 st2 st3">Familienstand</tspan></text>
<g>
	<circle class="st4" cx="230.2" cy="313.7" r="196.4"/>
	<circle class="st5" cx="33.7" cy="295" r="31.7"/>
	<circle class="st5" cx="422.7" cy="303.3" r="31.7"/>
	<circle class="st5" cx="232.6" cy="504.9" r="31.7"/>
	<circle class="st5" cx="232.6" cy="126.9" r="31.7"/>
	<circle class="st5" cx="77" cy="441.8" r="31.7"/>
	<circle class="st5" cx="99" cy="168.8" r="31.7"/>
	<circle class="st6" cx="378.6" cy="177.7" r="31.7"/>
	<circle class="st5" cx="382.6" cy="436.9" r="31.7"/>
</g>
<g class="st7">
	<g>
		<g id="XMLID_24_">
			<g>
				<path class="st8" d="M1976.2,187.7c78.8,162.6,10.8,358.3-151.8,437s-358.3,10.8-437-151.8c-78.8-162.6-10.8-358.3,151.8-437
					S1897.5,25,1976.2,187.7z M1793.9,570.7c130.7-63.3,185.3-220.6,122-351.3c-63.3-130.7-220.6-185.3-351.3-122
					s-185.3,220.6-122,351.3C1506,579.3,1663.2,634,1793.9,570.7z"/>
			</g>
			<g>
			</g>
		</g>
		<g>
			<defs>
				
					<rect id="SVGID_1_" x="1318.1" y="363" transform="matrix(0.4359 0.9 -0.9 0.4359 1201.9548 -1023.0618)" width="198" height="168.6"/>
			</defs>
			<clipPath id="SVGID_2_">
				<use xlink:href="#SVGID_1_"  style="overflow:visible;"/>
			</clipPath>
			<g id="XMLID_23_" class="st9">
				<g>
					<path class="st10" d="M1974.9,184.9c78.8,162.6,10.8,358.3-151.8,437s-358.3,10.8-437-151.8s-10.8-358.3,151.8-437
						S1896.1,22.3,1974.9,184.9z M1792.6,567.9c130.7-63.3,185.3-220.6,122-351.3c-63.3-130.7-220.6-185.3-351.3-122
						s-185.3,220.6-122,351.3C1504.6,576.6,1661.9,631.2,1792.6,567.9z"/>
				</g>
				<g>
				</g>
			</g>
		</g>
	</g>
	<g>
		<g id="XMLID_22_">
			<g>
				<path class="st10" d="M1856.6,425.1c-49.2,100.6-170.6,142.2-271.2,93s-142.2-170.6-93-271.2c49.2-100.6,170.6-142.2,271.2-93
					S1905.8,324.6,1856.6,425.1z M1600.1,482.7c80.8,39.5,178.4,6.1,218-74.8c39.5-80.8,6.1-178.4-74.8-218
					c-80.8-39.5-178.4-6.1-218,74.8C1485.8,345.5,1519.3,443.1,1600.1,482.7z"/>
			</g>
			<g>
			</g>
		</g>
		<g>
			<defs>
				
					<rect id="SVGID_3_" x="1454.9" y="199.5" transform="matrix(-0.4394 0.8983 -0.8983 -0.4394 2408.6145 -999.6765)" width="122.7" height="104.5"/>
			</defs>
			<clipPath id="SVGID_4_">
				<use xlink:href="#SVGID_3_"  style="overflow:visible;"/>
			</clipPath>
			<g id="XMLID_21_" class="st11">
				<g>
					<path class="st12" d="M1857.4,423.4c-49.2,100.6-170.6,142.2-271.2,93c-100.6-49.2-142.2-170.6-93-271.2
						c49.2-100.6,170.6-142.2,271.2-93S1906.6,322.9,1857.4,423.4z M1600.9,480.9c80.8,39.5,178.4,6.1,218-74.8
						c39.5-80.8,6.1-178.4-74.8-218c-80.8-39.5-178.4-6.1-218,74.8C1486.6,343.8,1520.1,441.4,1600.9,480.9z"/>
				</g>
				<g>
				</g>
			</g>
		</g>
		<g>
			<defs>
				
					<rect id="SVGID_5_" x="1638.7" y="107.7" transform="matrix(-0.9951 -9.933650e-02 9.933650e-02 -0.9951 3375.8315 488.0121)" width="122.7" height="104.5"/>
			</defs>
			<clipPath id="SVGID_6_">
				<use xlink:href="#SVGID_5_"  style="overflow:visible;"/>
			</clipPath>
			<g id="XMLID_20_" class="st13">
				<g>
					<path class="st14" d="M1657.8,539.6c-111.4-11.1-192.7-110.4-181.6-221.9c11.1-111.4,110.5-192.7,221.9-181.6
						c111.4,11.1,192.7,110.4,181.6,221.9C1868.6,469.4,1769.2,550.7,1657.8,539.6z M1514.6,319.2c-8.9,89.5,56.4,169.4,145.9,178.3
						c89.5,8.9,169.4-56.4,178.3-145.9c8.9-89.5-56.4-169.4-145.9-178.3C1603.4,164.3,1523.6,229.6,1514.6,319.2z"/>
				</g>
				<g>
				</g>
			</g>
		</g>
		<g>
			<defs>
				
					<rect id="SVGID_7_" x="1529.4" y="125.2" transform="matrix(-0.8817 0.4717 -0.4717 -0.8817 3077.0994 -416.5462)" width="122.7" height="104.5"/>
			</defs>
			<clipPath id="SVGID_8_">
				<use xlink:href="#SVGID_7_"  style="overflow:visible;"/>
			</clipPath>
			<g id="XMLID_19_" class="st15">
				<g>
					<path class="st16" d="M1767.1,516.2c-98.7,52.8-221.6,15.6-274.4-83.1c-52.8-98.7-15.6-221.6,83.1-274.4
						c98.7-52.8,221.6-15.6,274.4,83.1C1903.1,340.6,1865.9,463.4,1767.1,516.2z M1525.4,412.9c42.5,79.3,141.2,109.3,220.5,66.8
						c79.3-42.5,109.3-141.2,66.8-220.5c-42.4-79.3-141.2-109.3-220.5-66.8S1483,333.6,1525.4,412.9z"/>
				</g>
				<g>
				</g>
			</g>
		</g>
	</g>
</g>
<g class="st17">
	<g>
		<g id="XMLID_18_">
			<g>
				<path class="st8" d="M971.8,298.6c20.5,42.3,2.8,93.2-39.5,113.7c-42.3,20.5-93.2,2.8-113.7-39.5
					c-20.5-42.3-2.8-93.2,39.5-113.7C900.4,238.6,951.3,256.2,971.8,298.6z M924.4,398.2c34-16.5,48.2-57.4,31.8-91.4
					c-16.5-34-57.4-48.2-91.4-31.8c-34,16.5-48.2,57.4-31.8,91.4C849.5,400.5,890.4,414.7,924.4,398.2z"/>
			</g>
			<g>
			</g>
		</g>
		<g>
			<defs>
				
					<rect id="SVGID_9_" x="800.6" y="344.2" transform="matrix(0.4359 0.9 -0.9 0.4359 795.6351 -537.1796)" width="51.5" height="43.9"/>
			</defs>
			<clipPath id="SVGID_10_">
				<use xlink:href="#SVGID_9_"  style="overflow:visible;"/>
			</clipPath>
			<g id="XMLID_17_" class="st18">
				<g>
					<path class="st10" d="M971.4,297.8c20.5,42.3,2.8,93.2-39.5,113.7c-42.3,20.5-93.2,2.8-113.7-39.5s-2.8-93.2,39.5-113.7
						C900.1,237.8,951,255.5,971.4,297.8z M924,397.5c34-16.5,48.2-57.4,31.8-91.4c-16.5-34-57.4-48.2-91.4-31.8
						c-34,16.5-48.2,57.4-31.8,91.4S890,413.9,924,397.5z"/>
				</g>
				<g>
				</g>
			</g>
		</g>
	</g>
	<g>
		<g id="XMLID_16_">
			<g>
				<path class="st10" d="M940.7,360.3c-12.8,26.2-44.4,37-70.6,24.2c-26.2-12.8-37-44.4-24.2-70.6c12.8-26.2,44.4-37,70.6-24.2
					C942.6,302.6,953.5,334.2,940.7,360.3z M873.9,375.3c21,10.3,46.4,1.6,56.7-19.5c10.3-21,1.6-46.4-19.5-56.7
					c-21-10.3-46.4-1.6-56.7,19.5C844.2,339.6,852.9,365,873.9,375.3z"/>
			</g>
			<g>
			</g>
		</g>
		<g>
			<defs>
				
					<rect id="SVGID_11_" x="836.2" y="301.6" transform="matrix(-0.4394 0.8983 -0.8983 -0.4394 1509.7296 -311.7081)" width="31.9" height="27.2"/>
			</defs>
			<clipPath id="SVGID_12_">
				<use xlink:href="#SVGID_11_"  style="overflow:visible;"/>
			</clipPath>
			<g id="XMLID_15_" class="st19">
				<g>
					<path class="st12" d="M940.9,359.9c-12.8,26.2-44.4,37-70.6,24.2c-26.2-12.8-37-44.4-24.2-70.6c12.8-26.2,44.4-37,70.6-24.2
						C942.9,302.1,953.7,333.7,940.9,359.9z M874.2,374.9c21,10.3,46.4,1.6,56.7-19.5c10.3-21,1.6-46.4-19.5-56.7
						c-21-10.3-46.4-1.6-56.7,19.5C844.4,339.2,853.1,364.6,874.2,374.9z"/>
				</g>
				<g>
				</g>
			</g>
		</g>
		<g>
			<defs>
				
					<rect id="SVGID_13_" x="884" y="277.8" transform="matrix(-0.9951 -9.933650e-02 9.933650e-02 -0.9951 1766.5133 670.645)" width="31.9" height="27.2"/>
			</defs>
			<clipPath id="SVGID_14_">
				<use xlink:href="#SVGID_13_"  style="overflow:visible;"/>
			</clipPath>
			<g id="XMLID_14_" class="st20">
				<g>
					<path class="st14" d="M889,390.1c-29-2.9-50.1-28.7-47.2-57.7c2.9-29,28.7-50.1,57.7-47.2c29,2.9,50.1,28.7,47.2,57.7
						C943.8,371.9,917.9,393,889,390.1z M851.7,332.8c-2.3,23.3,14.7,44.1,38,46.4s44.1-14.7,46.4-38c2.3-23.3-14.7-44.1-38-46.4
						S854,309.5,851.7,332.8z"/>
				</g>
				<g>
				</g>
			</g>
		</g>
		<g>
			<defs>
				
					<rect id="SVGID_15_" x="855.6" y="282.3" transform="matrix(-0.8817 0.4717 -0.4717 -0.8817 1779.5468 145.6527)" width="31.9" height="27.2"/>
			</defs>
			<clipPath id="SVGID_16_">
				<use xlink:href="#SVGID_15_"  style="overflow:visible;"/>
			</clipPath>
			<g id="XMLID_1_" class="st21">
				<g>
					<path class="st16" d="M917.4,384c-25.7,13.7-57.6,4.1-71.4-21.6c-13.7-25.7-4.1-57.6,21.6-71.4c25.7-13.7,57.6-4.1,71.4,21.6
						C952.8,338.3,943.1,370.3,917.4,384z M854.5,357.2c11,20.6,36.7,28.4,57.4,17.4c20.6-11,28.4-36.7,17.4-57.4
						c-11-20.6-36.7-28.4-57.4-17.4C851.3,310.8,843.5,336.5,854.5,357.2z"/>
				</g>
				<g>
				</g>
			</g>
		</g>
	</g>
</g>
<circle class="st6" cx="896.8" cy="341.9" r="295.4"/>
<g>
	<circle class="st22" cx="188.6" cy="733.6" r="29"/>
	<circle class="st23" cx="189.6" cy="815.7" r="29"/>
	<circle class="st23" cx="194.6" cy="974" r="29"/>
	<circle class="st23" cx="192.1" cy="892" r="29"/>
	<circle class="st23" cx="194.3" cy="1060.3" r="29"/>
	<circle class="st23" cx="195.4" cy="1145.2" r="29"/>
	<circle class="st23" cx="196.5" cy="1228.6" r="29"/>
	<circle class="st23" cx="200.4" cy="1310.6" r="29"/>
	<line class="st24" x1="191.2" y1="673.7" x2="200.4" y2="1376.6"/>
	<circle class="st6" cx="190" cy="735.2" r="29"/>
</g>
</svg>
