<!-- Generator: Adobe Illustrator 24.2.1, SVG Export Plug-In  -->
<svg version="1.1" xmlns="http://www.w3.org/2000/svg" xmlns:xlink="http://www.w3.org/1999/xlink" x="0px" y="0px" width="1924px"
	 height="1063px" viewBox="0 0 1924 1063" style="overflow:visible;enable-background:new 0 0 1924 1063;" xml:space="preserve">
<style type="text/css">
	.st0{fill:#FFFFFF;}
	.st1{fill:none;stroke:#E5007E;stroke-width:17;stroke-linecap:round;stroke-miterlimit:10;}
	.st2{fill:#D64D68;}
	.st3{fill:#DF80B1;}
	.st4{fill:#8C3843;}
	.st5{fill:#A2195B;}
	.st6{fill:none;stroke:#E5007E;stroke-width:15;stroke-miterlimit:10;}
	.st7{fill:#C37AA5;}
	.st8{fill:none;stroke:#E5007E;stroke-width:15;stroke-linecap:round;stroke-miterlimit:10;}
	.st9{fill:#8C4172;}
	.st10{fill:#AD4186;}
	.st11{fill:#1D1D1B;stroke:#F5F5F5;stroke-width:4;stroke-linecap:round;stroke-linejoin:round;stroke-miterlimit:10;}
	.st12{opacity:0.4;fill:#6F6F6E;}
	.st13{fill:none;stroke:#FFFFFF;stroke-miterlimit:10;}
</style>
<defs>
</defs>
<g>
	<rect x="0.5" y="0.5" width="1923" height="1062"/>
	<path class="st0" d="M1923,1v1061H1V1H1923 M1924,0H0v1063h1924V0L1924,0z"/>
</g>
<g>
	<g>
		<path class="st1" d="M648.6,336.9"/>
		<path class="st1" d="M614.7,339.8"/>
		<path class="st2" d="M593.4,354.3c-4,0-7.7-2.6-9-6.6c-1.5-4.9,1.2-10.2,6.2-11.7c4.7-1.5,9.5-2.8,14.3-3.9c5-1.2,10.1,2,11.2,7
			c1.2,5-2,10.1-7,11.2c-4.4,1-8.7,2.2-13,3.5C595.2,354.1,594.3,354.3,593.4,354.3z"/>
		<path class="st1" d="M584.2,347.7"/>
		<path class="st1" d="M569.2,353.7"/>
		<path class="st3" d="M572.1,366.3c-0.2,0.1-1.3-1.8-3.1-5.3c-2.6-4.9-5.5-10.9-6.5-13.5c-0.1-0.2-0.2-0.5-0.3-0.7
			c-1-2.6,0.2-0.7,2.8,4.2c2.6,4.9,5.5,10.9,6.5,13.5l0.2,0.6C572,365.9,572.1,366.3,572.1,366.3z"/>
		<path class="st1" d="M574.3,361.3"/>
		<path class="st4" d="M495.9,663.7c-2.7,0-5.5-1.2-7.3-3.5c-28.9-36.1-44.8-81.5-44.8-127.9c0-69.2,34.6-133.3,92.5-171.3
			c4.3-2.8,10.1-1.6,13,2.7c2.8,4.3,1.6,10.1-2.7,13c-52.6,34.6-84.1,92.7-84.1,155.6c0,42.7,14.1,82.9,40.7,116.1
			c3.2,4,2.6,9.9-1.5,13.2C500,663,498,663.7,495.9,663.7z"/>
		<g>
			<path class="st5" d="M536.6,701.8c-1.9,0-3.7-0.6-5.4-1.7c-3.1-2.2-6.2-4.5-9.1-6.8c-4.1-3.2-4.8-9.1-1.6-13.2
				c3.2-4.1,9.1-4.8,13.2-1.6c2.7,2.1,5.5,4.2,8.3,6.2c4.2,3,5.3,8.8,2.3,13.1C542.4,700.5,539.5,701.8,536.6,701.8z"/>
			<path class="st5" d="M648.6,737.1c-42.3,0-82.9-12.8-117.4-36.9c-4.2-3-5.3-8.8-2.3-13.1c3-4.2,8.8-5.3,13.1-2.3
				c31.3,22,68.2,33.6,106.6,33.6c102.6,0,186-83.5,186-186s-83.5-186-186-186c-5.2,0-9.4-4.2-9.4-9.4s4.2-9.4,9.4-9.4
				c112.9,0,204.8,91.9,204.8,204.8C853.3,645.2,761.5,737.1,648.6,737.1z"/>
		</g>
		<path class="st6" d="M648.6,293"/>
		<path class="st7" d="M633,303.6c-1.1,0-2.1-2.8-2.3-6.6c-0.2-4,0.5-7.4,1.7-7.7l0.4,7.2l-0.4-7.2l0.1,0c1.1-0.2,2.2,2.8,2.4,6.7
			c0.2,4-0.6,7.4-1.7,7.6C633.1,303.6,633,303.6,633,303.6z"/>
		<path class="st6" d="M620.2,294.7"/>
		<path class="st6" d="M617.2,295"/>
		<path class="st8" d="M614.4,295.4"/>
		<g>
			<path class="st9" d="M648.6,782.1c-66.9,0-129.8-25.7-177.1-72.5c-47.4-46.8-73.4-109-73.4-175.1c0-59.7,21.8-117.4,61.4-162.4
				c39.2-44.5,93.1-73.8,151.9-82.5c4.5-0.7,8.7,2.5,9.4,7c0.7,4.5-2.5,8.7-7,9.4c-54.9,8.1-105.3,35.5-141.9,77.1
				c-36.9,42-57.3,95.8-57.3,151.5c0,127.4,105,231.1,234,231.1s234-103.7,234-231.1c0-116.6-88.2-215.2-205.2-229.4
				c-4.5-0.6-7.8-4.7-7.2-9.2c0.6-4.5,4.7-7.8,9.2-7.2c125.3,15.2,219.7,120.9,219.7,245.8c0,66.2-26.1,128.4-73.4,175.1
				C778.4,756.4,715.5,782.1,648.6,782.1z"/>
			<path d="M676.4,296.7c0.7,0.1,1.3,0.2,2,0.2"/>
		</g>
		<path class="st8" d="M660,293.3"/>
		<path class="st10" d="M654.1,304.4c-0.1,0-0.1,0-0.2,0l-1.7,0c-4.6-0.1-8.2-3.8-8.2-8.4c0.1-4.5,3.8-8.2,8.3-8.2c0,0,0.1,0,0.1,0
			l1.8,0c4.6,0.1,8.2,3.9,8.1,8.4C662.3,300.8,658.6,304.4,654.1,304.4z"/>
	</g>
	<g>
		<g>
			<path class="st11" d="M647.9,188.6c0.1-11,0.2-21.9,0.3-32.9"/>
			<path class="st11" d="M757.4,203.1c3.6-10.5,7.2-21,10.7-31.5"/>
			<path class="st11" d="M846.5,241c6.4-9.3,12.8-18.6,19.2-28"/>
			<path class="st11" d="M916.3,298c8.6-7.5,17.2-15,25.8-22.6"/>
			<path class="st11" d="M965.8,701.7c30.3,15.7,60.7,31.3,91,47"/>
			<path class="st11" d="M916.2,772.5c25.7,22.3,51.3,44.7,77,67"/>
			<path class="st11" d="M846.3,829.6c19.1,27.7,38.2,55.4,57.3,83.1"/>
			<path class="st11" d="M756.8,867.5c0.7,1.9,1,2.8,1.7,4.7"/>
			<path class="st11" d="M965.9,369c40.7-21,81.5-42.1,122.2-63.1"/>
			<path class="st11" d="M995.8,449.7c44.5-10.8,89-21.6,133.6-32.5"/>
			<path class="st11" d="M1005.8,535.8c50.4,0.1,100.7,0.1,151.1,0.2"/>
			<path class="st11" d="M995.7,621.3c49,12,97.9,23.9,146.9,35.9"/>
			<path class="st11" d="M647.8,881.8c0,2,0.1,2.9,0.1,4.9"/>
		</g>
	</g>
	<circle class="st12" cx="648.3" cy="532.3" r="158.3"/>
</g>
<rect x="112.1" y="72.2" style="fill:none;" width="133.2" height="153.7"/>
<text transform="matrix(1 0 0 1 112.125 182.609)" class="st0" style="font-family:'Rockwell-Regular'; font-size:150px;">1</text>
<rect x="1352.4" y="275.9" style="fill:none;" width="423.1" height="127.6"/>
<text transform="matrix(1 0 0 1 1352.4312 289.5505)" class="st0" style="font-family:'AvenirNext-Medium'; font-size:18px;">Textfeld</text>
<rect x="1316" y="225" class="st13" width="495.5" height="638"/>
<rect x="122.4" y="326.9" style="fill:none;" width="56.6" height="127.6"/>
<text transform="matrix(1 0 0 1 122.4312 340.5505)" class="st0" style="font-family:'AvenirNext-Medium'; font-size:18px;">Menü</text>
<rect x="77" y="276" class="st13" width="152.5" height="638"/>
</svg>
