<!-- Generator: Adobe Illustrator 24.2.1, SVG Export Plug-In  -->
<svg version="1.1" xmlns="http://www.w3.org/2000/svg" xmlns:xlink="http://www.w3.org/1999/xlink" x="0px" y="0px" width="285.9px"
	 height="743.9px" viewBox="0 0 285.9 743.9" style="overflow:visible;enable-background:new 0 0 285.9 743.9;"
	 xml:space="preserve">
<style type="text/css">
	.st0{fill:none;stroke:#E5007E;stroke-width:17;stroke-linecap:round;stroke-miterlimit:10;}
	.st1{fill:#D64D68;}
	.st2{fill:#DF80B1;}
	.st3{fill:#8C3843;}
	.st4{fill:#A2195B;}
	.st5{fill:none;stroke:#E5007E;stroke-width:15;stroke-miterlimit:10;}
	.st6{fill:#C37AA5;}
	.st7{fill:none;stroke:#E5007E;stroke-width:15;stroke-linecap:round;stroke-miterlimit:10;}
	.st8{fill:#8C4172;}
	.st9{fill:#AD4186;}
	.st10{fill:none;stroke:#C37AA5;stroke-width:18;stroke-linecap:round;stroke-miterlimit:10;}
	.st11{fill:#1D1D1B;stroke:#F5F5F5;stroke-width:4;stroke-linecap:round;stroke-linejoin:round;stroke-miterlimit:10;}
	.st12{opacity:0.4;fill:#6F6F6E;}
</style>
<defs>
</defs>
<g>
	<g>
		<path class="st0" d="M124.5,93.2"/>
		<path class="st0" d="M113.8,94.2"/>
		<path class="st1" d="M107,98.7c-1.3,0-2.4-0.8-2.8-2.1c-0.5-1.6,0.4-3.2,2-3.7c1.5-0.5,3-0.9,4.5-1.2c1.6-0.4,3.2,0.6,3.6,2.2
			c0.4,1.6-0.6,3.2-2.2,3.6c-1.4,0.3-2.8,0.7-4.1,1.1C107.6,98.7,107.3,98.7,107,98.7z"/>
		<path class="st0" d="M104.1,96.7"/>
		<path class="st0" d="M99.4,98.5"/>
		<path class="st2" d="M100.3,102.5c0,0-0.4-0.6-1-1.7c-0.8-1.5-1.7-3.4-2.1-4.3c0-0.1-0.1-0.1-0.1-0.2c-0.3-0.8,0.1-0.2,0.9,1.3
			c0.8,1.5,1.7,3.4,2.1,4.3l0.1,0.2C100.3,102.4,100.3,102.5,100.3,102.5z"/>
		<path class="st0" d="M101,101"/>
		<path class="st3" d="M76.2,196.5c-0.9,0-1.7-0.4-2.3-1.1C64.8,184,59.7,169.7,59.7,155c0-21.9,10.9-42.1,29.3-54.2
			c1.4-0.9,3.2-0.5,4.1,0.9c0.9,1.4,0.5,3.2-0.9,4.1c-16.6,10.9-26.6,29.3-26.6,49.2c0,13.5,4.4,26.2,12.9,36.7
			c1,1.3,0.8,3.1-0.5,4.2C77.5,196.3,76.9,196.5,76.2,196.5z"/>
		<g>
			<path class="st4" d="M89.1,208.6c-0.6,0-1.2-0.2-1.7-0.5c-1-0.7-2-1.4-2.9-2.1c-1.3-1-1.5-2.9-0.5-4.2c1-1.3,2.9-1.5,4.2-0.5
				c0.9,0.7,1.7,1.3,2.6,2c1.3,0.9,1.7,2.8,0.7,4.1C90.9,208.2,90,208.6,89.1,208.6z"/>
			<path class="st4" d="M124.5,219.8c-13.4,0-26.2-4-37.1-11.7c-1.3-0.9-1.7-2.8-0.7-4.1c0.9-1.3,2.8-1.7,4.1-0.7
				c9.9,6.9,21.6,10.6,33.7,10.6c32.4,0,58.8-26.4,58.8-58.8s-26.4-58.8-58.8-58.8c-1.6,0-3-1.3-3-3c0-1.6,1.3-3,3-3
				c35.7,0,64.7,29,64.7,64.7C189.2,190.7,160.2,219.8,124.5,219.8z"/>
		</g>
		<path class="st5" d="M124.5,79.4"/>
		<path class="st6" d="M119.5,82.7c-0.3,0-0.7-0.9-0.7-2.1c-0.1-1.2,0.2-2.3,0.5-2.4l0.1,2.3l-0.1-2.3l0,0c0.4-0.1,0.7,0.9,0.8,2.1
			C120.2,81.6,119.9,82.6,119.5,82.7C119.6,82.7,119.5,82.7,119.5,82.7z"/>
		<path class="st5" d="M115.5,79.9"/>
		<path class="st5" d="M114.6,80"/>
		<path class="st7" d="M113.7,80.1"/>
		<g>
			<path class="st8" d="M124.5,234c-21.2,0-41-8.1-56-22.9c-15-14.8-23.2-34.5-23.2-55.4c0-18.9,6.9-37.1,19.4-51.3
				C77,90.3,94.1,81,112.7,78.3c1.4-0.2,2.8,0.8,3,2.2c0.2,1.4-0.8,2.8-2.2,3C96.1,86,80.2,94.7,68.6,107.8
				c-11.7,13.3-18.1,30.3-18.1,47.9c0,40.3,33.2,73.1,74,73.1s74-32.8,74-73.1c0-36.8-27.9-68-64.9-72.5c-1.4-0.2-2.5-1.5-2.3-2.9
				c0.2-1.4,1.5-2.5,2.9-2.3c39.6,4.8,69.5,38.2,69.5,77.7c0,20.9-8.2,40.6-23.2,55.4C165.5,225.9,145.6,234,124.5,234z"/>
			<path d="M133.3,80.5c0.2,0,0.4,0,0.6,0.1"/>
		</g>
		<path class="st7" d="M128.1,79.4"/>
		<path class="st9" d="M126.2,83C126.2,83,126.2,83,126.2,83l-0.6,0c-1.4,0-2.6-1.2-2.6-2.7c0-1.4,1.2-2.6,2.6-2.6c0,0,0,0,0,0
			l0.6,0c1.4,0,2.6,1.2,2.6,2.7C128.8,81.8,127.6,83,126.2,83z"/>
	</g>
	<g>
		<path class="st0" d="M124.4,334.8"/>
		<path class="st0" d="M115.7,335.6"/>
		<path class="st0" d="M107.8,337.6"/>
		<path class="st0" d="M105.3,341.1"/>
		<path class="st6" d="M124.4,466c-21.2,0-41.1-8.2-56-23.2c-15-15-23.2-34.9-23.2-56c0-21.2,8.2-41.1,23.2-56
			c15-15,34.9-23.2,56-23.2c21.2,0,41.1,8.2,56,23.2c15,15,23.2,34.9,23.2,56c0,21.2-8.2,41.1-23.2,56
			C165.5,457.8,145.6,466,124.4,466z M124.4,312.8c-40.8,0-74,33.2-74,74s33.2,74,74,74s74-33.2,74-74S165.2,312.8,124.4,312.8z"/>
		<path class="st5" d="M141.8,342.8"/>
		<path class="st5" d="M132.5,343.3"/>
		<path class="st5" d="M131.5,343.5"/>
		<path class="st7" d="M130.5,343.6"/>
		<path class="st7" d="M145.6,342.9"/>
		<path class="st10" d="M124.5,334.5"/>
		<path class="st1" d="M112.8,329.1c-1.2,0-2.4-0.8-2.8-2c-0.5-1.6,0.3-3.2,1.9-3.7c0.2-0.1,0.3-0.1,0.5-0.1
			c1.6-0.4,3.2,0.6,3.6,2.1c0.4,1.6-0.6,3.2-2.1,3.6C113.4,329,113.1,329.1,112.8,329.1z"/>
		<path class="st10" d="M110.6,336.4"/>
		<path class="st2" d="M105.1,332.1c-0.2,0-0.3-0.4-1.4-3.4c-0.2-0.6-1.3-3.5-1.2-3.8l0-0.1l0.1-0.1c0.2-0.1,0.3-0.1,1.6,3.5
			c1,2.7,1.2,3.4,1.2,3.6l0,0l0,0.1L105.1,332.1C105.1,332.1,105.1,332.1,105.1,332.1z"/>
		<g>
			<path class="st3" d="M74.2,353.6c-0.6,0-1.2-0.2-1.7-0.6c-1.3-1-1.6-2.8-0.7-4.1c5.6-7.7,12.9-14.2,21.2-18.8
				c1.4-0.8,3.2-0.3,4,1.2c0.8,1.4,0.3,3.2-1.2,4c-7.5,4.2-14.2,10.1-19.3,17.1C76.1,353.2,75.2,353.6,74.2,353.6z"/>
			<path class="st3" d="M67.4,365.8c-0.4,0-0.8-0.1-1.1-0.2c-1.5-0.6-2.2-2.4-1.6-3.9c1.9-4.5,4.3-8.8,7.2-12.7
				c1-1.3,2.8-1.6,4.1-0.7c1.3,1,1.6,2.8,0.7,4.1c-2.6,3.6-4.8,7.5-6.5,11.6C69.7,365.1,68.6,365.8,67.4,365.8z"/>
			<path class="st3" d="M124.4,451.4c-35.2,0-64.1-28.3-64.7-63.5c-0.2-9.1,1.5-17.9,5-26.2c0.6-1.5,2.4-2.2,3.9-1.6
				c1.5,0.6,2.2,2.4,1.6,3.9c-3.2,7.6-4.7,15.6-4.6,23.8c0.6,32.1,26.9,57.7,58.8,57.7c0.4,0,0.7,0,1.1,0c15.7-0.3,30.4-6.7,41.3-18
				c10.9-11.3,16.8-26.2,16.5-41.9c-0.2-9-2.3-17.6-6.3-25.5c-0.7-1.5-0.2-3.2,1.3-4c1.5-0.7,3.2-0.2,4,1.3c4.4,8.7,6.8,18.2,7,28.1
				c0.3,17.3-6.1,33.7-18.1,46.1c-12,12.4-28.1,19.5-45.4,19.8C125.2,451.4,124.8,451.4,124.4,451.4z"/>
		</g>
		<path class="st10" d="M164.3,353.8"/>
		<path class="st4" d="M171.7,349.9c-0.8,0-1.7-0.4-2.3-1.1c-11.2-13.3-27.6-20.9-45-20.9c-1.6,0-3-1.3-3-3s1.3-3,3-3
			c19.1,0,37.2,8.4,49.5,23.1c1.1,1.3,0.9,3.1-0.4,4.2C173.1,349.7,172.4,349.9,171.7,349.9z"/>
	</g>
	<g>
		<path class="st0" d="M124.8,567.3"/>
		<path class="st0" d="M117.6,567.6"/>
		<path class="st0" d="M104.6,570.6"/>
		<path class="st0" d="M99.9,572.4"/>
		<path class="st0" d="M101.5,574.8"/>
		<path class="st6" d="M124.5,705.9c-21.2,0-41.1-8.2-56-23.2c-15-15-23.2-34.9-23.2-56s8.2-41.1,23.2-56c15-15,34.9-23.2,56-23.2
			s41.1,8.2,56,23.2c15,15,23.2,34.9,23.2,56s-8.2,41.1-23.2,56C165.5,697.6,145.6,705.9,124.5,705.9z M124.5,552.7
			c-40.8,0-74,33.2-74,74s33.2,74,74,74s74-33.2,74-74S165.3,552.7,124.5,552.7z"/>
		<path class="st1" d="M119.2,570.5c0,0-0.2-1.1-0.4-2.8c-0.2-1.9-0.4-3.9-0.4-4.3c0,0,0-0.1,0-0.1c0-0.4,0.2,0.9,0.4,2.8
			c0.2,1.9,0.4,3.8,0.4,4.2C119.2,570.4,119.2,570.4,119.2,570.5C119.3,570.5,119.2,570.5,119.2,570.5z"/>
		<path class="st2" d="M114.7,571.1C114.7,571.1,114.7,571.1,114.7,571.1C114.7,571.1,114.7,571.1,114.7,571.1
			c-0.1,0.1-0.4-1.4-0.7-3.4c-0.3-2-0.5-3.6-0.5-3.7c0,0,0,0,0,0c0.1,0.1,0.4,1.8,0.8,3.7C114.6,569.6,114.8,571,114.7,571.1z"/>
		<path class="st10" d="M112.8,568"/>
		<path class="st10" d="M109.4,568.7"/>
		<path class="st3" d="M124.5,689.8c-35.1,0-64-27.5-64.7-61.9c-0.6-28.7,18.8-54.2,47.1-62c1.6-0.4,3.2,0.5,3.6,2.1
			c0.4,1.6-0.5,3.2-2.1,3.6c-25.7,7.1-43.3,30.2-42.8,56.2c0.6,31.1,26.9,56,58.8,56.1c0.4,0,0.8,0,1.2,0c16-0.3,30.9-6.7,41.8-18.1
			c10.5-10.9,16.1-25.2,15.8-40.2c0-0.7,0-1.4-0.1-2.1c-0.1-1.6,1.2-3,2.8-3.1c1.6-0.1,3,1.2,3.1,2.8c0,0.8,0.1,1.5,0.1,2.3
			c0.3,16.6-5.9,32.3-17.5,44.4c-12,12.5-28.4,19.6-46,20C125.4,689.8,124.9,689.8,124.5,689.8z"/>
		<path class="st4" d="M183.9,612.9c-1.3,0-2.5-0.8-2.8-2.1c-3.4-11.5-10.7-21.9-20.4-29.3c-10.1-7.6-22.2-11.8-35-12
			c-1.6,0-2.9-1.4-2.9-3c0-1.6,1.3-2.9,3-2.9c0,0,0,0,0.1,0c14.1,0.2,27.4,4.8,38.5,13.2c10.8,8.1,18.8,19.6,22.6,32.3
			c0.5,1.6-0.4,3.2-2,3.7C184.4,612.8,184.1,612.9,183.9,612.9z"/>
	</g>
	<g>
		<g>
			<path class="st11" d="M127,45.2c0.1-3.9,0.2-5.9,0.3-9.8"/>
			<path class="st11" d="M161.2,50.3c1.4-3.8,2-5.6,3.4-9.4"/>
			<path class="st11" d="M189,62.6c2.3-3.3,3.5-5,5.8-8.3"/>
			<path class="st11" d="M210.8,80.8c3.1-2.7,4.7-4,7.8-6.7"/>
			<path class="st11" d="M226.2,208.6c9.1,4.6,18.2,9.3,27.3,13.9"/>
			<path class="st11" d="M210.7,231.1c7.7,6.6,15.5,13.2,23.2,19.8"/>
			<path class="st11" d="M189,249.3c5.8,8.2,11.6,16.4,17.4,24.6"/>
			<path class="st11" d="M161,261.6c0.2,0.6,0.3,0.8,0.5,1.4"/>
			<path class="st11" d="M226.3,103.4c12.2-6.2,24.4-12.4,36.6-18.7"/>
			<path class="st11" d="M235.6,128.9c13.3-3.2,26.6-6.4,39.9-9.6"/>
			<path class="st11" d="M238.7,156.1c15.1,0,30.1,0,45.2,0.1"/>
			<path class="st11" d="M235.6,183.1c14.6,3.5,29.3,7.1,43.9,10.6"/>
			<path class="st11" d="M127,266.7c0,0.6,0,0.9,0.1,1.5"/>
		</g>
	</g>
	<g>
		<g>
			<path class="st11" d="M127.1,741.5c0,0.2,0,0.3,0,0.4"/>
			<path class="st11" d="M160,737.4c0.1,0.2,0.1,0.2,0.1,0.4"/>
			<path class="st11" d="M187.9,727.3c0.1,0.1,0.1,0.2,0.2,0.4"/>
			<path class="st11" d="M210.7,712.3c0.1,0.1,0.2,0.2,0.3,0.3"/>
			<path class="st11" d="M228.4,693.3c0.2,0.1,0.2,0.1,0.4,0.2"/>
			<path class="st11" d="M241.1,671.4c0.2,0.1,0.3,0.1,0.4,0.2"/>
			<path class="st11" d="M248.7,647.5c0.2,0,0.3,0,0.4,0.1"/>
			<path class="st11" d="M251.2,622.5c0.2,0,0.3,0,0.5,0"/>
			<path class="st11" d="M248.7,597.6c0.2,0,0.3-0.1,0.4-0.1"/>
			<path class="st11" d="M241.1,573.7c0.2-0.1,0.2-0.1,0.4-0.2"/>
			<path class="st11" d="M228.4,551.8c0.1-0.1,0.2-0.2,0.4-0.3"/>
			<path class="st11" d="M210.7,532.8c0.1-0.1,0.2-0.2,0.3-0.3"/>
			<path class="st11" d="M187.9,517.8c0.1-0.2,0.1-0.2,0.2-0.4"/>
			<path class="st11" d="M160,507.7c0-0.2,0.1-0.2,0.1-0.4"/>
			<path class="st11" d="M127.1,503.6c0-0.2,0-0.3,0-0.4"/>
		</g>
	</g>
	<g>
		<g>
			<path class="st11" d="M121.8,266.9c0-0.4,0-0.6,0-1"/>
			<path class="st11" d="M87.9,271.6c-0.1-0.4-0.2-0.6-0.3-0.9"/>
			<path class="st11" d="M59.5,283c-0.1-0.2-0.1-0.2-0.2-0.4"/>
			<path class="st11" d="M37,299.9c-0.1-0.1-0.2-0.2-0.3-0.3"/>
			<path class="st11" d="M20,321.1c-0.2-0.1-0.2-0.1-0.4-0.2"/>
			<path class="st11" d="M8.7,345.2c-0.1-0.1-0.2-0.1-0.4-0.1"/>
			<path class="st11" d="M3,371.2c-0.2,0-0.2,0-0.4-0.1"/>
			<path class="st11" d="M2.9,398c-0.2,0-0.2,0-0.4,0"/>
			<path class="st11" d="M8.5,424.1c-0.2,0.1-0.3,0.1-0.5,0.2"/>
			<path class="st11" d="M19.7,448.6c-0.2,0.1-0.3,0.2-0.5,0.3"/>
			<path class="st11" d="M36.7,470c-0.2,0.1-0.2,0.2-0.4,0.4"/>
			<path class="st11" d="M59.3,487.1c-0.1,0.2-0.2,0.3-0.3,0.4"/>
			<path class="st11" d="M87.7,498.7c-0.1,0.2-0.1,0.3-0.2,0.5"/>
			<path class="st11" d="M87.7,498.6c-0.1,0.2-0.1,0.3-0.2,0.5"/>
			<path class="st11" d="M121.8,503.4c0,0.2,0,0.3,0,0.5"/>
		</g>
	</g>
	<circle class="st12" cx="124.4" cy="155" r="50.1"/>
	<circle class="st12" cx="124.4" cy="386.8" r="26"/>
	<circle class="st12" cx="124.4" cy="626.5" r="6.6"/>
</g>
</svg>
