<!-- Generator: Adobe Illustrator 24.2.1, SVG Export Plug-In  -->
<svg version="1.1" xmlns="http://www.w3.org/2000/svg" xmlns:xlink="http://www.w3.org/1999/xlink" x="0px" y="0px" width="358.8px"
	 height="206.2px" viewBox="0 0 358.8 206.2" style="overflow:visible;enable-background:new 0 0 358.8 206.2;"
	 xml:space="preserve">
<style type="text/css">
	.st0{fill:#A63256;}
	.st1{fill:#CC979E;}
	.st2{fill:#BC6678;}
	.st3{fill:#F5F4F5;}
	.st4{fill:#A64635;}
	.st5{fill:#D36B51;}
	.st6{fill:#C26E31;}
	.st7{fill:#F6AC90;}
	.st8{fill:none;}
	.st9{font-family:'Avenir-Medium';}
	.st10{font-size:12px;}
</style>
<defs>
</defs>
<circle class="st0" cx="36" cy="36" r="36"/>
<circle class="st1" cx="227.2" cy="36" r="36"/>
<circle class="st2" cx="131.6" cy="36" r="36"/>
<circle class="st3" cx="322.8" cy="36" r="36"/>
<circle class="st4" cx="36" cy="152.6" r="36"/>
<circle class="st5" cx="131.6" cy="152.6" r="36"/>
<circle class="st6" cx="227.2" cy="152.6" r="36"/>
<circle class="st7" cx="320" cy="152.6" r="36"/>
<rect x="11.3" y="76.8" class="st8" width="60.8" height="10.3"/>
<text transform="matrix(1 0 0 1 11.2769 85.914)" class="st9 st10">#A63256</text>
<rect x="106.9" y="76.9" class="st8" width="60.8" height="10.3"/>
<text transform="matrix(1 0 0 1 106.8651 86.0142)" class="st9 st10">#BC6678</text>
<rect x="202.5" y="76.9" class="st8" width="60.8" height="10.3"/>
<text transform="matrix(1 0 0 1 202.4533 86.0173)" class="st9 st10">#CC979E</text>
<rect x="298" y="76.8" class="st8" width="60.8" height="10.3"/>
<text transform="matrix(1 0 0 1 298.0415 85.914)" class="st9 st10">#F5F4F5</text>
<rect x="11.3" y="192.3" class="st8" width="60.8" height="10.3"/>
<text transform="matrix(1 0 0 1 11.2768 201.34)" class="st9 st10">#A64635</text>
<rect x="106.9" y="192.3" class="st8" width="60.8" height="10.3"/>
<text transform="matrix(1 0 0 1 106.8656 201.3405)" class="st9 st10">#D36B51</text>
<rect x="205.3" y="192.3" class="st8" width="60.8" height="10.3"/>
<text transform="matrix(1 0 0 1 205.2714 201.34)" class="st9 st10">#C26E31</text>
<rect x="298" y="192.3" class="st8" width="60.8" height="10.3"/>
<text transform="matrix(1 0 0 1 298.0415 201.34)" class="st9 st10">#F6AC90</text>
</svg>
